<ttFont>
    <TTGlyph name=".notdef" xMin="55" yMin="0" xMax="382" yMax="648">
      <contour>
        <pt x="55" y="0" on="1"/>
        <pt x="55" y="648" on="1"/>
        <pt x="382" y="648" on="1"/>
        <pt x="382" y="0" on="1"/>
      </contour>
      <contour>
        <pt x="108" y="55" on="1"/>
        <pt x="327" y="55" on="1"/>
        <pt x="327" y="593" on="1"/>
        <pt x="108" y="593" on="1"/>
      </contour>
    </TTGlyph>
    <TTGlyph name=".notdef#1" xMin="81" yMin="461" xMax="348" yMax="605">
      <contour>
        <pt x="348" y="461" on="1"/>
        <pt x="318" y="461" on="1"/>
        <pt x="214" y="549" on="1"/>
        <pt x="112" y="461" on="1"/>
        <pt x="81" y="461" on="1"/>
        <pt x="188" y="605" on="1"/>
        <pt x="241" y="605" on="1"/>
      </contour>
    </TTGlyph>
    <TTGlyph name=".notdef#2" xMin="2" yMin="460" xMax="281" yMax="549">
      <contour>
        <pt x="281" y="549" on="1"/>
        <pt x="281" y="515" on="0"/>
        <pt x="253" y="487" on="1"/>
        <pt x="226" y="460" on="0"/>
        <pt x="192" y="460" on="1"/>
        <pt x="170" y="460" on="0"/>
        <pt x="131" y="477" on="0"/>
        <pt x="113" y="486" on="1"/>
        <pt x="82" y="499" on="0"/>
        <pt x="71" y="499" on="1"/>
        <pt x="41" y="499" on="0"/>
        <pt x="26" y="460" on="1"/>
        <pt x="2" y="460" on="1"/>
        <pt x="16" y="544" on="0"/>
        <pt x="94" y="544" on="1"/>
        <pt x="112" y="544" on="0"/>
        <pt x="157" y="524" on="1"/>
        <pt x="197" y="505" on="0"/>
        <pt x="209" y="507" on="1"/>
        <pt x="228" y="507" on="0"/>
        <pt x="241" y="520" on="1"/>
        <pt x="248" y="528" on="0"/>
        <pt x="256" y="549" on="1"/>
      </contour>
    </TTGlyph>
    <TTGlyph name=".notdef#3" xMin="-28" yMin="-125" xMax="218" yMax="577">
      <contour>
        <pt x="218" y="464" on="1"/>
        <pt x="192" y="464" on="1"/>
        <pt x="112" y="532" on="1"/>
        <pt x="31" y="464" on="1"/>
        <pt x="6" y="464" on="1"/>
        <pt x="91" y="577" on="1"/>
        <pt x="133" y="577" on="1"/>
      </contour>
      <contour>
        <pt x="152" y="92" on="1"/>
        <pt x="152" y="-18" on="0"/>
        <pt x="105" y="-78" on="1"/>
        <pt x="88" y="-100" on="0"/>
        <pt x="39" y="-123" on="0"/>
        <pt x="10" y="-124" on="1"/>
        <pt x="-5" y="-125" on="0"/>
        <pt x="-28" y="-105" on="0"/>
        <pt x="-28" y="-92" on="1"/>
        <pt x="-28" y="-80" on="0"/>
        <pt x="-18" y="-64" on="0"/>
        <pt x="-7" y="-64" on="1"/>
        <pt x="-4" y="-64" on="0"/>
        <pt x="8" y="-67" on="0"/>
        <pt x="16" y="-73" on="1"/>
        <pt x="31" y="-83" on="0"/>
        <pt x="45" y="-81" on="1"/>
        <pt x="61" y="-80" on="0"/>
        <pt x="69" y="-58" on="1"/>
        <pt x="73" y="-47" on="0"/>
        <pt x="73" y="0" on="1"/>
        <pt x="73" y="379" on="1"/>
        <pt x="19" y="379" on="1"/>
        <pt x="19" y="396" on="1"/>
        <pt x="206" y="396" on="1"/>
        <pt x="206" y="379" on="1"/>
        <pt x="152" y="379" on="1"/>
      </contour>
    </TTGlyph>
    <TTGlyph name=".notdef#4" xMin="26" yMin="-281" xMax="464" yMax="397">
      <contour>
        <pt x="464" y="0" on="1"/>
        <pt x="267" y="0" on="1"/>
        <pt x="267" y="18" on="1"/>
        <pt x="303" y="18" on="0"/>
        <pt x="307" y="28" on="1"/>
        <pt x="311" y="36" on="0"/>
        <pt x="302" y="51" on="1"/>
        <pt x="217" y="199" on="1"/>
        <pt x="158" y="133" on="1"/>
        <pt x="158" y="18" on="1"/>
        <pt x="212" y="18" on="1"/>
        <pt x="212" y="0" on="1"/>
        <pt x="26" y="0" on="1"/>
        <pt x="26" y="18" on="1"/>
        <pt x="79" y="18" on="1"/>
        <pt x="79" y="379" on="1"/>
        <pt x="26" y="379" on="1"/>
        <pt x="26" y="397" on="1"/>
        <pt x="212" y="397" on="1"/>
        <pt x="212" y="379" on="1"/>
        <pt x="158" y="379" on="1"/>
        <pt x="158" y="169" on="1"/>
        <pt x="311" y="338" on="1"/>
        <pt x="322" y="350" on="0"/>
        <pt x="322" y="359" on="1"/>
        <pt x="322" y="365" on="0"/>
        <pt x="317" y="372" on="1"/>
        <pt x="312" y="381" on="0"/>
        <pt x="281" y="379" on="1"/>
        <pt x="281" y="397" on="1"/>
        <pt x="428" y="397" on="1"/>
        <pt x="428" y="379" on="1"/>
        <pt x="389" y="379" on="0"/>
        <pt x="378" y="371" on="1"/>
        <pt x="358" y="359" on="0"/>
        <pt x="331" y="326" on="1"/>
        <pt x="318" y="311" on="0"/>
        <pt x="273" y="261" on="1"/>
        <pt x="395" y="50" on="1"/>
        <pt x="399" y="42" on="0"/>
        <pt x="411" y="24" on="0"/>
        <pt x="420" y="20" on="1"/>
        <pt x="425" y="18" on="0"/>
        <pt x="464" y="18" on="1"/>
      </contour>
      <contour>
        <pt x="301" y="-160" on="1"/>
        <pt x="301" y="-271" on="0"/>
        <pt x="197" y="-281" on="1"/>
        <pt x="188" y="-261" on="1"/>
        <pt x="260" y="-250" on="0"/>
        <pt x="260" y="-209" on="1"/>
        <pt x="260" y="-193" on="0"/>
        <pt x="245" y="-192" on="1"/>
        <pt x="188" y="-190" on="0"/>
        <pt x="188" y="-139" on="1"/>
        <pt x="188" y="-117" on="0"/>
        <pt x="220" y="-90" on="0"/>
        <pt x="241" y="-90" on="1"/>
        <pt x="301" y="-90" on="0"/>
      </contour>
    </TTGlyph>
    <TTGlyph name="A" xMin="27" yMin="0" xMax="634" yMax="619">
      <contour>
        <pt x="634" y="0" on="1"/>
        <pt x="407" y="0" on="1"/>
        <pt x="407" y="27" on="1"/>
        <pt x="477" y="27" on="1"/>
        <pt x="417" y="199" on="1"/>
        <pt x="206" y="199" on="1"/>
        <pt x="173" y="121" on="1"/>
        <pt x="157" y="80" on="0"/>
        <pt x="157" y="55" on="1"/>
        <pt x="157" y="43" on="0"/>
        <pt x="163" y="35" on="1"/>
        <pt x="168" y="27" on="0"/>
        <pt x="218" y="27" on="1"/>
        <pt x="218" y="0" on="1"/>
        <pt x="27" y="0" on="1"/>
        <pt x="27" y="27" on="1"/>
        <pt x="73" y="26" on="0"/>
        <pt x="90" y="37" on="1"/>
        <pt x="114" y="52" on="0"/>
        <pt x="138" y="121" on="1"/>
        <pt x="328" y="619" on="1"/>
        <pt x="363" y="619" on="1"/>
        <pt x="570" y="27" on="1"/>
        <pt x="634" y="27" on="1"/>
      </contour>
      <contour>
        <pt x="405" y="233" on="1"/>
        <pt x="318" y="489" on="1"/>
        <pt x="219" y="233" on="1"/>
      </contour>
    </TTGlyph>
    <TTGlyph name="AE" xMin="21" yMin="0" xMax="920" yMax="603">
      <contour>
        <pt x="920" y="209" on="1"/>
        <pt x="910" y="0" on="1"/>
        <pt x="402" y="0" on="1"/>
        <pt x="402" y="27" on="1"/>
        <pt x="484" y="27" on="1"/>
        <pt x="484" y="199" on="1"/>
        <pt x="262" y="199" on="1"/>
        <pt x="192" y="108" on="1"/>
        <pt x="157" y="63" on="0"/>
        <pt x="157" y="47" on="1"/>
        <pt x="157" y="41" on="0"/>
        <pt x="164" y="27" on="0"/>
        <pt x="178" y="27" on="1"/>
        <pt x="212" y="27" on="1"/>
        <pt x="212" y="0" on="1"/>
        <pt x="21" y="0" on="1"/>
        <pt x="21" y="27" on="1"/>
        <pt x="36" y="29" on="0"/>
        <pt x="69" y="36" on="0"/>
        <pt x="88" y="42" on="1"/>
        <pt x="104" y="52" on="0"/>
        <pt x="147" y="109" on="1"/>
        <pt x="484" y="576" on="1"/>
        <pt x="402" y="576" on="1"/>
        <pt x="402" y="603" on="1"/>
        <pt x="896" y="603" on="1"/>
        <pt x="898" y="425" on="1"/>
        <pt x="871" y="425" on="1"/>
        <pt x="868" y="462" on="0"/>
        <pt x="849" y="517" on="0"/>
        <pt x="811" y="554" on="0"/>
        <pt x="753" y="573" on="0"/>
        <pt x="711" y="574" on="1"/>
        <pt x="562" y="576" on="1"/>
        <pt x="562" y="322" on="1"/>
        <pt x="668" y="322" on="1"/>
        <pt x="706" y="322" on="0"/>
        <pt x="723" y="344" on="1"/>
        <pt x="744" y="371" on="0"/>
        <pt x="744" y="425" on="1"/>
        <pt x="772" y="425" on="1"/>
        <pt x="772" y="183" on="1"/>
        <pt x="744" y="183" on="1"/>
        <pt x="744" y="236" on="0"/>
        <pt x="701" y="292" on="0"/>
        <pt x="668" y="292" on="1"/>
        <pt x="562" y="292" on="1"/>
        <pt x="562" y="27" on="1"/>
        <pt x="725" y="30" on="1"/>
        <pt x="750" y="30" on="0"/>
        <pt x="784" y="43" on="1"/>
        <pt x="819" y="56" on="0"/>
        <pt x="836" y="73" on="1"/>
        <pt x="887" y="121" on="0"/>
        <pt x="892" y="209" on="1"/>
      </contour>
      <contour>
        <pt x="484" y="233" on="1"/>
        <pt x="484" y="514" on="1"/>
        <pt x="283" y="233" on="1"/>
      </contour>
    </TTGlyph>
    <TTGlyph name="AEacute" xMin="24" yMin="0" xMax="923" yMax="825">
      <contour>
        <pt x="923" y="209" on="1"/>
        <pt x="913" y="0" on="1"/>
        <pt x="405" y="0" on="1"/>
        <pt x="405" y="27" on="1"/>
        <pt x="487" y="27" on="1"/>
        <pt x="487" y="199" on="1"/>
        <pt x="265" y="199" on="1"/>
        <pt x="196" y="108" on="1"/>
        <pt x="161" y="63" on="0"/>
        <pt x="161" y="47" on="1"/>
        <pt x="161" y="41" on="0"/>
        <pt x="167" y="27" on="0"/>
        <pt x="181" y="27" on="1"/>
        <pt x="215" y="27" on="1"/>
        <pt x="215" y="0" on="1"/>
        <pt x="24" y="0" on="1"/>
        <pt x="24" y="27" on="1"/>
        <pt x="39" y="29" on="0"/>
        <pt x="73" y="36" on="0"/>
        <pt x="92" y="42" on="1"/>
        <pt x="108" y="52" on="0"/>
        <pt x="150" y="109" on="1"/>
        <pt x="487" y="576" on="1"/>
        <pt x="405" y="576" on="1"/>
        <pt x="405" y="603" on="1"/>
        <pt x="899" y="603" on="1"/>
        <pt x="901" y="425" on="1"/>
        <pt x="874" y="425" on="1"/>
        <pt x="871" y="462" on="0"/>
        <pt x="852" y="517" on="0"/>
        <pt x="815" y="554" on="0"/>
        <pt x="757" y="573" on="0"/>
        <pt x="715" y="574" on="1"/>
        <pt x="565" y="576" on="1"/>
        <pt x="565" y="322" on="1"/>
        <pt x="672" y="322" on="1"/>
        <pt x="710" y="322" on="0"/>
        <pt x="726" y="344" on="1"/>
        <pt x="747" y="371" on="0"/>
        <pt x="747" y="425" on="1"/>
        <pt x="775" y="425" on="1"/>
        <pt x="775" y="183" on="1"/>
        <pt x="747" y="183" on="1"/>
        <pt x="747" y="236" on="0"/>
        <pt x="704" y="292" on="0"/>
        <pt x="672" y="292" on="1"/>
        <pt x="565" y="292" on="1"/>
        <pt x="565" y="27" on="1"/>
        <pt x="729" y="30" on="1"/>
        <pt x="753" y="30" on="0"/>
        <pt x="787" y="43" on="1"/>
        <pt x="822" y="56" on="0"/>
        <pt x="839" y="73" on="1"/>
        <pt x="891" y="121" on="0"/>
        <pt x="895" y="209" on="1"/>
      </contour>
      <contour>
        <pt x="487" y="233" on="1"/>
        <pt x="487" y="514" on="1"/>
        <pt x="286" y="233" on="1"/>
      </contour>
      <contour>
        <pt x="666" y="794" on="1"/>
        <pt x="666" y="775" on="0"/>
        <pt x="654" y="764" on="1"/>
        <pt x="538" y="645" on="1"/>
        <pt x="520" y="649" on="1"/>
        <pt x="605" y="808" on="1"/>
        <pt x="614" y="825" on="0"/>
        <pt x="637" y="825" on="1"/>
        <pt x="666" y="825" on="0"/>
      </contour>
    </TTGlyph>
    <TTGlyph name="AEsmall" xMin="10" yMin="0" xMax="634" yMax="396">
      <contour>
        <pt x="634" y="138" on="1"/>
        <pt x="627" y="0" on="1"/>
        <pt x="264" y="0" on="1"/>
        <pt x="264" y="18" on="1"/>
        <pt x="319" y="18" on="1"/>
        <pt x="319" y="131" on="1"/>
        <pt x="172" y="131" on="1"/>
        <pt x="127" y="71" on="1"/>
        <pt x="104" y="40" on="0"/>
        <pt x="104" y="31" on="1"/>
        <pt x="104" y="28" on="0"/>
        <pt x="106" y="23" on="1"/>
        <pt x="108" y="18" on="0"/>
        <pt x="139" y="18" on="1"/>
        <pt x="139" y="0" on="1"/>
        <pt x="10" y="0" on="1"/>
        <pt x="10" y="18" on="1"/>
        <pt x="19" y="20" on="0"/>
        <pt x="42" y="24" on="0"/>
        <pt x="54" y="28" on="1"/>
        <pt x="68" y="38" on="0"/>
        <pt x="93" y="73" on="1"/>
        <pt x="314" y="379" on="1"/>
        <pt x="264" y="379" on="1"/>
        <pt x="264" y="396" on="1"/>
        <pt x="618" y="396" on="1"/>
        <pt x="619" y="280" on="1"/>
        <pt x="594" y="280" on="1"/>
        <pt x="590" y="325" on="0"/>
        <pt x="544" y="373" on="0"/>
        <pt x="489" y="374" on="1"/>
        <pt x="397" y="375" on="1"/>
        <pt x="397" y="213" on="1"/>
        <pt x="465" y="213" on="1"/>
        <pt x="515" y="213" on="0"/>
        <pt x="515" y="280" on="1"/>
        <pt x="536" y="280" on="1"/>
        <pt x="536" y="120" on="1"/>
        <pt x="515" y="120" on="1"/>
        <pt x="515" y="155" on="0"/>
        <pt x="485" y="190" on="0"/>
        <pt x="465" y="190" on="1"/>
        <pt x="397" y="190" on="1"/>
        <pt x="397" y="21" on="1"/>
        <pt x="501" y="23" on="1"/>
        <pt x="544" y="23" on="0"/>
        <pt x="574" y="51" on="1"/>
        <pt x="608" y="84" on="0"/>
        <pt x="611" y="138" on="1"/>
      </contour>
      <contour>
        <pt x="319" y="153" on="1"/>
        <pt x="319" y="339" on="1"/>
        <pt x="186" y="153" on="1"/>
      </contour>
    </TTGlyph>
    <TTGlyph name="Aacute" xMin="27" yMin="0" xMax="634" yMax="826">
      <contour>
        <pt x="634" y="0" on="1"/>
        <pt x="407" y="0" on="1"/>
        <pt x="407" y="27" on="1"/>
        <pt x="477" y="27" on="1"/>
        <pt x="417" y="199" on="1"/>
        <pt x="206" y="199" on="1"/>
        <pt x="173" y="121" on="1"/>
        <pt x="157" y="80" on="0"/>
        <pt x="157" y="55" on="1"/>
        <pt x="157" y="43" on="0"/>
        <pt x="163" y="35" on="1"/>
        <pt x="168" y="27" on="0"/>
        <pt x="218" y="27" on="1"/>
        <pt x="218" y="0" on="1"/>
        <pt x="27" y="0" on="1"/>
        <pt x="27" y="27" on="1"/>
        <pt x="73" y="26" on="0"/>
        <pt x="90" y="37" on="1"/>
        <pt x="114" y="52" on="0"/>
        <pt x="138" y="121" on="1"/>
        <pt x="328" y="619" on="1"/>
        <pt x="363" y="619" on="1"/>
        <pt x="570" y="27" on="1"/>
        <pt x="634" y="27" on="1"/>
      </contour>
      <contour>
        <pt x="405" y="233" on="1"/>
        <pt x="318" y="489" on="1"/>
        <pt x="219" y="233" on="1"/>
      </contour>
      <contour>
        <pt x="484" y="794" on="1"/>
        <pt x="484" y="776" on="0"/>
        <pt x="472" y="765" on="1"/>
        <pt x="356" y="646" on="1"/>
        <pt x="338" y="650" on="1"/>
        <pt x="423" y="808" on="1"/>
        <pt x="432" y="826" on="0"/>
        <pt x="455" y="826" on="1"/>
        <pt x="484" y="826" on="0"/>
      </contour>
    </TTGlyph>
    <TTGlyph name="Aacutesmall" xMin="13" yMin="0" xMax="441" yMax="593">
      <contour>
        <pt x="441" y="0" on="1"/>
        <pt x="263" y="0" on="1"/>
        <pt x="263" y="18" on="1"/>
        <pt x="309" y="18" on="1"/>
        <pt x="271" y="131" on="1"/>
        <pt x="131" y="131" on="1"/>
        <pt x="110" y="79" on="1"/>
        <pt x="99" y="52" on="0"/>
        <pt x="99" y="36" on="1"/>
        <pt x="99" y="27" on="0"/>
        <pt x="102" y="23" on="1"/>
        <pt x="107" y="18" on="0"/>
        <pt x="139" y="18" on="1"/>
        <pt x="139" y="0" on="1"/>
        <pt x="13" y="0" on="1"/>
        <pt x="13" y="18" on="1"/>
        <pt x="43" y="16" on="0"/>
        <pt x="55" y="24" on="1"/>
        <pt x="69" y="35" on="0"/>
        <pt x="87" y="79" on="1"/>
        <pt x="212" y="408" on="1"/>
        <pt x="262" y="408" on="1"/>
        <pt x="397" y="18" on="1"/>
        <pt x="441" y="18" on="1"/>
      </contour>
      <contour>
        <pt x="262" y="153" on="1"/>
        <pt x="204" y="322" on="1"/>
        <pt x="140" y="153" on="1"/>
      </contour>
      <contour>
        <pt x="365" y="569" on="1"/>
        <pt x="365" y="554" on="0"/>
        <pt x="355" y="544" on="1"/>
        <pt x="251" y="449" on="1"/>
        <pt x="233" y="452" on="1"/>
        <pt x="310" y="579" on="1"/>
        <pt x="318" y="593" on="0"/>
        <pt x="339" y="593" on="1"/>
        <pt x="365" y="593" on="0"/>
      </contour>
    </TTGlyph>
    <TTGlyph name="Abreve" xMin="27" yMin="0" xMax="634" yMax="788">
      <contour>
        <pt x="634" y="0" on="1"/>
        <pt x="407" y="0" on="1"/>
        <pt x="407" y="27" on="1"/>
        <pt x="477" y="27" on="1"/>
        <pt x="417" y="199" on="1"/>
        <pt x="206" y="199" on="1"/>
        <pt x="173" y="121" on="1"/>
        <pt x="157" y="80" on="0"/>
        <pt x="157" y="55" on="1"/>
        <pt x="157" y="43" on="0"/>
        <pt x="163" y="35" on="1"/>
        <pt x="168" y="27" on="0"/>
        <pt x="218" y="27" on="1"/>
        <pt x="218" y="0" on="1"/>
        <pt x="27" y="0" on="1"/>
        <pt x="27" y="27" on="1"/>
        <pt x="73" y="26" on="0"/>
        <pt x="90" y="37" on="1"/>
        <pt x="114" y="52" on="0"/>
        <pt x="138" y="121" on="1"/>
        <pt x="328" y="619" on="1"/>
        <pt x="363" y="619" on="1"/>
        <pt x="570" y="27" on="1"/>
        <pt x="634" y="27" on="1"/>
      </contour>
      <contour>
        <pt x="405" y="233" on="1"/>
        <pt x="318" y="489" on="1"/>
        <pt x="219" y="233" on="1"/>
      </contour>
      <contour>
        <pt x="465" y="786" on="1"/>
        <pt x="465" y="728" on="0"/>
        <pt x="430" y="689" on="1"/>
        <pt x="394" y="651" on="0"/>
        <pt x="338" y="651" on="1"/>
        <pt x="277" y="651" on="0"/>
        <pt x="206" y="725" on="0"/>
        <pt x="206" y="786" on="1"/>
        <pt x="208" y="788" on="1"/>
        <pt x="231" y="788" on="1"/>
        <pt x="248" y="707" on="0"/>
        <pt x="339" y="707" on="1"/>
        <pt x="424" y="707" on="0"/>
        <pt x="439" y="788" on="1"/>
        <pt x="462" y="788" on="1"/>
      </contour>
    </TTGlyph>
    <TTGlyph name="Abreveacute" xMin="27" yMin="0" xMax="634" yMax="904">
      <contour>
        <pt x="634" y="0" on="1"/>
        <pt x="407" y="0" on="1"/>
        <pt x="407" y="27" on="1"/>
        <pt x="477" y="27" on="1"/>
        <pt x="417" y="199" on="1"/>
        <pt x="206" y="199" on="1"/>
        <pt x="173" y="121" on="1"/>
        <pt x="157" y="80" on="0"/>
        <pt x="157" y="55" on="1"/>
        <pt x="157" y="43" on="0"/>
        <pt x="163" y="35" on="1"/>
        <pt x="168" y="27" on="0"/>
        <pt x="218" y="27" on="1"/>
        <pt x="218" y="0" on="1"/>
        <pt x="27" y="0" on="1"/>
        <pt x="27" y="27" on="1"/>
        <pt x="73" y="26" on="0"/>
        <pt x="90" y="37" on="1"/>
        <pt x="114" y="52" on="0"/>
        <pt x="138" y="121" on="1"/>
        <pt x="328" y="619" on="1"/>
        <pt x="363" y="619" on="1"/>
        <pt x="570" y="27" on="1"/>
        <pt x="634" y="27" on="1"/>
      </contour>
      <contour>
        <pt x="405" y="233" on="1"/>
        <pt x="318" y="489" on="1"/>
        <pt x="219" y="233" on="1"/>
      </contour>
      <contour>
        <pt x="479" y="780" on="1"/>
        <pt x="479" y="722" on="0"/>
        <pt x="444" y="684" on="1"/>
        <pt x="408" y="646" on="0"/>
        <pt x="352" y="646" on="1"/>
        <pt x="291" y="646" on="0"/>
        <pt x="220" y="719" on="0"/>
        <pt x="220" y="780" on="1"/>
        <pt x="222" y="783" on="1"/>
        <pt x="245" y="783" on="1"/>
        <pt x="262" y="701" on="0"/>
        <pt x="354" y="701" on="1"/>
        <pt x="440" y="701" on="0"/>
        <pt x="454" y="783" on="1"/>
        <pt x="477" y="783" on="1"/>
      </contour>
      <contour>
        <pt x="483" y="874" on="1"/>
        <pt x="483" y="855" on="0"/>
        <pt x="472" y="843" on="1"/>
        <pt x="356" y="725" on="1"/>
        <pt x="337" y="728" on="1"/>
        <pt x="422" y="886" on="1"/>
        <pt x="431" y="904" on="0"/>
        <pt x="454" y="904" on="1"/>
        <pt x="483" y="904" on="0"/>
      </contour>
    </TTGlyph>
    <TTGlyph name="Abrevedotbelow" xMin="27" yMin="-211" xMax="634" yMax="781">
      <contour>
        <pt x="634" y="0" on="1"/>
        <pt x="407" y="0" on="1"/>
        <pt x="407" y="27" on="1"/>
        <pt x="477" y="27" on="1"/>
        <pt x="417" y="199" on="1"/>
        <pt x="206" y="199" on="1"/>
        <pt x="173" y="121" on="1"/>
        <pt x="157" y="80" on="0"/>
        <pt x="157" y="55" on="1"/>
        <pt x="157" y="43" on="0"/>
        <pt x="163" y="35" on="1"/>
        <pt x="168" y="27" on="0"/>
        <pt x="218" y="27" on="1"/>
        <pt x="218" y="0" on="1"/>
        <pt x="27" y="0" on="1"/>
        <pt x="27" y="27" on="1"/>
        <pt x="73" y="26" on="0"/>
        <pt x="90" y="37" on="1"/>
        <pt x="114" y="52" on="0"/>
        <pt x="138" y="121" on="1"/>
        <pt x="328" y="619" on="1"/>
        <pt x="363" y="619" on="1"/>
        <pt x="570" y="27" on="1"/>
        <pt x="634" y="27" on="1"/>
      </contour>
      <contour>
        <pt x="405" y="233" on="1"/>
        <pt x="318" y="489" on="1"/>
        <pt x="219" y="233" on="1"/>
      </contour>
      <contour>
        <pt x="472" y="779" on="1"/>
        <pt x="472" y="721" on="0"/>
        <pt x="437" y="682" on="1"/>
        <pt x="402" y="644" on="0"/>
        <pt x="346" y="644" on="1"/>
        <pt x="285" y="644" on="0"/>
        <pt x="213" y="718" on="0"/>
        <pt x="213" y="779" on="1"/>
        <pt x="216" y="781" on="1"/>
        <pt x="239" y="781" on="1"/>
        <pt x="255" y="700" on="0"/>
        <pt x="347" y="700" on="1"/>
        <pt x="432" y="700" on="0"/>
        <pt x="447" y="781" on="1"/>
        <pt x="470" y="781" on="1"/>
      </contour>
      <contour>
        <pt x="368" y="-164" on="1"/>
        <pt x="368" y="-184" on="0"/>
        <pt x="340" y="-211" on="0"/>
        <pt x="321" y="-211" on="1"/>
        <pt x="302" y="-211" on="0"/>
        <pt x="274" y="-184" on="0"/>
        <pt x="274" y="-164" on="1"/>
        <pt x="274" y="-145" on="0"/>
        <pt x="302" y="-118" on="0"/>
        <pt x="321" y="-118" on="1"/>
        <pt x="341" y="-118" on="0"/>
        <pt x="368" y="-145" on="0"/>
      </contour>
    </TTGlyph>
    <TTGlyph name="Abrevegrave" xMin="27" yMin="0" xMax="634" yMax="916">
      <contour>
        <pt x="634" y="0" on="1"/>
        <pt x="407" y="0" on="1"/>
        <pt x="407" y="27" on="1"/>
        <pt x="477" y="27" on="1"/>
        <pt x="417" y="199" on="1"/>
        <pt x="206" y="199" on="1"/>
        <pt x="173" y="121" on="1"/>
        <pt x="157" y="80" on="0"/>
        <pt x="157" y="55" on="1"/>
        <pt x="157" y="43" on="0"/>
        <pt x="163" y="35" on="1"/>
        <pt x="168" y="27" on="0"/>
        <pt x="218" y="27" on="1"/>
        <pt x="218" y="0" on="1"/>
        <pt x="27" y="0" on="1"/>
        <pt x="27" y="27" on="1"/>
        <pt x="73" y="26" on="0"/>
        <pt x="90" y="37" on="1"/>
        <pt x="114" y="52" on="0"/>
        <pt x="138" y="121" on="1"/>
        <pt x="328" y="619" on="1"/>
        <pt x="363" y="619" on="1"/>
        <pt x="570" y="27" on="1"/>
        <pt x="634" y="27" on="1"/>
      </contour>
      <contour>
        <pt x="405" y="233" on="1"/>
        <pt x="318" y="489" on="1"/>
        <pt x="219" y="233" on="1"/>
      </contour>
      <contour>
        <pt x="475" y="785" on="1"/>
        <pt x="475" y="727" on="0"/>
        <pt x="440" y="689" on="1"/>
        <pt x="404" y="650" on="0"/>
        <pt x="348" y="650" on="1"/>
        <pt x="318" y="650" on="0"/>
        <pt x="269" y="670" on="0"/>
        <pt x="234" y="705" on="0"/>
        <pt x="216" y="755" on="0"/>
        <pt x="216" y="785" on="1"/>
        <pt x="219" y="788" on="1"/>
        <pt x="241" y="788" on="1"/>
        <pt x="258" y="706" on="0"/>
        <pt x="350" y="706" on="1"/>
        <pt x="436" y="706" on="0"/>
        <pt x="450" y="788" on="1"/>
        <pt x="472" y="788" on="1"/>
      </contour>
      <contour>
        <pt x="366" y="738" on="1"/>
        <pt x="344" y="738" on="1"/>
        <pt x="223" y="857" on="1"/>
        <pt x="213" y="868" on="0"/>
        <pt x="213" y="884" on="1"/>
        <pt x="213" y="916" on="0"/>
        <pt x="247" y="916" on="1"/>
        <pt x="269" y="916" on="0"/>
        <pt x="279" y="898" on="1"/>
      </contour>
    </TTGlyph>
    <TTGlyph name="Abrevehookabove" xMin="27" yMin="0" xMax="634" yMax="899">
      <contour>
        <pt x="634" y="0" on="1"/>
        <pt x="407" y="0" on="1"/>
        <pt x="407" y="27" on="1"/>
        <pt x="477" y="27" on="1"/>
        <pt x="417" y="199" on="1"/>
        <pt x="206" y="199" on="1"/>
        <pt x="173" y="121" on="1"/>
        <pt x="157" y="80" on="0"/>
        <pt x="157" y="55" on="1"/>
        <pt x="157" y="43" on="0"/>
        <pt x="163" y="35" on="1"/>
        <pt x="168" y="27" on="0"/>
        <pt x="218" y="27" on="1"/>
        <pt x="218" y="0" on="1"/>
        <pt x="27" y="0" on="1"/>
        <pt x="27" y="27" on="1"/>
        <pt x="73" y="26" on="0"/>
        <pt x="90" y="37" on="1"/>
        <pt x="114" y="52" on="0"/>
        <pt x="138" y="121" on="1"/>
        <pt x="328" y="619" on="1"/>
        <pt x="363" y="619" on="1"/>
        <pt x="570" y="27" on="1"/>
        <pt x="634" y="27" on="1"/>
      </contour>
      <contour>
        <pt x="405" y="233" on="1"/>
        <pt x="318" y="489" on="1"/>
        <pt x="219" y="233" on="1"/>
      </contour>
      <contour>
        <pt x="476" y="780" on="1"/>
        <pt x="476" y="722" on="0"/>
        <pt x="441" y="684" on="1"/>
        <pt x="405" y="646" on="0"/>
        <pt x="349" y="646" on="1"/>
        <pt x="289" y="646" on="0"/>
        <pt x="218" y="719" on="0"/>
        <pt x="218" y="780" on="1"/>
        <pt x="220" y="783" on="1"/>
        <pt x="242" y="783" on="1"/>
        <pt x="259" y="701" on="0"/>
        <pt x="351" y="701" on="1"/>
        <pt x="437" y="701" on="0"/>
        <pt x="451" y="783" on="1"/>
        <pt x="474" y="783" on="1"/>
      </contour>
      <contour>
        <pt x="352" y="734" on="1"/>
        <pt x="350" y="730" on="0"/>
        <pt x="346" y="730" on="1"/>
        <pt x="338" y="730" on="0"/>
        <pt x="327" y="746" on="0"/>
        <pt x="327" y="755" on="1"/>
        <pt x="327" y="769" on="0"/>
        <pt x="351" y="797" on="1"/>
        <pt x="375" y="824" on="0"/>
        <pt x="375" y="838" on="1"/>
        <pt x="375" y="871" on="0"/>
        <pt x="338" y="868" on="1"/>
        <pt x="321" y="867" on="0"/>
        <pt x="309" y="843" on="1"/>
        <pt x="305" y="835" on="0"/>
        <pt x="297" y="835" on="1"/>
        <pt x="285" y="835" on="0"/>
        <pt x="285" y="849" on="1"/>
        <pt x="285" y="866" on="0"/>
        <pt x="315" y="892" on="0"/>
        <pt x="332" y="897" on="1"/>
        <pt x="341" y="899" on="0"/>
        <pt x="352" y="899" on="1"/>
        <pt x="376" y="899" on="0"/>
        <pt x="411" y="871" on="0"/>
        <pt x="411" y="845" on="1"/>
        <pt x="411" y="824" on="0"/>
        <pt x="379" y="793" on="1"/>
        <pt x="346" y="761" on="0"/>
        <pt x="346" y="752" on="1"/>
        <pt x="346" y="748" on="0"/>
        <pt x="353" y="738" on="0"/>
      </contour>
    </TTGlyph>
    <TTGlyph name="Abrevetilde" xMin="27" yMin="0" xMax="634" yMax="904">
      <contour>
        <pt x="634" y="0" on="1"/>
        <pt x="407" y="0" on="1"/>
        <pt x="407" y="27" on="1"/>
        <pt x="477" y="27" on="1"/>
        <pt x="417" y="199" on="1"/>
        <pt x="206" y="199" on="1"/>
        <pt x="173" y="121" on="1"/>
        <pt x="157" y="80" on="0"/>
        <pt x="157" y="55" on="1"/>
        <pt x="157" y="43" on="0"/>
        <pt x="163" y="35" on="1"/>
        <pt x="168" y="27" on="0"/>
        <pt x="218" y="27" on="1"/>
        <pt x="218" y="0" on="1"/>
        <pt x="27" y="0" on="1"/>
        <pt x="27" y="27" on="1"/>
        <pt x="73" y="26" on="0"/>
        <pt x="90" y="37" on="1"/>
        <pt x="114" y="52" on="0"/>
        <pt x="138" y="121" on="1"/>
        <pt x="328" y="619" on="1"/>
        <pt x="363" y="619" on="1"/>
        <pt x="570" y="27" on="1"/>
        <pt x="634" y="27" on="1"/>
      </contour>
      <contour>
        <pt x="405" y="233" on="1"/>
        <pt x="318" y="489" on="1"/>
        <pt x="219" y="233" on="1"/>
      </contour>
      <contour>
        <pt x="470" y="783" on="1"/>
        <pt x="470" y="725" on="0"/>
        <pt x="435" y="687" on="1"/>
        <pt x="399" y="648" on="0"/>
        <pt x="343" y="648" on="1"/>
        <pt x="283" y="648" on="0"/>
        <pt x="211" y="723" on="0"/>
        <pt x="211" y="783" on="1"/>
        <pt x="213" y="786" on="1"/>
        <pt x="236" y="786" on="1"/>
        <pt x="253" y="704" on="0"/>
        <pt x="345" y="704" on="1"/>
        <pt x="430" y="704" on="0"/>
        <pt x="444" y="786" on="1"/>
        <pt x="467" y="786" on="1"/>
      </contour>
      <contour>
        <pt x="482" y="904" on="1"/>
        <pt x="478" y="813" on="0"/>
        <pt x="401" y="813" on="1"/>
        <pt x="374" y="813" on="0"/>
        <pt x="325" y="829" on="1"/>
        <pt x="275" y="847" on="0"/>
        <pt x="252" y="847" on="1"/>
        <pt x="237" y="847" on="0"/>
        <pt x="208" y="826" on="0"/>
        <pt x="206" y="811" on="1"/>
        <pt x="191" y="811" on="1"/>
        <pt x="196" y="895" on="0"/>
        <pt x="269" y="895" on="1"/>
        <pt x="295" y="895" on="0"/>
        <pt x="347" y="880" on="1"/>
        <pt x="400" y="865" on="0"/>
        <pt x="424" y="865" on="1"/>
        <pt x="458" y="865" on="0"/>
        <pt x="467" y="904" on="1"/>
      </contour>
    </TTGlyph>
    <TTGlyph name="Acircumflex" xMin="27" yMin="0" xMax="634" yMax="792">
      <contour>
        <pt x="634" y="0" on="1"/>
        <pt x="407" y="0" on="1"/>
        <pt x="407" y="27" on="1"/>
        <pt x="477" y="27" on="1"/>
        <pt x="417" y="199" on="1"/>
        <pt x="206" y="199" on="1"/>
        <pt x="173" y="121" on="1"/>
        <pt x="157" y="80" on="0"/>
        <pt x="157" y="55" on="1"/>
        <pt x="157" y="43" on="0"/>
        <pt x="163" y="35" on="1"/>
        <pt x="168" y="27" on="0"/>
        <pt x="218" y="27" on="1"/>
        <pt x="218" y="0" on="1"/>
        <pt x="27" y="0" on="1"/>
        <pt x="27" y="27" on="1"/>
        <pt x="73" y="26" on="0"/>
        <pt x="90" y="37" on="1"/>
        <pt x="114" y="52" on="0"/>
        <pt x="138" y="121" on="1"/>
        <pt x="328" y="619" on="1"/>
        <pt x="363" y="619" on="1"/>
        <pt x="570" y="27" on="1"/>
        <pt x="634" y="27" on="1"/>
      </contour>
      <contour>
        <pt x="405" y="233" on="1"/>
        <pt x="318" y="489" on="1"/>
        <pt x="219" y="233" on="1"/>
      </contour>
      <contour>
        <pt x="483" y="648" on="1"/>
        <pt x="453" y="648" on="1"/>
        <pt x="349" y="737" on="1"/>
        <pt x="247" y="648" on="1"/>
        <pt x="216" y="648" on="1"/>
        <pt x="323" y="792" on="1"/>
        <pt x="376" y="792" on="1"/>
      </contour>
    </TTGlyph>
    <TTGlyph name="Acircumflexacute" xMin="27" yMin="0" xMax="655" yMax="826">
      <contour>
        <pt x="634" y="0" on="1"/>
        <pt x="407" y="0" on="1"/>
        <pt x="407" y="27" on="1"/>
        <pt x="477" y="27" on="1"/>
        <pt x="417" y="199" on="1"/>
        <pt x="206" y="199" on="1"/>
        <pt x="173" y="121" on="1"/>
        <pt x="157" y="80" on="0"/>
        <pt x="157" y="55" on="1"/>
        <pt x="157" y="43" on="0"/>
        <pt x="163" y="35" on="1"/>
        <pt x="168" y="27" on="0"/>
        <pt x="218" y="27" on="1"/>
        <pt x="218" y="0" on="1"/>
        <pt x="27" y="0" on="1"/>
        <pt x="27" y="27" on="1"/>
        <pt x="73" y="26" on="0"/>
        <pt x="90" y="37" on="1"/>
        <pt x="114" y="52" on="0"/>
        <pt x="138" y="121" on="1"/>
        <pt x="328" y="619" on="1"/>
        <pt x="363" y="619" on="1"/>
        <pt x="570" y="27" on="1"/>
        <pt x="634" y="27" on="1"/>
      </contour>
      <contour>
        <pt x="405" y="233" on="1"/>
        <pt x="318" y="489" on="1"/>
        <pt x="219" y="233" on="1"/>
      </contour>
      <contour>
        <pt x="655" y="796" on="1"/>
        <pt x="655" y="778" on="0"/>
        <pt x="645" y="766" on="1"/>
        <pt x="529" y="647" on="1"/>
        <pt x="510" y="650" on="1"/>
        <pt x="595" y="809" on="1"/>
        <pt x="604" y="826" on="0"/>
        <pt x="626" y="826" on="1"/>
        <pt x="655" y="826" on="0"/>
      </contour>
      <contour>
        <pt x="482" y="648" on="1"/>
        <pt x="452" y="648" on="1"/>
        <pt x="348" y="737" on="1"/>
        <pt x="246" y="648" on="1"/>
        <pt x="215" y="648" on="1"/>
        <pt x="322" y="792" on="1"/>
        <pt x="375" y="792" on="1"/>
      </contour>
    </TTGlyph>
    <TTGlyph name="Acircumflexdotbelow" xMin="27" yMin="-204" xMax="634" yMax="790">
      <contour>
        <pt x="634" y="0" on="1"/>
        <pt x="407" y="0" on="1"/>
        <pt x="407" y="27" on="1"/>
        <pt x="477" y="27" on="1"/>
        <pt x="417" y="199" on="1"/>
        <pt x="206" y="199" on="1"/>
        <pt x="173" y="121" on="1"/>
        <pt x="157" y="80" on="0"/>
        <pt x="157" y="55" on="1"/>
        <pt x="157" y="43" on="0"/>
        <pt x="163" y="35" on="1"/>
        <pt x="168" y="27" on="0"/>
        <pt x="218" y="27" on="1"/>
        <pt x="218" y="0" on="1"/>
        <pt x="27" y="0" on="1"/>
        <pt x="27" y="27" on="1"/>
        <pt x="73" y="26" on="0"/>
        <pt x="90" y="37" on="1"/>
        <pt x="114" y="52" on="0"/>
        <pt x="138" y="121" on="1"/>
        <pt x="328" y="619" on="1"/>
        <pt x="363" y="619" on="1"/>
        <pt x="570" y="27" on="1"/>
        <pt x="634" y="27" on="1"/>
      </contour>
      <contour>
        <pt x="405" y="233" on="1"/>
        <pt x="318" y="489" on="1"/>
        <pt x="219" y="233" on="1"/>
      </contour>
      <contour>
        <pt x="368" y="-157" on="1"/>
        <pt x="368" y="-177" on="0"/>
        <pt x="340" y="-204" on="0"/>
        <pt x="321" y="-204" on="1"/>
        <pt x="302" y="-204" on="0"/>
        <pt x="274" y="-177" on="0"/>
        <pt x="274" y="-157" on="1"/>
        <pt x="274" y="-138" on="0"/>
        <pt x="302" y="-111" on="0"/>
        <pt x="321" y="-111" on="1"/>
        <pt x="341" y="-111" on="0"/>
        <pt x="368" y="-138" on="0"/>
      </contour>
      <contour>
        <pt x="479" y="647" on="1"/>
        <pt x="449" y="647" on="1"/>
        <pt x="345" y="735" on="1"/>
        <pt x="242" y="647" on="1"/>
        <pt x="212" y="647" on="1"/>
        <pt x="318" y="790" on="1"/>
        <pt x="372" y="790" on="1"/>
      </contour>
    </TTGlyph>
    <TTGlyph name="Acircumflexgrave" xMin="27" yMin="0" xMax="634" yMax="824">
      <contour>
        <pt x="634" y="0" on="1"/>
        <pt x="407" y="0" on="1"/>
        <pt x="407" y="27" on="1"/>
        <pt x="477" y="27" on="1"/>
        <pt x="417" y="199" on="1"/>
        <pt x="206" y="199" on="1"/>
        <pt x="173" y="121" on="1"/>
        <pt x="157" y="80" on="0"/>
        <pt x="157" y="55" on="1"/>
        <pt x="157" y="43" on="0"/>
        <pt x="163" y="35" on="1"/>
        <pt x="168" y="27" on="0"/>
        <pt x="218" y="27" on="1"/>
        <pt x="218" y="0" on="1"/>
        <pt x="27" y="0" on="1"/>
        <pt x="27" y="27" on="1"/>
        <pt x="73" y="26" on="0"/>
        <pt x="90" y="37" on="1"/>
        <pt x="114" y="52" on="0"/>
        <pt x="138" y="121" on="1"/>
        <pt x="328" y="619" on="1"/>
        <pt x="363" y="619" on="1"/>
        <pt x="570" y="27" on="1"/>
        <pt x="634" y="27" on="1"/>
      </contour>
      <contour>
        <pt x="405" y="233" on="1"/>
        <pt x="318" y="489" on="1"/>
        <pt x="219" y="233" on="1"/>
      </contour>
      <contour>
        <pt x="569" y="647" on="1"/>
        <pt x="547" y="647" on="1"/>
        <pt x="426" y="765" on="1"/>
        <pt x="416" y="776" on="0"/>
        <pt x="416" y="792" on="1"/>
        <pt x="416" y="824" on="0"/>
        <pt x="449" y="824" on="1"/>
        <pt x="472" y="824" on="0"/>
        <pt x="482" y="806" on="1"/>
      </contour>
      <contour>
        <pt x="483" y="649" on="1"/>
        <pt x="453" y="649" on="1"/>
        <pt x="349" y="738" on="1"/>
        <pt x="247" y="649" on="1"/>
        <pt x="216" y="649" on="1"/>
        <pt x="323" y="793" on="1"/>
        <pt x="376" y="793" on="1"/>
      </contour>
    </TTGlyph>
    <TTGlyph name="Acircumflexhookabove" xMin="27" yMin="0" xMax="634" yMax="820">
      <contour>
        <pt x="634" y="0" on="1"/>
        <pt x="407" y="0" on="1"/>
        <pt x="407" y="27" on="1"/>
        <pt x="477" y="27" on="1"/>
        <pt x="417" y="199" on="1"/>
        <pt x="206" y="199" on="1"/>
        <pt x="173" y="121" on="1"/>
        <pt x="157" y="80" on="0"/>
        <pt x="157" y="55" on="1"/>
        <pt x="157" y="43" on="0"/>
        <pt x="163" y="35" on="1"/>
        <pt x="168" y="27" on="0"/>
        <pt x="218" y="27" on="1"/>
        <pt x="218" y="0" on="1"/>
        <pt x="27" y="0" on="1"/>
        <pt x="27" y="27" on="1"/>
        <pt x="73" y="26" on="0"/>
        <pt x="90" y="37" on="1"/>
        <pt x="114" y="52" on="0"/>
        <pt x="138" y="121" on="1"/>
        <pt x="328" y="619" on="1"/>
        <pt x="363" y="619" on="1"/>
        <pt x="570" y="27" on="1"/>
        <pt x="634" y="27" on="1"/>
      </contour>
      <contour>
        <pt x="405" y="233" on="1"/>
        <pt x="318" y="489" on="1"/>
        <pt x="219" y="233" on="1"/>
      </contour>
      <contour>
        <pt x="537" y="654" on="1"/>
        <pt x="536" y="650" on="0"/>
        <pt x="531" y="650" on="1"/>
        <pt x="523" y="650" on="0"/>
        <pt x="513" y="666" on="0"/>
        <pt x="513" y="675" on="1"/>
        <pt x="513" y="689" on="0"/>
        <pt x="536" y="717" on="1"/>
        <pt x="560" y="744" on="0"/>
        <pt x="560" y="758" on="1"/>
        <pt x="560" y="791" on="0"/>
        <pt x="523" y="787" on="1"/>
        <pt x="506" y="786" on="0"/>
        <pt x="494" y="764" on="1"/>
        <pt x="489" y="755" on="0"/>
        <pt x="481" y="755" on="1"/>
        <pt x="471" y="755" on="0"/>
        <pt x="471" y="769" on="1"/>
        <pt x="471" y="786" on="0"/>
        <pt x="500" y="813" on="0"/>
        <pt x="517" y="816" on="1"/>
        <pt x="527" y="820" on="0"/>
        <pt x="537" y="820" on="1"/>
        <pt x="561" y="820" on="0"/>
        <pt x="596" y="791" on="0"/>
        <pt x="596" y="765" on="1"/>
        <pt x="596" y="744" on="0"/>
        <pt x="563" y="712" on="1"/>
        <pt x="531" y="681" on="0"/>
        <pt x="531" y="672" on="1"/>
        <pt x="531" y="668" on="0"/>
        <pt x="538" y="658" on="0"/>
      </contour>
      <contour>
        <pt x="485" y="651" on="1"/>
        <pt x="455" y="651" on="1"/>
        <pt x="351" y="739" on="1"/>
        <pt x="248" y="651" on="1"/>
        <pt x="218" y="651" on="1"/>
        <pt x="325" y="794" on="1"/>
        <pt x="378" y="794" on="1"/>
      </contour>
    </TTGlyph>
    <TTGlyph name="Acircumflexsmall" xMin="13" yMin="0" xMax="441" yMax="577">
      <contour>
        <pt x="441" y="0" on="1"/>
        <pt x="263" y="0" on="1"/>
        <pt x="263" y="18" on="1"/>
        <pt x="309" y="18" on="1"/>
        <pt x="271" y="131" on="1"/>
        <pt x="131" y="131" on="1"/>
        <pt x="110" y="79" on="1"/>
        <pt x="99" y="52" on="0"/>
        <pt x="99" y="36" on="1"/>
        <pt x="99" y="27" on="0"/>
        <pt x="102" y="23" on="1"/>
        <pt x="107" y="18" on="0"/>
        <pt x="139" y="18" on="1"/>
        <pt x="139" y="0" on="1"/>
        <pt x="13" y="0" on="1"/>
        <pt x="13" y="18" on="1"/>
        <pt x="43" y="16" on="0"/>
        <pt x="55" y="24" on="1"/>
        <pt x="69" y="35" on="0"/>
        <pt x="87" y="79" on="1"/>
        <pt x="212" y="408" on="1"/>
        <pt x="262" y="408" on="1"/>
        <pt x="397" y="18" on="1"/>
        <pt x="441" y="18" on="1"/>
      </contour>
      <contour>
        <pt x="262" y="153" on="1"/>
        <pt x="204" y="322" on="1"/>
        <pt x="140" y="153" on="1"/>
      </contour>
      <contour>
        <pt x="335" y="464" on="1"/>
        <pt x="309" y="464" on="1"/>
        <pt x="229" y="532" on="1"/>
        <pt x="149" y="464" on="1"/>
        <pt x="123" y="464" on="1"/>
        <pt x="208" y="577" on="1"/>
        <pt x="250" y="577" on="1"/>
      </contour>
    </TTGlyph>
    <TTGlyph name="Acircumflextilde" xMin="27" yMin="0" xMax="634" yMax="913">
      <contour>
        <pt x="634" y="0" on="1"/>
        <pt x="407" y="0" on="1"/>
        <pt x="407" y="27" on="1"/>
        <pt x="477" y="27" on="1"/>
        <pt x="417" y="199" on="1"/>
        <pt x="206" y="199" on="1"/>
        <pt x="173" y="121" on="1"/>
        <pt x="157" y="80" on="0"/>
        <pt x="157" y="55" on="1"/>
        <pt x="157" y="43" on="0"/>
        <pt x="163" y="35" on="1"/>
        <pt x="168" y="27" on="0"/>
        <pt x="218" y="27" on="1"/>
        <pt x="218" y="0" on="1"/>
        <pt x="27" y="0" on="1"/>
        <pt x="27" y="27" on="1"/>
        <pt x="73" y="26" on="0"/>
        <pt x="90" y="37" on="1"/>
        <pt x="114" y="52" on="0"/>
        <pt x="138" y="121" on="1"/>
        <pt x="328" y="619" on="1"/>
        <pt x="363" y="619" on="1"/>
        <pt x="570" y="27" on="1"/>
        <pt x="634" y="27" on="1"/>
      </contour>
      <contour>
        <pt x="405" y="233" on="1"/>
        <pt x="318" y="489" on="1"/>
        <pt x="219" y="233" on="1"/>
      </contour>
      <contour>
        <pt x="484" y="648" on="1"/>
        <pt x="454" y="648" on="1"/>
        <pt x="350" y="737" on="1"/>
        <pt x="248" y="648" on="1"/>
        <pt x="217" y="648" on="1"/>
        <pt x="324" y="792" on="1"/>
        <pt x="377" y="792" on="1"/>
      </contour>
      <contour>
        <pt x="493" y="913" on="1"/>
        <pt x="489" y="822" on="0"/>
        <pt x="412" y="822" on="1"/>
        <pt x="385" y="822" on="0"/>
        <pt x="336" y="839" on="1"/>
        <pt x="286" y="857" on="0"/>
        <pt x="263" y="857" on="1"/>
        <pt x="248" y="857" on="0"/>
        <pt x="220" y="836" on="0"/>
        <pt x="218" y="821" on="1"/>
        <pt x="202" y="821" on="1"/>
        <pt x="207" y="905" on="0"/>
        <pt x="281" y="905" on="1"/>
        <pt x="306" y="905" on="0"/>
        <pt x="359" y="890" on="1"/>
        <pt x="411" y="875" on="0"/>
        <pt x="436" y="875" on="1"/>
        <pt x="469" y="875" on="0"/>
        <pt x="479" y="913" on="1"/>
      </contour>
    </TTGlyph>
    <TTGlyph name="Acute" xMin="44" yMin="576" xMax="212" yMax="708">
      <contour>
        <pt x="212" y="694" on="1"/>
        <pt x="133" y="635" on="1"/>
        <pt x="59" y="577" on="1"/>
        <pt x="52" y="576" on="1"/>
        <pt x="44" y="584" on="1"/>
        <pt x="44" y="590" on="1"/>
        <pt x="98" y="654" on="1"/>
        <pt x="98" y="654" on="0"/>
        <pt x="134" y="698" on="1"/>
        <pt x="203" y="708" on="1"/>
        <pt x="207" y="705" on="1"/>
      </contour>
    </TTGlyph>
    <TTGlyph name="Acutesmall" xMin="66" yMin="429" xMax="255" yMax="574">
      <contour>
        <pt x="255" y="543" on="1"/>
        <pt x="255" y="526" on="0"/>
        <pt x="221" y="505" on="1"/>
        <pt x="100" y="429" on="1"/>
        <pt x="66" y="429" on="1"/>
        <pt x="184" y="546" on="1"/>
        <pt x="212" y="574" on="0"/>
        <pt x="227" y="574" on="1"/>
        <pt x="255" y="574" on="0"/>
      </contour>
    </TTGlyph>
    <TTGlyph name="Adieresis" xMin="27" yMin="0" xMax="634" yMax="733">
      <contour>
        <pt x="634" y="0" on="1"/>
        <pt x="407" y="0" on="1"/>
        <pt x="407" y="27" on="1"/>
        <pt x="477" y="27" on="1"/>
        <pt x="417" y="199" on="1"/>
        <pt x="206" y="199" on="1"/>
        <pt x="173" y="121" on="1"/>
        <pt x="157" y="80" on="0"/>
        <pt x="157" y="55" on="1"/>
        <pt x="157" y="43" on="0"/>
        <pt x="163" y="35" on="1"/>
        <pt x="168" y="27" on="0"/>
        <pt x="218" y="27" on="1"/>
        <pt x="218" y="0" on="1"/>
        <pt x="27" y="0" on="1"/>
        <pt x="27" y="27" on="1"/>
        <pt x="73" y="26" on="0"/>
        <pt x="90" y="37" on="1"/>
        <pt x="114" y="52" on="0"/>
        <pt x="138" y="121" on="1"/>
        <pt x="328" y="619" on="1"/>
        <pt x="363" y="619" on="1"/>
        <pt x="570" y="27" on="1"/>
        <pt x="634" y="27" on="1"/>
      </contour>
      <contour>
        <pt x="405" y="233" on="1"/>
        <pt x="318" y="489" on="1"/>
        <pt x="219" y="233" on="1"/>
      </contour>
      <contour>
        <pt x="474" y="690" on="1"/>
        <pt x="474" y="647" on="0"/>
        <pt x="431" y="647" on="1"/>
        <pt x="389" y="647" on="0"/>
        <pt x="389" y="690" on="1"/>
        <pt x="389" y="733" on="0"/>
        <pt x="431" y="733" on="1"/>
        <pt x="474" y="733" on="0"/>
      </contour>
      <contour>
        <pt x="304" y="690" on="1"/>
        <pt x="304" y="647" on="0"/>
        <pt x="261" y="647" on="1"/>
        <pt x="218" y="647" on="0"/>
        <pt x="218" y="690" on="1"/>
        <pt x="218" y="733" on="0"/>
        <pt x="261" y="733" on="1"/>
        <pt x="304" y="733" on="0"/>
      </contour>
    </TTGlyph>
    <TTGlyph name="Adieresissmall" xMin="13" yMin="0" xMax="441" yMax="550">
      <contour>
        <pt x="441" y="0" on="1"/>
        <pt x="263" y="0" on="1"/>
        <pt x="263" y="18" on="1"/>
        <pt x="309" y="18" on="1"/>
        <pt x="271" y="131" on="1"/>
        <pt x="131" y="131" on="1"/>
        <pt x="110" y="79" on="1"/>
        <pt x="105" y="65" on="0"/>
        <pt x="99" y="44" on="0"/>
        <pt x="99" y="36" on="1"/>
        <pt x="99" y="32" on="0"/>
        <pt x="98" y="26" on="0"/>
        <pt x="104" y="21" on="0"/>
        <pt x="122" y="18" on="0"/>
        <pt x="139" y="18" on="1"/>
        <pt x="139" y="0" on="1"/>
        <pt x="13" y="0" on="1"/>
        <pt x="13" y="18" on="1"/>
        <pt x="17" y="18" on="0"/>
        <pt x="24" y="17" on="0"/>
        <pt x="27" y="17" on="1"/>
        <pt x="39" y="17" on="0"/>
        <pt x="56" y="24" on="0"/>
        <pt x="68" y="38" on="0"/>
        <pt x="80" y="61" on="0"/>
        <pt x="87" y="79" on="1"/>
        <pt x="212" y="408" on="1"/>
        <pt x="262" y="408" on="1"/>
        <pt x="397" y="18" on="1"/>
        <pt x="441" y="18" on="1"/>
      </contour>
      <contour>
        <pt x="262" y="153" on="1"/>
        <pt x="204" y="322" on="1"/>
        <pt x="140" y="153" on="1"/>
      </contour>
      <contour>
        <pt x="359" y="507" on="1"/>
        <pt x="359" y="465" on="0"/>
        <pt x="316" y="465" on="1"/>
        <pt x="274" y="465" on="0"/>
        <pt x="274" y="507" on="1"/>
        <pt x="274" y="550" on="0"/>
        <pt x="316" y="550" on="1"/>
        <pt x="359" y="550" on="0"/>
      </contour>
      <contour>
        <pt x="189" y="507" on="1"/>
        <pt x="189" y="465" on="0"/>
        <pt x="147" y="465" on="1"/>
        <pt x="104" y="465" on="0"/>
        <pt x="104" y="507" on="1"/>
        <pt x="104" y="550" on="0"/>
        <pt x="147" y="550" on="1"/>
        <pt x="189" y="550" on="0"/>
      </contour>
    </TTGlyph>
    <TTGlyph name="Adotbelow" xMin="27" yMin="-205" xMax="634" yMax="619">
      <contour>
        <pt x="634" y="0" on="1"/>
        <pt x="407" y="0" on="1"/>
        <pt x="407" y="27" on="1"/>
        <pt x="477" y="27" on="1"/>
        <pt x="417" y="199" on="1"/>
        <pt x="206" y="199" on="1"/>
        <pt x="173" y="121" on="1"/>
        <pt x="157" y="80" on="0"/>
        <pt x="157" y="55" on="1"/>
        <pt x="157" y="43" on="0"/>
        <pt x="163" y="35" on="1"/>
        <pt x="168" y="27" on="0"/>
        <pt x="218" y="27" on="1"/>
        <pt x="218" y="0" on="1"/>
        <pt x="27" y="0" on="1"/>
        <pt x="27" y="27" on="1"/>
        <pt x="73" y="26" on="0"/>
        <pt x="90" y="37" on="1"/>
        <pt x="114" y="52" on="0"/>
        <pt x="138" y="121" on="1"/>
        <pt x="328" y="619" on="1"/>
        <pt x="363" y="619" on="1"/>
        <pt x="570" y="27" on="1"/>
        <pt x="634" y="27" on="1"/>
      </contour>
      <contour>
        <pt x="405" y="233" on="1"/>
        <pt x="318" y="489" on="1"/>
        <pt x="219" y="233" on="1"/>
      </contour>
      <contour>
        <pt x="353" y="-158" on="1"/>
        <pt x="353" y="-178" on="0"/>
        <pt x="325" y="-205" on="0"/>
        <pt x="306" y="-205" on="1"/>
        <pt x="287" y="-205" on="0"/>
        <pt x="259" y="-178" on="0"/>
        <pt x="259" y="-158" on="1"/>
        <pt x="259" y="-139" on="0"/>
        <pt x="287" y="-112" on="0"/>
        <pt x="306" y="-112" on="1"/>
        <pt x="326" y="-112" on="0"/>
        <pt x="353" y="-139" on="0"/>
      </contour>
    </TTGlyph>
    <TTGlyph name="Agrave" xMin="27" yMin="0" xMax="634" yMax="794">
      <contour>
        <pt x="634" y="0" on="1"/>
        <pt x="407" y="0" on="1"/>
        <pt x="407" y="27" on="1"/>
        <pt x="477" y="27" on="1"/>
        <pt x="417" y="199" on="1"/>
        <pt x="206" y="199" on="1"/>
        <pt x="173" y="121" on="1"/>
        <pt x="157" y="80" on="0"/>
        <pt x="157" y="55" on="1"/>
        <pt x="157" y="43" on="0"/>
        <pt x="163" y="35" on="1"/>
        <pt x="168" y="27" on="0"/>
        <pt x="218" y="27" on="1"/>
        <pt x="218" y="0" on="1"/>
        <pt x="27" y="0" on="1"/>
        <pt x="27" y="27" on="1"/>
        <pt x="73" y="26" on="0"/>
        <pt x="90" y="37" on="1"/>
        <pt x="114" y="52" on="0"/>
        <pt x="138" y="121" on="1"/>
        <pt x="328" y="619" on="1"/>
        <pt x="363" y="619" on="1"/>
        <pt x="570" y="27" on="1"/>
        <pt x="634" y="27" on="1"/>
      </contour>
      <contour>
        <pt x="405" y="233" on="1"/>
        <pt x="318" y="489" on="1"/>
        <pt x="219" y="233" on="1"/>
      </contour>
      <contour>
        <pt x="359" y="649" on="1"/>
        <pt x="325" y="649" on="1"/>
        <pt x="203" y="725" on="1"/>
        <pt x="169" y="746" on="0"/>
        <pt x="169" y="765" on="1"/>
        <pt x="169" y="794" on="0"/>
        <pt x="197" y="794" on="1"/>
        <pt x="215" y="794" on="0"/>
        <pt x="242" y="766" on="1"/>
      </contour>
    </TTGlyph>
    <TTGlyph name="Agravesmall" xMin="13" yMin="0" xMax="441" yMax="568">
      <contour>
        <pt x="441" y="0" on="1"/>
        <pt x="263" y="0" on="1"/>
        <pt x="263" y="18" on="1"/>
        <pt x="309" y="18" on="1"/>
        <pt x="271" y="131" on="1"/>
        <pt x="131" y="131" on="1"/>
        <pt x="110" y="79" on="1"/>
        <pt x="99" y="52" on="0"/>
        <pt x="99" y="36" on="1"/>
        <pt x="99" y="27" on="0"/>
        <pt x="102" y="23" on="1"/>
        <pt x="107" y="18" on="0"/>
        <pt x="139" y="18" on="1"/>
        <pt x="139" y="0" on="1"/>
        <pt x="13" y="0" on="1"/>
        <pt x="13" y="18" on="1"/>
        <pt x="43" y="16" on="0"/>
        <pt x="55" y="24" on="1"/>
        <pt x="69" y="35" on="0"/>
        <pt x="87" y="79" on="1"/>
        <pt x="212" y="408" on="1"/>
        <pt x="262" y="408" on="1"/>
        <pt x="397" y="18" on="1"/>
        <pt x="441" y="18" on="1"/>
      </contour>
      <contour>
        <pt x="262" y="153" on="1"/>
        <pt x="204" y="322" on="1"/>
        <pt x="140" y="153" on="1"/>
      </contour>
      <contour>
        <pt x="247" y="451" on="1"/>
        <pt x="213" y="451" on="1"/>
        <pt x="92" y="512" on="1"/>
        <pt x="57" y="528" on="0"/>
        <pt x="57" y="544" on="1"/>
        <pt x="57" y="568" on="0"/>
        <pt x="85" y="568" on="1"/>
        <pt x="101" y="568" on="0"/>
        <pt x="129" y="545" on="1"/>
      </contour>
    </TTGlyph>
    <TTGlyph name="Ahookabove" xMin="27" yMin="0" xMax="634" yMax="815">
      <contour>
        <pt x="634" y="0" on="1"/>
        <pt x="407" y="0" on="1"/>
        <pt x="407" y="27" on="1"/>
        <pt x="477" y="27" on="1"/>
        <pt x="417" y="199" on="1"/>
        <pt x="206" y="199" on="1"/>
        <pt x="173" y="121" on="1"/>
        <pt x="157" y="80" on="0"/>
        <pt x="157" y="55" on="1"/>
        <pt x="157" y="43" on="0"/>
        <pt x="163" y="35" on="1"/>
        <pt x="168" y="27" on="0"/>
        <pt x="218" y="27" on="1"/>
        <pt x="218" y="0" on="1"/>
        <pt x="27" y="0" on="1"/>
        <pt x="27" y="27" on="1"/>
        <pt x="73" y="26" on="0"/>
        <pt x="90" y="37" on="1"/>
        <pt x="114" y="52" on="0"/>
        <pt x="138" y="121" on="1"/>
        <pt x="328" y="619" on="1"/>
        <pt x="363" y="619" on="1"/>
        <pt x="570" y="27" on="1"/>
        <pt x="634" y="27" on="1"/>
      </contour>
      <contour>
        <pt x="405" y="233" on="1"/>
        <pt x="318" y="489" on="1"/>
        <pt x="219" y="233" on="1"/>
      </contour>
      <contour>
        <pt x="354" y="649" on="1"/>
        <pt x="353" y="646" on="0"/>
        <pt x="348" y="646" on="1"/>
        <pt x="340" y="646" on="0"/>
        <pt x="330" y="661" on="0"/>
        <pt x="330" y="670" on="1"/>
        <pt x="330" y="684" on="0"/>
        <pt x="353" y="712" on="1"/>
        <pt x="377" y="739" on="0"/>
        <pt x="377" y="753" on="1"/>
        <pt x="377" y="787" on="0"/>
        <pt x="340" y="783" on="1"/>
        <pt x="323" y="781" on="0"/>
        <pt x="311" y="759" on="1"/>
        <pt x="306" y="751" on="0"/>
        <pt x="298" y="751" on="1"/>
        <pt x="288" y="751" on="0"/>
        <pt x="288" y="765" on="1"/>
        <pt x="288" y="781" on="0"/>
        <pt x="318" y="808" on="0"/>
        <pt x="334" y="812" on="1"/>
        <pt x="344" y="815" on="0"/>
        <pt x="354" y="815" on="1"/>
        <pt x="378" y="815" on="0"/>
        <pt x="413" y="787" on="0"/>
        <pt x="413" y="760" on="1"/>
        <pt x="413" y="739" on="0"/>
        <pt x="381" y="708" on="1"/>
        <pt x="348" y="676" on="0"/>
        <pt x="348" y="668" on="1"/>
        <pt x="348" y="663" on="0"/>
        <pt x="355" y="654" on="0"/>
      </contour>
    </TTGlyph>
    <TTGlyph name="Alpha" xMin="27" yMin="0" xMax="634" yMax="619">
      <contour>
        <pt x="634" y="0" on="1"/>
        <pt x="407" y="0" on="1"/>
        <pt x="407" y="27" on="1"/>
        <pt x="477" y="27" on="1"/>
        <pt x="417" y="199" on="1"/>
        <pt x="206" y="199" on="1"/>
        <pt x="199" y="182" on="0"/>
        <pt x="184" y="148" on="0"/>
        <pt x="177" y="130" on="1"/>
        <pt x="157" y="78" on="0"/>
        <pt x="157" y="55" on="1"/>
        <pt x="157" y="33" on="0"/>
        <pt x="178" y="28" on="1"/>
        <pt x="180" y="27" on="0"/>
        <pt x="218" y="27" on="1"/>
        <pt x="218" y="0" on="1"/>
        <pt x="27" y="0" on="1"/>
        <pt x="27" y="27" on="1"/>
        <pt x="36" y="27" on="1"/>
        <pt x="84" y="26" on="0"/>
        <pt x="106" y="51" on="1"/>
        <pt x="112" y="58" on="0"/>
        <pt x="129" y="93" on="0"/>
        <pt x="138" y="121" on="1"/>
        <pt x="328" y="619" on="1"/>
        <pt x="363" y="619" on="1"/>
        <pt x="570" y="27" on="1"/>
        <pt x="634" y="27" on="1"/>
      </contour>
      <contour>
        <pt x="405" y="233" on="1"/>
        <pt x="318" y="489" on="1"/>
        <pt x="219" y="233" on="1"/>
      </contour>
    </TTGlyph>
    <TTGlyph name="Alphatonos" xMin="33" yMin="0" xMax="640" yMax="628">
      <contour>
        <pt x="185" y="598" on="1"/>
        <pt x="185" y="579" on="0"/>
        <pt x="173" y="569" on="1"/>
        <pt x="58" y="450" on="1"/>
        <pt x="38" y="453" on="1"/>
        <pt x="123" y="612" on="1"/>
        <pt x="132" y="628" on="0"/>
        <pt x="156" y="628" on="1"/>
        <pt x="185" y="628" on="0"/>
      </contour>
      <contour>
        <pt x="640" y="0" on="1"/>
        <pt x="413" y="0" on="1"/>
        <pt x="413" y="27" on="1"/>
        <pt x="483" y="27" on="1"/>
        <pt x="423" y="199" on="1"/>
        <pt x="213" y="199" on="1"/>
        <pt x="206" y="182" on="0"/>
        <pt x="190" y="148" on="0"/>
        <pt x="183" y="130" on="1"/>
        <pt x="164" y="80" on="0"/>
        <pt x="164" y="55" on="1"/>
        <pt x="164" y="33" on="0"/>
        <pt x="184" y="28" on="1"/>
        <pt x="186" y="27" on="0"/>
        <pt x="223" y="27" on="1"/>
        <pt x="223" y="0" on="1"/>
        <pt x="33" y="0" on="1"/>
        <pt x="33" y="27" on="1"/>
        <pt x="42" y="27" on="1"/>
        <pt x="90" y="26" on="0"/>
        <pt x="112" y="51" on="1"/>
        <pt x="123" y="65" on="0"/>
        <pt x="144" y="121" on="1"/>
        <pt x="334" y="619" on="1"/>
        <pt x="369" y="619" on="1"/>
        <pt x="576" y="27" on="1"/>
        <pt x="640" y="27" on="1"/>
      </contour>
      <contour>
        <pt x="411" y="233" on="1"/>
        <pt x="324" y="489" on="1"/>
        <pt x="225" y="233" on="1"/>
      </contour>
    </TTGlyph>
    <TTGlyph name="Amacron" xMin="27" yMin="0" xMax="634" yMax="695">
      <contour>
        <pt x="634" y="0" on="1"/>
        <pt x="407" y="0" on="1"/>
        <pt x="407" y="27" on="1"/>
        <pt x="477" y="27" on="1"/>
        <pt x="417" y="199" on="1"/>
        <pt x="206" y="199" on="1"/>
        <pt x="173" y="121" on="1"/>
        <pt x="157" y="80" on="0"/>
        <pt x="157" y="55" on="1"/>
        <pt x="157" y="43" on="0"/>
        <pt x="163" y="35" on="1"/>
        <pt x="168" y="27" on="0"/>
        <pt x="218" y="27" on="1"/>
        <pt x="218" y="0" on="1"/>
        <pt x="27" y="0" on="1"/>
        <pt x="27" y="27" on="1"/>
        <pt x="73" y="26" on="0"/>
        <pt x="90" y="37" on="1"/>
        <pt x="114" y="52" on="0"/>
        <pt x="138" y="121" on="1"/>
        <pt x="328" y="619" on="1"/>
        <pt x="363" y="619" on="1"/>
        <pt x="570" y="27" on="1"/>
        <pt x="634" y="27" on="1"/>
      </contour>
      <contour>
        <pt x="405" y="233" on="1"/>
        <pt x="318" y="489" on="1"/>
        <pt x="219" y="233" on="1"/>
      </contour>
      <contour>
        <pt x="478" y="651" on="1"/>
        <pt x="201" y="651" on="1"/>
        <pt x="201" y="695" on="1"/>
        <pt x="478" y="695" on="1"/>
      </contour>
    </TTGlyph>
    <TTGlyph name="Aogonek" xMin="27" yMin="-173" xMax="634" yMax="619">
      <contour>
        <pt x="611" y="-116" on="1"/>
        <pt x="592" y="-138" on="0"/>
        <pt x="560" y="-155" on="1"/>
        <pt x="524" y="-173" on="0"/>
        <pt x="493" y="-173" on="1"/>
        <pt x="478" y="-173" on="0"/>
        <pt x="453" y="-161" on="0"/>
        <pt x="437" y="-142" on="0"/>
        <pt x="428" y="-118" on="0"/>
        <pt x="428" y="-106" on="1"/>
        <pt x="428" y="-53" on="0"/>
        <pt x="498" y="0" on="1"/>
        <pt x="407" y="0" on="1"/>
        <pt x="407" y="27" on="1"/>
        <pt x="477" y="27" on="1"/>
        <pt x="417" y="199" on="1"/>
        <pt x="206" y="199" on="1"/>
        <pt x="173" y="121" on="1"/>
        <pt x="157" y="80" on="0"/>
        <pt x="157" y="55" on="1"/>
        <pt x="157" y="43" on="0"/>
        <pt x="163" y="35" on="1"/>
        <pt x="168" y="27" on="0"/>
        <pt x="218" y="27" on="1"/>
        <pt x="218" y="0" on="1"/>
        <pt x="27" y="0" on="1"/>
        <pt x="27" y="27" on="1"/>
        <pt x="73" y="26" on="0"/>
        <pt x="90" y="37" on="1"/>
        <pt x="114" y="52" on="0"/>
        <pt x="138" y="121" on="1"/>
        <pt x="328" y="619" on="1"/>
        <pt x="363" y="619" on="1"/>
        <pt x="570" y="27" on="1"/>
        <pt x="634" y="27" on="1"/>
        <pt x="634" y="0" on="1"/>
        <pt x="530" y="0" on="1"/>
        <pt x="483" y="-55" on="0"/>
        <pt x="483" y="-93" on="1"/>
        <pt x="483" y="-126" on="0"/>
        <pt x="521" y="-126" on="1"/>
        <pt x="552" y="-126" on="0"/>
        <pt x="598" y="-98" on="1"/>
        <pt x="612" y="-116" on="0"/>
      </contour>
      <contour>
        <pt x="405" y="233" on="1"/>
        <pt x="318" y="489" on="1"/>
        <pt x="219" y="233" on="1"/>
      </contour>
    </TTGlyph>
    <TTGlyph name="Aring" xMin="27" yMin="0" xMax="634" yMax="800">
      <contour>
        <pt x="428" y="715" on="1"/>
        <pt x="428" y="697" on="0"/>
        <pt x="414" y="667" on="0"/>
        <pt x="390" y="643" on="0"/>
        <pt x="360" y="629" on="0"/>
        <pt x="342" y="629" on="1"/>
        <pt x="325" y="629" on="0"/>
        <pt x="294" y="643" on="0"/>
        <pt x="270" y="667" on="0"/>
        <pt x="256" y="697" on="0"/>
        <pt x="256" y="715" on="1"/>
        <pt x="256" y="732" on="0"/>
        <pt x="269" y="763" on="0"/>
        <pt x="293" y="787" on="0"/>
        <pt x="324" y="800" on="0"/>
        <pt x="342" y="800" on="1"/>
        <pt x="360" y="800" on="0"/>
        <pt x="390" y="787" on="0"/>
        <pt x="414" y="763" on="0"/>
        <pt x="428" y="732" on="0"/>
      </contour>
      <contour>
        <pt x="634" y="0" on="1"/>
        <pt x="407" y="0" on="1"/>
        <pt x="407" y="27" on="1"/>
        <pt x="477" y="27" on="1"/>
        <pt x="417" y="199" on="1"/>
        <pt x="206" y="199" on="1"/>
        <pt x="174" y="121" on="1"/>
        <pt x="157" y="79" on="0"/>
        <pt x="157" y="55" on="1"/>
        <pt x="157" y="43" on="0"/>
        <pt x="162" y="35" on="1"/>
        <pt x="167" y="27" on="0"/>
        <pt x="218" y="27" on="1"/>
        <pt x="218" y="0" on="1"/>
        <pt x="27" y="0" on="1"/>
        <pt x="27" y="27" on="1"/>
        <pt x="73" y="26" on="0"/>
        <pt x="90" y="37" on="1"/>
        <pt x="113" y="52" on="0"/>
        <pt x="139" y="121" on="1"/>
        <pt x="328" y="619" on="1"/>
        <pt x="363" y="619" on="1"/>
        <pt x="569" y="27" on="1"/>
        <pt x="634" y="27" on="1"/>
      </contour>
      <contour>
        <pt x="394" y="715" on="1"/>
        <pt x="394" y="740" on="0"/>
        <pt x="367" y="770" on="0"/>
        <pt x="342" y="770" on="1"/>
        <pt x="318" y="770" on="0"/>
        <pt x="290" y="740" on="0"/>
        <pt x="290" y="715" on="1"/>
        <pt x="290" y="690" on="0"/>
        <pt x="318" y="661" on="0"/>
        <pt x="342" y="661" on="1"/>
        <pt x="367" y="661" on="0"/>
        <pt x="394" y="690" on="0"/>
      </contour>
      <contour>
        <pt x="405" y="233" on="1"/>
        <pt x="318" y="489" on="1"/>
        <pt x="219" y="233" on="1"/>
      </contour>
    </TTGlyph>
    <TTGlyph name="Aringacute" xMin="28" yMin="0" xMax="635" yMax="1002">
      <contour>
        <pt x="429" y="715" on="1"/>
        <pt x="429" y="697" on="0"/>
        <pt x="415" y="667" on="0"/>
        <pt x="391" y="643" on="0"/>
        <pt x="360" y="629" on="0"/>
        <pt x="343" y="629" on="1"/>
        <pt x="325" y="629" on="0"/>
        <pt x="295" y="643" on="0"/>
        <pt x="271" y="667" on="0"/>
        <pt x="257" y="697" on="0"/>
        <pt x="257" y="715" on="1"/>
        <pt x="257" y="732" on="0"/>
        <pt x="270" y="763" on="0"/>
        <pt x="294" y="787" on="0"/>
        <pt x="325" y="800" on="0"/>
        <pt x="343" y="800" on="1"/>
        <pt x="360" y="800" on="0"/>
        <pt x="391" y="787" on="0"/>
        <pt x="415" y="763" on="0"/>
        <pt x="429" y="732" on="0"/>
      </contour>
      <contour>
        <pt x="635" y="0" on="1"/>
        <pt x="408" y="0" on="1"/>
        <pt x="408" y="27" on="1"/>
        <pt x="478" y="27" on="1"/>
        <pt x="418" y="199" on="1"/>
        <pt x="206" y="199" on="1"/>
        <pt x="174" y="121" on="1"/>
        <pt x="157" y="81" on="0"/>
        <pt x="157" y="55" on="1"/>
        <pt x="157" y="43" on="0"/>
        <pt x="163" y="35" on="1"/>
        <pt x="168" y="27" on="0"/>
        <pt x="219" y="27" on="1"/>
        <pt x="219" y="0" on="1"/>
        <pt x="28" y="0" on="1"/>
        <pt x="28" y="27" on="1"/>
        <pt x="73" y="26" on="0"/>
        <pt x="91" y="37" on="1"/>
        <pt x="114" y="52" on="0"/>
        <pt x="140" y="121" on="1"/>
        <pt x="329" y="619" on="1"/>
        <pt x="364" y="619" on="1"/>
        <pt x="570" y="27" on="1"/>
        <pt x="635" y="27" on="1"/>
      </contour>
      <contour>
        <pt x="395" y="715" on="1"/>
        <pt x="395" y="740" on="0"/>
        <pt x="367" y="770" on="0"/>
        <pt x="343" y="770" on="1"/>
        <pt x="319" y="770" on="0"/>
        <pt x="290" y="740" on="0"/>
        <pt x="290" y="715" on="1"/>
        <pt x="290" y="690" on="0"/>
        <pt x="319" y="661" on="0"/>
        <pt x="343" y="661" on="1"/>
        <pt x="367" y="661" on="0"/>
        <pt x="395" y="690" on="0"/>
      </contour>
      <contour>
        <pt x="406" y="233" on="1"/>
        <pt x="318" y="489" on="1"/>
        <pt x="220" y="233" on="1"/>
      </contour>
      <contour>
        <pt x="479" y="970" on="1"/>
        <pt x="479" y="953" on="0"/>
        <pt x="469" y="941" on="1"/>
        <pt x="352" y="822" on="1"/>
        <pt x="334" y="826" on="1"/>
        <pt x="419" y="984" on="1"/>
        <pt x="429" y="1002" on="0"/>
        <pt x="451" y="1002" on="1"/>
        <pt x="479" y="1002" on="0"/>
      </contour>
    </TTGlyph>
    <TTGlyph name="Aringsmall" xMin="13" yMin="0" xMax="441" yMax="586">
      <contour>
        <pt x="441" y="0" on="1"/>
        <pt x="263" y="0" on="1"/>
        <pt x="263" y="18" on="1"/>
        <pt x="309" y="18" on="1"/>
        <pt x="271" y="131" on="1"/>
        <pt x="131" y="131" on="1"/>
        <pt x="110" y="79" on="1"/>
        <pt x="99" y="52" on="0"/>
        <pt x="99" y="36" on="1"/>
        <pt x="99" y="27" on="0"/>
        <pt x="102" y="23" on="1"/>
        <pt x="107" y="18" on="0"/>
        <pt x="139" y="18" on="1"/>
        <pt x="139" y="0" on="1"/>
        <pt x="13" y="0" on="1"/>
        <pt x="13" y="18" on="1"/>
        <pt x="43" y="16" on="0"/>
        <pt x="55" y="24" on="1"/>
        <pt x="69" y="35" on="0"/>
        <pt x="87" y="79" on="1"/>
        <pt x="212" y="408" on="1"/>
        <pt x="262" y="408" on="1"/>
        <pt x="397" y="18" on="1"/>
        <pt x="441" y="18" on="1"/>
      </contour>
      <contour>
        <pt x="262" y="153" on="1"/>
        <pt x="204" y="322" on="1"/>
        <pt x="140" y="153" on="1"/>
      </contour>
      <contour>
        <pt x="288" y="526" on="1"/>
        <pt x="288" y="501" on="0"/>
        <pt x="253" y="466" on="0"/>
        <pt x="228" y="466" on="1"/>
        <pt x="204" y="466" on="0"/>
        <pt x="168" y="501" on="0"/>
        <pt x="168" y="526" on="1"/>
        <pt x="168" y="550" on="0"/>
        <pt x="204" y="586" on="0"/>
        <pt x="228" y="586" on="1"/>
        <pt x="253" y="586" on="0"/>
        <pt x="288" y="551" on="0"/>
      </contour>
      <contour>
        <pt x="262" y="525" on="1"/>
        <pt x="262" y="560" on="0"/>
        <pt x="229" y="560" on="1"/>
        <pt x="196" y="560" on="0"/>
        <pt x="196" y="525" on="1"/>
        <pt x="196" y="490" on="0"/>
        <pt x="229" y="490" on="1"/>
        <pt x="262" y="490" on="0"/>
      </contour>
    </TTGlyph>
    <TTGlyph name="Asmall" xMin="22" yMin="0" xMax="442" yMax="400">
      <contour>
        <pt x="442" y="0" on="1"/>
        <pt x="267" y="0" on="1"/>
        <pt x="267" y="18" on="1"/>
        <pt x="311" y="18" on="1"/>
        <pt x="275" y="129" on="1"/>
        <pt x="137" y="129" on="1"/>
        <pt x="117" y="77" on="1"/>
        <pt x="106" y="52" on="0"/>
        <pt x="106" y="35" on="1"/>
        <pt x="106" y="26" on="0"/>
        <pt x="109" y="23" on="1"/>
        <pt x="114" y="18" on="0"/>
        <pt x="145" y="18" on="1"/>
        <pt x="145" y="0" on="1"/>
        <pt x="22" y="0" on="1"/>
        <pt x="22" y="18" on="1"/>
        <pt x="51" y="16" on="0"/>
        <pt x="63" y="23" on="1"/>
        <pt x="78" y="35" on="0"/>
        <pt x="94" y="77" on="1"/>
        <pt x="217" y="400" on="1"/>
        <pt x="266" y="400" on="1"/>
        <pt x="399" y="18" on="1"/>
        <pt x="442" y="18" on="1"/>
      </contour>
      <contour>
        <pt x="270" y="153" on="1"/>
        <pt x="213" y="322" on="1"/>
        <pt x="149" y="153" on="1"/>
      </contour>
    </TTGlyph>
    <TTGlyph name="Atilde" xMin="27" yMin="0" xMax="634" yMax="737">
      <contour>
        <pt x="634" y="0" on="1"/>
        <pt x="407" y="0" on="1"/>
        <pt x="407" y="27" on="1"/>
        <pt x="477" y="27" on="1"/>
        <pt x="417" y="199" on="1"/>
        <pt x="206" y="199" on="1"/>
        <pt x="173" y="121" on="1"/>
        <pt x="157" y="80" on="0"/>
        <pt x="157" y="55" on="1"/>
        <pt x="157" y="43" on="0"/>
        <pt x="163" y="35" on="1"/>
        <pt x="168" y="27" on="0"/>
        <pt x="218" y="27" on="1"/>
        <pt x="218" y="0" on="1"/>
        <pt x="27" y="0" on="1"/>
        <pt x="27" y="27" on="1"/>
        <pt x="73" y="26" on="0"/>
        <pt x="90" y="37" on="1"/>
        <pt x="114" y="52" on="0"/>
        <pt x="138" y="121" on="1"/>
        <pt x="328" y="619" on="1"/>
        <pt x="363" y="619" on="1"/>
        <pt x="570" y="27" on="1"/>
        <pt x="634" y="27" on="1"/>
      </contour>
      <contour>
        <pt x="405" y="233" on="1"/>
        <pt x="318" y="489" on="1"/>
        <pt x="219" y="233" on="1"/>
      </contour>
      <contour>
        <pt x="479" y="737" on="1"/>
        <pt x="479" y="703" on="0"/>
        <pt x="451" y="675" on="1"/>
        <pt x="424" y="647" on="0"/>
        <pt x="390" y="647" on="1"/>
        <pt x="368" y="647" on="0"/>
        <pt x="330" y="664" on="0"/>
        <pt x="311" y="673" on="1"/>
        <pt x="281" y="686" on="0"/>
        <pt x="269" y="686" on="1"/>
        <pt x="240" y="686" on="0"/>
        <pt x="225" y="647" on="1"/>
        <pt x="200" y="647" on="1"/>
        <pt x="214" y="731" on="0"/>
        <pt x="293" y="731" on="1"/>
        <pt x="311" y="731" on="0"/>
        <pt x="356" y="711" on="1"/>
        <pt x="395" y="692" on="0"/>
        <pt x="408" y="694" on="1"/>
        <pt x="427" y="695" on="0"/>
        <pt x="439" y="707" on="1"/>
        <pt x="446" y="715" on="0"/>
        <pt x="455" y="737" on="1"/>
      </contour>
    </TTGlyph>
    <TTGlyph name="Atildesmall" xMin="13" yMin="0" xMax="441" yMax="539">
      <contour>
        <pt x="441" y="0" on="1"/>
        <pt x="263" y="0" on="1"/>
        <pt x="263" y="18" on="1"/>
        <pt x="309" y="18" on="1"/>
        <pt x="271" y="131" on="1"/>
        <pt x="131" y="131" on="1"/>
        <pt x="110" y="79" on="1"/>
        <pt x="99" y="52" on="0"/>
        <pt x="99" y="36" on="1"/>
        <pt x="99" y="27" on="0"/>
        <pt x="102" y="23" on="1"/>
        <pt x="107" y="18" on="0"/>
        <pt x="139" y="18" on="1"/>
        <pt x="139" y="0" on="1"/>
        <pt x="13" y="0" on="1"/>
        <pt x="13" y="18" on="1"/>
        <pt x="43" y="16" on="0"/>
        <pt x="55" y="24" on="1"/>
        <pt x="69" y="35" on="0"/>
        <pt x="87" y="79" on="1"/>
        <pt x="212" y="408" on="1"/>
        <pt x="262" y="408" on="1"/>
        <pt x="397" y="18" on="1"/>
        <pt x="441" y="18" on="1"/>
      </contour>
      <contour>
        <pt x="262" y="153" on="1"/>
        <pt x="204" y="322" on="1"/>
        <pt x="140" y="153" on="1"/>
      </contour>
      <contour>
        <pt x="328" y="539" on="1"/>
        <pt x="328" y="513" on="0"/>
        <pt x="305" y="490" on="1"/>
        <pt x="283" y="468" on="0"/>
        <pt x="255" y="468" on="1"/>
        <pt x="238" y="468" on="0"/>
        <pt x="207" y="481" on="0"/>
        <pt x="192" y="488" on="1"/>
        <pt x="168" y="498" on="0"/>
        <pt x="158" y="498" on="1"/>
        <pt x="134" y="498" on="0"/>
        <pt x="122" y="468" on="1"/>
        <pt x="104" y="468" on="1"/>
        <pt x="115" y="535" on="0"/>
        <pt x="178" y="535" on="1"/>
        <pt x="192" y="535" on="0"/>
        <pt x="228" y="519" on="1"/>
        <pt x="262" y="504" on="0"/>
        <pt x="269" y="505" on="1"/>
        <pt x="295" y="507" on="0"/>
        <pt x="308" y="539" on="1"/>
      </contour>
    </TTGlyph>
    <TTGlyph name="B" xMin="45" yMin="0" xMax="559" yMax="603">
      <contour>
        <pt x="557" y="151" on="1"/>
        <pt x="556" y="0" on="0"/>
        <pt x="350" y="0" on="1"/>
        <pt x="45" y="0" on="1"/>
        <pt x="45" y="27" on="1"/>
        <pt x="128" y="27" on="1"/>
        <pt x="128" y="576" on="1"/>
        <pt x="45" y="576" on="1"/>
        <pt x="45" y="603" on="1"/>
        <pt x="352" y="603" on="1"/>
        <pt x="437" y="603" on="0"/>
        <pt x="530" y="521" on="0"/>
        <pt x="530" y="453" on="1"/>
        <pt x="530" y="424" on="0"/>
        <pt x="509" y="375" on="0"/>
        <pt x="472" y="339" on="0"/>
        <pt x="422" y="314" on="0"/>
        <pt x="393" y="309" on="1"/>
        <pt x="451" y="308" on="0"/>
        <pt x="499" y="273" on="1"/>
        <pt x="559" y="229" on="0"/>
      </contour>
      <contour>
        <pt x="444" y="454" on="1"/>
        <pt x="444" y="576" on="0"/>
        <pt x="336" y="576" on="1"/>
        <pt x="207" y="576" on="1"/>
        <pt x="207" y="319" on="1"/>
        <pt x="322" y="319" on="1"/>
        <pt x="364" y="319" on="0"/>
        <pt x="399" y="347" on="1"/>
        <pt x="444" y="384" on="0"/>
      </contour>
      <contour>
        <pt x="462" y="154" on="1"/>
        <pt x="460" y="229" on="0"/>
        <pt x="412" y="266" on="1"/>
        <pt x="376" y="293" on="0"/>
        <pt x="323" y="293" on="1"/>
        <pt x="207" y="293" on="1"/>
        <pt x="207" y="27" on="1"/>
        <pt x="330" y="27" on="1"/>
        <pt x="380" y="27" on="0"/>
        <pt x="415" y="50" on="1"/>
        <pt x="462" y="81" on="0"/>
      </contour>
    </TTGlyph>
    <TTGlyph name="Beta" xMin="45" yMin="0" xMax="557" yMax="603">
      <contour>
        <pt x="557" y="151" on="1"/>
        <pt x="557" y="0" on="0"/>
        <pt x="350" y="0" on="1"/>
        <pt x="45" y="0" on="1"/>
        <pt x="45" y="27" on="1"/>
        <pt x="128" y="27" on="1"/>
        <pt x="128" y="576" on="1"/>
        <pt x="45" y="576" on="1"/>
        <pt x="45" y="603" on="1"/>
        <pt x="352" y="603" on="1"/>
        <pt x="428" y="603" on="0"/>
        <pt x="477" y="567" on="1"/>
        <pt x="530" y="527" on="0"/>
        <pt x="530" y="453" on="1"/>
        <pt x="530" y="395" on="0"/>
        <pt x="490" y="355" on="1"/>
        <pt x="451" y="318" on="0"/>
        <pt x="393" y="309" on="1"/>
        <pt x="462" y="308" on="0"/>
        <pt x="510" y="263" on="1"/>
        <pt x="557" y="220" on="0"/>
      </contour>
      <contour>
        <pt x="444" y="454" on="1"/>
        <pt x="444" y="576" on="0"/>
        <pt x="336" y="576" on="1"/>
        <pt x="207" y="576" on="1"/>
        <pt x="207" y="319" on="1"/>
        <pt x="322" y="319" on="1"/>
        <pt x="376" y="319" on="0"/>
        <pt x="412" y="359" on="1"/>
        <pt x="444" y="398" on="0"/>
      </contour>
      <contour>
        <pt x="462" y="154" on="1"/>
        <pt x="462" y="218" on="0"/>
        <pt x="386" y="293" on="0"/>
        <pt x="323" y="293" on="1"/>
        <pt x="207" y="293" on="1"/>
        <pt x="207" y="27" on="1"/>
        <pt x="330" y="27" on="1"/>
        <pt x="462" y="27" on="0"/>
      </contour>
    </TTGlyph>
    <TTGlyph name="Breve" xMin="16" yMin="662" xMax="275" yMax="800">
      <contour>
        <pt x="275" y="797" on="1"/>
        <pt x="275" y="739" on="0"/>
        <pt x="240" y="701" on="1"/>
        <pt x="204" y="662" on="0"/>
        <pt x="148" y="662" on="1"/>
        <pt x="87" y="662" on="0"/>
        <pt x="16" y="737" on="0"/>
        <pt x="16" y="797" on="1"/>
        <pt x="18" y="800" on="1"/>
        <pt x="41" y="800" on="1"/>
        <pt x="58" y="718" on="0"/>
        <pt x="150" y="718" on="1"/>
        <pt x="234" y="718" on="0"/>
        <pt x="249" y="800" on="1"/>
        <pt x="272" y="800" on="1"/>
      </contour>
    </TTGlyph>
    <TTGlyph name="Brevesmall" xMin="26" yMin="463" xMax="264" yMax="594">
      <contour>
        <pt x="264" y="591" on="1"/>
        <pt x="264" y="536" on="0"/>
        <pt x="234" y="500" on="1"/>
        <pt x="202" y="463" on="0"/>
        <pt x="148" y="463" on="1"/>
        <pt x="90" y="463" on="0"/>
        <pt x="26" y="534" on="0"/>
        <pt x="26" y="591" on="1"/>
        <pt x="28" y="594" on="1"/>
        <pt x="49" y="594" on="1"/>
        <pt x="63" y="515" on="0"/>
        <pt x="149" y="515" on="1"/>
        <pt x="227" y="515" on="0"/>
        <pt x="241" y="594" on="1"/>
        <pt x="262" y="594" on="1"/>
      </contour>
    </TTGlyph>
    <TTGlyph name="Bsmall" xMin="31" yMin="0" xMax="399" yMax="400">
      <contour>
        <pt x="397" y="101" on="1"/>
        <pt x="397" y="0" on="0"/>
        <pt x="259" y="0" on="1"/>
        <pt x="31" y="0" on="1"/>
        <pt x="31" y="18" on="1"/>
        <pt x="85" y="18" on="1"/>
        <pt x="85" y="381" on="1"/>
        <pt x="31" y="381" on="1"/>
        <pt x="31" y="400" on="1"/>
        <pt x="260" y="400" on="1"/>
        <pt x="315" y="400" on="0"/>
        <pt x="379" y="346" on="0"/>
        <pt x="379" y="300" on="1"/>
        <pt x="379" y="261" on="0"/>
        <pt x="326" y="212" on="0"/>
        <pt x="287" y="206" on="1"/>
        <pt x="325" y="205" on="0"/>
        <pt x="358" y="181" on="1"/>
        <pt x="399" y="152" on="0"/>
      </contour>
      <contour>
        <pt x="295" y="301" on="1"/>
        <pt x="295" y="340" on="0"/>
        <pt x="251" y="381" on="0"/>
        <pt x="222" y="381" on="1"/>
        <pt x="164" y="381" on="1"/>
        <pt x="164" y="212" on="1"/>
        <pt x="214" y="212" on="1"/>
        <pt x="242" y="212" on="0"/>
        <pt x="265" y="230" on="1"/>
        <pt x="295" y="255" on="0"/>
      </contour>
      <contour>
        <pt x="306" y="101" on="1"/>
        <pt x="306" y="151" on="0"/>
        <pt x="273" y="177" on="1"/>
        <pt x="248" y="194" on="0"/>
        <pt x="215" y="194" on="1"/>
        <pt x="164" y="194" on="1"/>
        <pt x="164" y="18" on="1"/>
        <pt x="220" y="18" on="1"/>
        <pt x="245" y="18" on="0"/>
        <pt x="270" y="33" on="1"/>
        <pt x="306" y="56" on="0"/>
      </contour>
    </TTGlyph>
    <TTGlyph name="C" xMin="27" yMin="-14" xMax="524" yMax="616">
      <contour>
        <pt x="524" y="98" on="1"/>
        <pt x="478" y="33" on="0"/>
        <pt x="423" y="9" on="1"/>
        <pt x="373" y="-14" on="0"/>
        <pt x="297" y="-14" on="1"/>
        <pt x="185" y="-14" on="0"/>
        <pt x="106" y="78" on="1"/>
        <pt x="27" y="171" on="0"/>
        <pt x="28" y="301" on="1"/>
        <pt x="30" y="444" on="0"/>
        <pt x="108" y="531" on="1"/>
        <pt x="184" y="616" on="0"/>
        <pt x="297" y="616" on="1"/>
        <pt x="368" y="616" on="0"/>
        <pt x="415" y="606" on="1"/>
        <pt x="433" y="603" on="0"/>
        <pt x="479" y="585" on="1"/>
        <pt x="479" y="448" on="1"/>
        <pt x="452" y="448" on="1"/>
        <pt x="446" y="523" on="0"/>
        <pt x="378" y="594" on="0"/>
        <pt x="299" y="591" on="1"/>
        <pt x="129" y="583" on="0"/>
        <pt x="129" y="301" on="1"/>
        <pt x="129" y="177" on="0"/>
        <pt x="173" y="97" on="1"/>
        <pt x="219" y="18" on="0"/>
        <pt x="292" y="17" on="1"/>
        <pt x="366" y="16" on="0"/>
        <pt x="418" y="41" on="1"/>
        <pt x="460" y="60" on="0"/>
        <pt x="512" y="112" on="1"/>
      </contour>
    </TTGlyph>
    <TTGlyph name="Cacute" xMin="27" yMin="-14" xMax="524" yMax="829">
      <contour>
        <pt x="524" y="98" on="1"/>
        <pt x="478" y="33" on="0"/>
        <pt x="423" y="9" on="1"/>
        <pt x="373" y="-14" on="0"/>
        <pt x="297" y="-14" on="1"/>
        <pt x="185" y="-14" on="0"/>
        <pt x="106" y="78" on="1"/>
        <pt x="27" y="171" on="0"/>
        <pt x="28" y="301" on="1"/>
        <pt x="30" y="444" on="0"/>
        <pt x="108" y="531" on="1"/>
        <pt x="184" y="616" on="0"/>
        <pt x="297" y="616" on="1"/>
        <pt x="368" y="616" on="0"/>
        <pt x="415" y="606" on="1"/>
        <pt x="433" y="603" on="0"/>
        <pt x="479" y="585" on="1"/>
        <pt x="479" y="448" on="1"/>
        <pt x="452" y="448" on="1"/>
        <pt x="446" y="523" on="0"/>
        <pt x="378" y="594" on="0"/>
        <pt x="299" y="591" on="1"/>
        <pt x="129" y="583" on="0"/>
        <pt x="129" y="301" on="1"/>
        <pt x="129" y="177" on="0"/>
        <pt x="173" y="97" on="1"/>
        <pt x="219" y="18" on="0"/>
        <pt x="292" y="17" on="1"/>
        <pt x="366" y="16" on="0"/>
        <pt x="418" y="41" on="1"/>
        <pt x="460" y="60" on="0"/>
        <pt x="512" y="112" on="1"/>
      </contour>
      <contour>
        <pt x="423" y="797" on="1"/>
        <pt x="423" y="779" on="0"/>
        <pt x="411" y="767" on="1"/>
        <pt x="295" y="648" on="1"/>
        <pt x="276" y="653" on="1"/>
        <pt x="361" y="811" on="1"/>
        <pt x="371" y="829" on="0"/>
        <pt x="394" y="829" on="1"/>
        <pt x="423" y="829" on="0"/>
      </contour>
    </TTGlyph>
    <TTGlyph name="Caron" xMin="0" yMin="576" xMax="259" yMax="712">
      <contour>
        <pt x="259" y="708" on="1"/>
        <pt x="154" y="576" on="1"/>
        <pt x="107" y="576" on="1"/>
        <pt x="0" y="708" on="1"/>
        <pt x="3" y="712" on="1"/>
        <pt x="25" y="712" on="1"/>
        <pt x="129" y="618" on="1"/>
        <pt x="232" y="712" on="1"/>
        <pt x="256" y="712" on="1"/>
      </contour>
    </TTGlyph>
    <TTGlyph name="Caronsmall" xMin="5" yMin="460" xMax="285" yMax="598">
      <contour>
        <pt x="285" y="594" on="1"/>
        <pt x="174" y="460" on="1"/>
        <pt x="115" y="460" on="1"/>
        <pt x="5" y="594" on="1"/>
        <pt x="7" y="598" on="1"/>
        <pt x="35" y="598" on="1"/>
        <pt x="145" y="501" on="1"/>
        <pt x="255" y="598" on="1"/>
        <pt x="284" y="598" on="1"/>
      </contour>
    </TTGlyph>
    <TTGlyph name="Ccaron" xMin="27" yMin="-11" xMax="524" yMax="789">
      <contour>
        <pt x="524" y="101" on="1"/>
        <pt x="478" y="36" on="0"/>
        <pt x="423" y="11" on="1"/>
        <pt x="373" y="-11" on="0"/>
        <pt x="297" y="-11" on="1"/>
        <pt x="185" y="-11" on="0"/>
        <pt x="106" y="80" on="1"/>
        <pt x="27" y="174" on="0"/>
        <pt x="28" y="304" on="1"/>
        <pt x="30" y="446" on="0"/>
        <pt x="108" y="534" on="1"/>
        <pt x="184" y="619" on="0"/>
        <pt x="297" y="619" on="1"/>
        <pt x="368" y="619" on="0"/>
        <pt x="415" y="609" on="1"/>
        <pt x="433" y="605" on="0"/>
        <pt x="479" y="588" on="1"/>
        <pt x="479" y="451" on="1"/>
        <pt x="452" y="451" on="1"/>
        <pt x="446" y="526" on="0"/>
        <pt x="378" y="597" on="0"/>
        <pt x="299" y="593" on="1"/>
        <pt x="129" y="585" on="0"/>
        <pt x="129" y="304" on="1"/>
        <pt x="129" y="179" on="0"/>
        <pt x="173" y="100" on="1"/>
        <pt x="219" y="21" on="0"/>
        <pt x="292" y="20" on="1"/>
        <pt x="366" y="18" on="0"/>
        <pt x="418" y="44" on="1"/>
        <pt x="460" y="63" on="0"/>
        <pt x="512" y="115" on="1"/>
      </contour>
      <contour>
        <pt x="328" y="647" on="1"/>
        <pt x="276" y="647" on="1"/>
        <pt x="169" y="789" on="1"/>
        <pt x="199" y="789" on="1"/>
        <pt x="301" y="702" on="1"/>
        <pt x="405" y="789" on="1"/>
        <pt x="435" y="789" on="1"/>
      </contour>
    </TTGlyph>
    <TTGlyph name="Ccedilla" xMin="52" yMin="-191" xMax="547" yMax="615">
      <contour>
        <pt x="406" y="-120" on="1"/>
        <pt x="406" y="-157" on="0"/>
        <pt x="371" y="-176" on="1"/>
        <pt x="343" y="-191" on="0"/>
        <pt x="304" y="-191" on="1"/>
        <pt x="275" y="-191" on="0"/>
        <pt x="229" y="-178" on="1"/>
        <pt x="241" y="-151" on="1"/>
        <pt x="270" y="-159" on="0"/>
        <pt x="293" y="-159" on="1"/>
        <pt x="342" y="-159" on="0"/>
        <pt x="342" y="-122" on="1"/>
        <pt x="342" y="-91" on="0"/>
        <pt x="308" y="-91" on="1"/>
        <pt x="293" y="-91" on="0"/>
        <pt x="275" y="-97" on="1"/>
        <pt x="269" y="-92" on="1"/>
        <pt x="302" y="-13" on="1"/>
        <pt x="196" y="-4" on="0"/>
        <pt x="124" y="86" on="1"/>
        <pt x="52" y="178" on="0"/>
        <pt x="52" y="301" on="1"/>
        <pt x="53" y="442" on="0"/>
        <pt x="133" y="530" on="1"/>
        <pt x="207" y="615" on="0"/>
        <pt x="321" y="615" on="1"/>
        <pt x="395" y="615" on="0"/>
        <pt x="447" y="604" on="1"/>
        <pt x="458" y="600" on="0"/>
        <pt x="493" y="589" on="0"/>
        <pt x="519" y="579" on="1"/>
        <pt x="503" y="507" on="0"/>
        <pt x="503" y="451" on="1"/>
        <pt x="477" y="451" on="1"/>
        <pt x="477" y="512" on="1"/>
        <pt x="477" y="528" on="0"/>
        <pt x="457" y="548" on="1"/>
        <pt x="436" y="569" on="0"/>
        <pt x="416" y="575" on="1"/>
        <pt x="364" y="592" on="0"/>
        <pt x="325" y="591" on="1"/>
        <pt x="155" y="578" on="0"/>
        <pt x="155" y="301" on="1"/>
        <pt x="155" y="177" on="0"/>
        <pt x="199" y="97" on="1"/>
        <pt x="241" y="20" on="0"/>
        <pt x="318" y="18" on="1"/>
        <pt x="389" y="16" on="0"/>
        <pt x="443" y="41" on="1"/>
        <pt x="485" y="60" on="0"/>
        <pt x="536" y="112" on="1"/>
        <pt x="547" y="100" on="1"/>
        <pt x="522" y="59" on="1"/>
        <pt x="513" y="52" on="0"/>
        <pt x="493" y="37" on="0"/>
        <pt x="483" y="30" on="1"/>
        <pt x="456" y="11" on="0"/>
        <pt x="423" y="1" on="1"/>
        <pt x="403" y="-6" on="0"/>
        <pt x="357" y="-13" on="0"/>
        <pt x="330" y="-14" on="1"/>
        <pt x="311" y="-64" on="1"/>
        <pt x="322" y="-60" on="0"/>
        <pt x="335" y="-60" on="1"/>
        <pt x="365" y="-60" on="0"/>
        <pt x="406" y="-91" on="0"/>
      </contour>
    </TTGlyph>
    <TTGlyph name="Ccedillasmall" xMin="35" yMin="-191" xMax="379" yMax="407">
      <contour>
        <pt x="223" y="-64" on="1"/>
        <pt x="231" y="-60" on="0"/>
        <pt x="247" y="-60" on="1"/>
        <pt x="277" y="-60" on="0"/>
        <pt x="318" y="-91" on="0"/>
        <pt x="318" y="-120" on="1"/>
        <pt x="318" y="-157" on="0"/>
        <pt x="283" y="-176" on="1"/>
        <pt x="255" y="-191" on="0"/>
        <pt x="215" y="-191" on="1"/>
        <pt x="186" y="-191" on="0"/>
        <pt x="141" y="-178" on="1"/>
        <pt x="154" y="-151" on="1"/>
        <pt x="181" y="-160" on="0"/>
        <pt x="205" y="-160" on="1"/>
        <pt x="254" y="-160" on="0"/>
        <pt x="254" y="-122" on="1"/>
        <pt x="254" y="-91" on="0"/>
        <pt x="220" y="-91" on="1"/>
        <pt x="205" y="-91" on="0"/>
        <pt x="186" y="-97" on="1"/>
        <pt x="180" y="-92" on="1"/>
        <pt x="216" y="-10" on="1"/>
        <pt x="179" y="-9" on="0"/>
        <pt x="117" y="24" on="0"/>
        <pt x="90" y="53" on="1"/>
        <pt x="35" y="114" on="0"/>
        <pt x="35" y="200" on="1"/>
        <pt x="35" y="291" on="0"/>
        <pt x="91" y="350" on="1"/>
        <pt x="145" y="407" on="0"/>
        <pt x="221" y="407" on="1"/>
        <pt x="252" y="407" on="0"/>
        <pt x="315" y="395" on="0"/>
        <pt x="359" y="381" on="1"/>
        <pt x="359" y="271" on="1"/>
        <pt x="338" y="271" on="1"/>
        <pt x="332" y="330" on="0"/>
        <pt x="282" y="389" on="0"/>
        <pt x="227" y="389" on="1"/>
        <pt x="177" y="389" on="0"/>
        <pt x="122" y="292" on="0"/>
        <pt x="122" y="197" on="1"/>
        <pt x="122" y="12" on="0"/>
        <pt x="240" y="12" on="1"/>
        <pt x="309" y="12" on="0"/>
        <pt x="369" y="78" on="1"/>
        <pt x="379" y="68" on="1"/>
        <pt x="349" y="29" on="0"/>
        <pt x="290" y="-6" on="0"/>
        <pt x="244" y="-9" on="1"/>
      </contour>
    </TTGlyph>
    <TTGlyph name="Ccircumflex" xMin="27" yMin="-14" xMax="524" yMax="790">
      <contour>
        <pt x="524" y="98" on="1"/>
        <pt x="478" y="33" on="0"/>
        <pt x="423" y="9" on="1"/>
        <pt x="373" y="-14" on="0"/>
        <pt x="297" y="-14" on="1"/>
        <pt x="185" y="-14" on="0"/>
        <pt x="106" y="78" on="1"/>
        <pt x="27" y="171" on="0"/>
        <pt x="28" y="301" on="1"/>
        <pt x="30" y="444" on="0"/>
        <pt x="108" y="531" on="1"/>
        <pt x="184" y="616" on="0"/>
        <pt x="297" y="616" on="1"/>
        <pt x="368" y="616" on="0"/>
        <pt x="415" y="606" on="1"/>
        <pt x="433" y="603" on="0"/>
        <pt x="479" y="585" on="1"/>
        <pt x="479" y="448" on="1"/>
        <pt x="452" y="448" on="1"/>
        <pt x="446" y="523" on="0"/>
        <pt x="378" y="594" on="0"/>
        <pt x="299" y="591" on="1"/>
        <pt x="129" y="583" on="0"/>
        <pt x="129" y="301" on="1"/>
        <pt x="129" y="177" on="0"/>
        <pt x="173" y="97" on="1"/>
        <pt x="219" y="18" on="0"/>
        <pt x="292" y="17" on="1"/>
        <pt x="366" y="16" on="0"/>
        <pt x="418" y="41" on="1"/>
        <pt x="460" y="60" on="0"/>
        <pt x="512" y="112" on="1"/>
      </contour>
      <contour>
        <pt x="432" y="647" on="1"/>
        <pt x="402" y="647" on="1"/>
        <pt x="298" y="735" on="1"/>
        <pt x="196" y="647" on="1"/>
        <pt x="165" y="647" on="1"/>
        <pt x="272" y="790" on="1"/>
        <pt x="325" y="790" on="1"/>
      </contour>
    </TTGlyph>
    <TTGlyph name="Cdotaccent" xMin="27" yMin="-14" xMax="524" yMax="742">
      <contour>
        <pt x="524" y="98" on="1"/>
        <pt x="478" y="33" on="0"/>
        <pt x="423" y="9" on="1"/>
        <pt x="373" y="-14" on="0"/>
        <pt x="297" y="-14" on="1"/>
        <pt x="185" y="-14" on="0"/>
        <pt x="106" y="78" on="1"/>
        <pt x="27" y="171" on="0"/>
        <pt x="28" y="301" on="1"/>
        <pt x="30" y="444" on="0"/>
        <pt x="108" y="531" on="1"/>
        <pt x="184" y="616" on="0"/>
        <pt x="297" y="616" on="1"/>
        <pt x="368" y="616" on="0"/>
        <pt x="415" y="606" on="1"/>
        <pt x="433" y="603" on="0"/>
        <pt x="479" y="585" on="1"/>
        <pt x="479" y="448" on="1"/>
        <pt x="452" y="448" on="1"/>
        <pt x="446" y="523" on="0"/>
        <pt x="378" y="594" on="0"/>
        <pt x="299" y="591" on="1"/>
        <pt x="129" y="583" on="0"/>
        <pt x="129" y="301" on="1"/>
        <pt x="129" y="177" on="0"/>
        <pt x="173" y="97" on="1"/>
        <pt x="219" y="18" on="0"/>
        <pt x="292" y="17" on="1"/>
        <pt x="366" y="16" on="0"/>
        <pt x="418" y="41" on="1"/>
        <pt x="460" y="60" on="0"/>
        <pt x="512" y="112" on="1"/>
      </contour>
      <contour>
        <pt x="304" y="647" on="1"/>
        <pt x="284" y="647" on="0"/>
        <pt x="256" y="675" on="0"/>
        <pt x="256" y="695" on="1"/>
        <pt x="256" y="714" on="0"/>
        <pt x="284" y="742" on="0"/>
        <pt x="304" y="742" on="1"/>
        <pt x="324" y="742" on="0"/>
        <pt x="352" y="714" on="0"/>
        <pt x="352" y="695" on="1"/>
        <pt x="352" y="675" on="0"/>
        <pt x="324" y="647" on="0"/>
      </contour>
    </TTGlyph>
    <TTGlyph name="Cedilla" xMin="80" yMin="-191" xMax="257" yMax="-9">
      <contour>
        <pt x="257" y="-120" on="1"/>
        <pt x="257" y="-157" on="0"/>
        <pt x="222" y="-176" on="1"/>
        <pt x="194" y="-191" on="0"/>
        <pt x="155" y="-191" on="1"/>
        <pt x="126" y="-191" on="0"/>
        <pt x="80" y="-178" on="1"/>
        <pt x="94" y="-151" on="1"/>
        <pt x="121" y="-159" on="0"/>
        <pt x="144" y="-159" on="1"/>
        <pt x="193" y="-159" on="0"/>
        <pt x="193" y="-122" on="1"/>
        <pt x="193" y="-91" on="0"/>
        <pt x="159" y="-91" on="1"/>
        <pt x="144" y="-91" on="0"/>
        <pt x="126" y="-97" on="1"/>
        <pt x="120" y="-92" on="1"/>
        <pt x="156" y="-9" on="1"/>
        <pt x="184" y="-9" on="1"/>
        <pt x="163" y="-64" on="1"/>
        <pt x="173" y="-60" on="0"/>
        <pt x="186" y="-60" on="1"/>
        <pt x="216" y="-60" on="0"/>
        <pt x="257" y="-91" on="0"/>
      </contour>
    </TTGlyph>
    <TTGlyph name="Cedillasmall" xMin="80" yMin="-191" xMax="257" yMax="-9">
      <contour>
        <pt x="257" y="-120" on="1"/>
        <pt x="257" y="-157" on="0"/>
        <pt x="222" y="-176" on="1"/>
        <pt x="194" y="-191" on="0"/>
        <pt x="155" y="-191" on="1"/>
        <pt x="126" y="-191" on="0"/>
        <pt x="80" y="-178" on="1"/>
        <pt x="94" y="-151" on="1"/>
        <pt x="121" y="-159" on="0"/>
        <pt x="144" y="-159" on="1"/>
        <pt x="193" y="-159" on="0"/>
        <pt x="193" y="-122" on="1"/>
        <pt x="193" y="-91" on="0"/>
        <pt x="159" y="-91" on="1"/>
        <pt x="144" y="-91" on="0"/>
        <pt x="126" y="-97" on="1"/>
        <pt x="120" y="-92" on="1"/>
        <pt x="156" y="-9" on="1"/>
        <pt x="184" y="-9" on="1"/>
        <pt x="163" y="-64" on="1"/>
        <pt x="173" y="-60" on="0"/>
        <pt x="186" y="-60" on="1"/>
        <pt x="216" y="-60" on="0"/>
        <pt x="257" y="-91" on="0"/>
      </contour>
    </TTGlyph>
    <TTGlyph name="Chi" xMin="3" yMin="0" xMax="651" yMax="603">
      <contour>
        <pt x="651" y="0" on="1"/>
        <pt x="408" y="0" on="1"/>
        <pt x="408" y="27" on="1"/>
        <pt x="479" y="27" on="1"/>
        <pt x="305" y="269" on="1"/>
        <pt x="285" y="243" on="0"/>
        <pt x="243" y="192" on="0"/>
        <pt x="223" y="166" on="1"/>
        <pt x="149" y="73" on="0"/>
        <pt x="149" y="52" on="1"/>
        <pt x="149" y="27" on="0"/>
        <pt x="212" y="27" on="1"/>
        <pt x="212" y="0" on="1"/>
        <pt x="3" y="0" on="1"/>
        <pt x="3" y="27" on="1"/>
        <pt x="62" y="27" on="0"/>
        <pt x="122" y="77" on="1"/>
        <pt x="164" y="114" on="0"/>
        <pt x="214" y="185" on="1"/>
        <pt x="232" y="213" on="0"/>
        <pt x="269" y="266" on="0"/>
        <pt x="287" y="292" on="1"/>
        <pt x="84" y="576" on="1"/>
        <pt x="22" y="576" on="1"/>
        <pt x="22" y="603" on="1"/>
        <pt x="255" y="603" on="1"/>
        <pt x="255" y="576" on="1"/>
        <pt x="190" y="576" on="1"/>
        <pt x="342" y="365" on="1"/>
        <pt x="376" y="405" on="0"/>
        <pt x="411" y="450" on="1"/>
        <pt x="474" y="529" on="0"/>
        <pt x="474" y="549" on="1"/>
        <pt x="474" y="576" on="0"/>
        <pt x="412" y="576" on="1"/>
        <pt x="412" y="603" on="1"/>
        <pt x="617" y="603" on="1"/>
        <pt x="617" y="576" on="1"/>
        <pt x="562" y="576" on="0"/>
        <pt x="510" y="532" on="1"/>
        <pt x="491" y="515" on="0"/>
        <pt x="450" y="468" on="0"/>
        <pt x="427" y="436" on="1"/>
        <pt x="410" y="411" on="0"/>
        <pt x="378" y="364" on="0"/>
        <pt x="361" y="340" on="1"/>
        <pt x="590" y="27" on="1"/>
        <pt x="651" y="27" on="1"/>
      </contour>
    </TTGlyph>
    <TTGlyph name="Circumflexsmall" xMin="10" yMin="432" xMax="273" yMax="574">
      <contour>
        <pt x="273" y="432" on="1"/>
        <pt x="243" y="432" on="1"/>
        <pt x="142" y="520" on="1"/>
        <pt x="38" y="432" on="1"/>
        <pt x="10" y="432" on="1"/>
        <pt x="115" y="574" on="1"/>
        <pt x="168" y="574" on="1"/>
      </contour>
    </TTGlyph>
    <TTGlyph name="Commaaccentsmall" xMin="-41" yMin="-180" xMax="40" yMax="-36">
      <contour>
        <pt x="40" y="-91" on="1"/>
        <pt x="40" y="-120" on="0"/>
        <pt x="17" y="-148" on="1"/>
        <pt x="-5" y="-177" on="0"/>
        <pt x="-36" y="-180" on="1"/>
        <pt x="-36" y="-168" on="1"/>
        <pt x="-17" y="-163" on="0"/>
        <pt x="12" y="-129" on="0"/>
        <pt x="12" y="-109" on="1"/>
        <pt x="12" y="-98" on="0"/>
        <pt x="8" y="-98" on="1"/>
        <pt x="6" y="-99" on="0"/>
        <pt x="-3" y="-106" on="0"/>
        <pt x="-6" y="-106" on="1"/>
        <pt x="-21" y="-106" on="0"/>
        <pt x="-41" y="-86" on="0"/>
        <pt x="-41" y="-71" on="1"/>
        <pt x="-41" y="-55" on="0"/>
        <pt x="-18" y="-36" on="0"/>
        <pt x="-1" y="-36" on="1"/>
        <pt x="19" y="-36" on="0"/>
        <pt x="40" y="-69" on="0"/>
      </contour>
    </TTGlyph>
    <TTGlyph name="Csmall" xMin="35" yMin="-10" xMax="379" yMax="407">
      <contour>
        <pt x="220" y="-10" on="1"/>
        <pt x="182" y="-10" on="0"/>
        <pt x="118" y="24" on="0"/>
        <pt x="90" y="53" on="1"/>
        <pt x="35" y="114" on="0"/>
        <pt x="35" y="200" on="1"/>
        <pt x="35" y="291" on="0"/>
        <pt x="91" y="350" on="1"/>
        <pt x="145" y="407" on="0"/>
        <pt x="221" y="407" on="1"/>
        <pt x="252" y="407" on="0"/>
        <pt x="315" y="395" on="0"/>
        <pt x="359" y="381" on="1"/>
        <pt x="359" y="271" on="1"/>
        <pt x="338" y="271" on="1"/>
        <pt x="332" y="330" on="0"/>
        <pt x="282" y="389" on="0"/>
        <pt x="227" y="389" on="1"/>
        <pt x="177" y="389" on="0"/>
        <pt x="122" y="292" on="0"/>
        <pt x="122" y="197" on="1"/>
        <pt x="122" y="12" on="0"/>
        <pt x="240" y="12" on="1"/>
        <pt x="309" y="12" on="0"/>
        <pt x="369" y="78" on="1"/>
        <pt x="379" y="68" on="1"/>
        <pt x="362" y="46" on="0"/>
        <pt x="330" y="17" on="0"/>
        <pt x="292" y="-2" on="0"/>
        <pt x="248" y="-10" on="0"/>
      </contour>
    </TTGlyph>
    <TTGlyph name="D" xMin="38" yMin="-5" xMax="605" yMax="603">
      <contour>
        <pt x="605" y="294" on="1"/>
        <pt x="605" y="171" on="0"/>
        <pt x="523" y="83" on="1"/>
        <pt x="443" y="-5" on="0"/>
        <pt x="337" y="-2" on="1"/>
        <pt x="289" y="0" on="0"/>
        <pt x="201" y="1" on="0"/>
        <pt x="161" y="2" on="1"/>
        <pt x="128" y="2" on="0"/>
        <pt x="66" y="1" on="0"/>
        <pt x="38" y="0" on="1"/>
        <pt x="38" y="27" on="1"/>
        <pt x="121" y="27" on="1"/>
        <pt x="121" y="576" on="1"/>
        <pt x="38" y="576" on="1"/>
        <pt x="38" y="603" on="1"/>
        <pt x="72" y="601" on="0"/>
        <pt x="140" y="598" on="0"/>
        <pt x="174" y="599" on="1"/>
        <pt x="237" y="600" on="0"/>
        <pt x="339" y="599" on="1"/>
        <pt x="463" y="598" on="0"/>
        <pt x="533" y="516" on="1"/>
        <pt x="605" y="434" on="0"/>
      </contour>
      <contour>
        <pt x="512" y="297" on="1"/>
        <pt x="511" y="420" on="0"/>
        <pt x="478" y="485" on="1"/>
        <pt x="437" y="568" on="0"/>
        <pt x="339" y="576" on="1"/>
        <pt x="301" y="577" on="0"/>
        <pt x="231" y="577" on="0"/>
        <pt x="199" y="572" on="1"/>
        <pt x="199" y="27" on="1"/>
        <pt x="257" y="22" on="0"/>
        <pt x="300" y="22" on="1"/>
        <pt x="312" y="22" on="0"/>
        <pt x="331" y="23" on="0"/>
        <pt x="338" y="24" on="1"/>
        <pt x="428" y="37" on="0"/>
        <pt x="471" y="111" on="1"/>
        <pt x="514" y="179" on="0"/>
      </contour>
    </TTGlyph>
    <TTGlyph name="Dcaron" xMin="38" yMin="-5" xMax="605" yMax="793">
      <contour>
        <pt x="605" y="294" on="1"/>
        <pt x="605" y="171" on="0"/>
        <pt x="523" y="83" on="1"/>
        <pt x="443" y="-5" on="0"/>
        <pt x="337" y="-2" on="1"/>
        <pt x="289" y="0" on="0"/>
        <pt x="201" y="1" on="0"/>
        <pt x="161" y="2" on="1"/>
        <pt x="128" y="2" on="0"/>
        <pt x="66" y="1" on="0"/>
        <pt x="38" y="0" on="1"/>
        <pt x="38" y="27" on="1"/>
        <pt x="121" y="27" on="1"/>
        <pt x="121" y="576" on="1"/>
        <pt x="38" y="576" on="1"/>
        <pt x="38" y="603" on="1"/>
        <pt x="72" y="601" on="0"/>
        <pt x="140" y="598" on="0"/>
        <pt x="174" y="599" on="1"/>
        <pt x="237" y="600" on="0"/>
        <pt x="339" y="599" on="1"/>
        <pt x="463" y="598" on="0"/>
        <pt x="533" y="516" on="1"/>
        <pt x="605" y="434" on="0"/>
      </contour>
      <contour>
        <pt x="512" y="297" on="1"/>
        <pt x="511" y="420" on="0"/>
        <pt x="478" y="485" on="1"/>
        <pt x="437" y="568" on="0"/>
        <pt x="339" y="576" on="1"/>
        <pt x="301" y="577" on="0"/>
        <pt x="231" y="577" on="0"/>
        <pt x="199" y="572" on="1"/>
        <pt x="199" y="27" on="1"/>
        <pt x="257" y="22" on="0"/>
        <pt x="300" y="22" on="1"/>
        <pt x="312" y="22" on="0"/>
        <pt x="331" y="23" on="0"/>
        <pt x="338" y="24" on="1"/>
        <pt x="428" y="37" on="0"/>
        <pt x="471" y="111" on="1"/>
        <pt x="514" y="179" on="0"/>
      </contour>
      <contour>
        <pt x="314" y="650" on="1"/>
        <pt x="262" y="650" on="1"/>
        <pt x="155" y="793" on="1"/>
        <pt x="185" y="793" on="1"/>
        <pt x="287" y="705" on="1"/>
        <pt x="391" y="793" on="1"/>
        <pt x="421" y="793" on="1"/>
      </contour>
    </TTGlyph>
    <TTGlyph name="Delta" xMin="28" yMin="0" xMax="514" yMax="619">
      <contour>
        <pt x="514" y="0" on="1"/>
        <pt x="28" y="0" on="1"/>
        <pt x="266" y="619" on="1"/>
        <pt x="301" y="619" on="1"/>
      </contour>
      <contour>
        <pt x="406" y="71" on="1"/>
        <pt x="258" y="494" on="1"/>
        <pt x="93" y="71" on="1"/>
      </contour>
    </TTGlyph>
    <TTGlyph name="Dieresis" xMin="-7" yMin="599" xMax="262" yMax="683">
      <contour>
        <pt x="220" y="599" on="1"/>
        <pt x="202" y="599" on="0"/>
        <pt x="178" y="624" on="0"/>
        <pt x="178" y="641" on="1"/>
        <pt x="178" y="659" on="0"/>
        <pt x="202" y="683" on="0"/>
        <pt x="220" y="683" on="1"/>
        <pt x="237" y="683" on="0"/>
        <pt x="262" y="659" on="0"/>
        <pt x="262" y="641" on="1"/>
        <pt x="262" y="624" on="0"/>
        <pt x="237" y="599" on="0"/>
      </contour>
      <contour>
        <pt x="36" y="599" on="1"/>
        <pt x="17" y="599" on="0"/>
        <pt x="-7" y="624" on="0"/>
        <pt x="-7" y="641" on="1"/>
        <pt x="-7" y="659" on="0"/>
        <pt x="17" y="683" on="0"/>
        <pt x="36" y="683" on="1"/>
        <pt x="53" y="683" on="0"/>
        <pt x="77" y="659" on="0"/>
        <pt x="77" y="641" on="1"/>
        <pt x="77" y="624" on="0"/>
        <pt x="53" y="599" on="0"/>
      </contour>
    </TTGlyph>
    <TTGlyph name="Dieresissmall" xMin="14" yMin="455" xMax="269" yMax="540">
      <contour>
        <pt x="269" y="497" on="1"/>
        <pt x="269" y="455" on="0"/>
        <pt x="226" y="455" on="1"/>
        <pt x="184" y="455" on="0"/>
        <pt x="184" y="497" on="1"/>
        <pt x="184" y="540" on="0"/>
        <pt x="226" y="540" on="1"/>
        <pt x="269" y="540" on="0"/>
      </contour>
      <contour>
        <pt x="99" y="497" on="1"/>
        <pt x="99" y="455" on="0"/>
        <pt x="57" y="455" on="1"/>
        <pt x="14" y="455" on="0"/>
        <pt x="14" y="497" on="1"/>
        <pt x="14" y="540" on="0"/>
        <pt x="57" y="540" on="1"/>
        <pt x="99" y="540" on="0"/>
      </contour>
    </TTGlyph>
    <TTGlyph name="Dmacron" xMin="38" yMin="-5" xMax="605" yMax="603">
      <contour>
        <pt x="605" y="294" on="1"/>
        <pt x="605" y="171" on="0"/>
        <pt x="523" y="83" on="1"/>
        <pt x="443" y="-5" on="0"/>
        <pt x="337" y="-2" on="1"/>
        <pt x="289" y="0" on="0"/>
        <pt x="201" y="1" on="0"/>
        <pt x="161" y="2" on="1"/>
        <pt x="128" y="2" on="0"/>
        <pt x="66" y="1" on="0"/>
        <pt x="38" y="0" on="1"/>
        <pt x="38" y="27" on="1"/>
        <pt x="121" y="27" on="1"/>
        <pt x="121" y="286" on="1"/>
        <pt x="40" y="286" on="1"/>
        <pt x="40" y="316" on="1"/>
        <pt x="121" y="316" on="1"/>
        <pt x="121" y="576" on="1"/>
        <pt x="38" y="576" on="1"/>
        <pt x="38" y="603" on="1"/>
        <pt x="72" y="601" on="0"/>
        <pt x="140" y="598" on="0"/>
        <pt x="174" y="599" on="1"/>
        <pt x="237" y="600" on="0"/>
        <pt x="339" y="599" on="1"/>
        <pt x="463" y="598" on="0"/>
        <pt x="533" y="516" on="1"/>
        <pt x="605" y="434" on="0"/>
      </contour>
      <contour>
        <pt x="512" y="297" on="1"/>
        <pt x="511" y="420" on="0"/>
        <pt x="478" y="485" on="1"/>
        <pt x="437" y="568" on="0"/>
        <pt x="339" y="576" on="1"/>
        <pt x="301" y="577" on="0"/>
        <pt x="231" y="577" on="0"/>
        <pt x="199" y="572" on="1"/>
        <pt x="199" y="316" on="1"/>
        <pt x="329" y="316" on="1"/>
        <pt x="329" y="286" on="1"/>
        <pt x="199" y="286" on="1"/>
        <pt x="199" y="27" on="1"/>
        <pt x="257" y="22" on="0"/>
        <pt x="300" y="22" on="1"/>
        <pt x="312" y="22" on="0"/>
        <pt x="331" y="23" on="0"/>
        <pt x="338" y="24" on="1"/>
        <pt x="428" y="37" on="0"/>
        <pt x="471" y="111" on="1"/>
        <pt x="514" y="179" on="0"/>
      </contour>
    </TTGlyph>
    <TTGlyph name="Dotaccent" xMin="98" yMin="683" xMax="193" yMax="779">
      <contour>
        <pt x="145" y="683" on="1"/>
        <pt x="126" y="683" on="0"/>
        <pt x="98" y="711" on="0"/>
        <pt x="98" y="731" on="1"/>
        <pt x="98" y="751" on="0"/>
        <pt x="126" y="779" on="0"/>
        <pt x="145" y="779" on="1"/>
        <pt x="165" y="779" on="0"/>
        <pt x="193" y="751" on="0"/>
        <pt x="193" y="731" on="1"/>
        <pt x="193" y="711" on="0"/>
        <pt x="165" y="683" on="0"/>
      </contour>
    </TTGlyph>
    <TTGlyph name="Dotaccentsmall" xMin="99" yMin="483" xMax="192" yMax="576">
      <contour>
        <pt x="145" y="483" on="1"/>
        <pt x="127" y="483" on="0"/>
        <pt x="99" y="510" on="0"/>
        <pt x="99" y="528" on="1"/>
        <pt x="99" y="549" on="0"/>
        <pt x="126" y="576" on="0"/>
        <pt x="145" y="576" on="1"/>
        <pt x="164" y="576" on="0"/>
        <pt x="192" y="549" on="0"/>
        <pt x="192" y="528" on="1"/>
        <pt x="192" y="510" on="0"/>
        <pt x="164" y="483" on="0"/>
      </contour>
    </TTGlyph>
    <TTGlyph name="Dsmall" xMin="36" yMin="0" xMax="439" yMax="402">
      <contour>
        <pt x="102" y="188" on="1"/>
        <pt x="102" y="211" on="0"/>
        <pt x="102" y="304" on="0"/>
        <pt x="101" y="374" on="1"/>
        <pt x="95" y="383" on="0"/>
        <pt x="56" y="383" on="1"/>
        <pt x="36" y="383" on="1"/>
        <pt x="36" y="400" on="1"/>
        <pt x="70" y="402" on="0"/>
        <pt x="173" y="400" on="0"/>
        <pt x="244" y="398" on="1"/>
        <pt x="439" y="379" on="0"/>
        <pt x="439" y="202" on="1"/>
        <pt x="439" y="104" on="0"/>
        <pt x="374" y="49" on="1"/>
        <pt x="318" y="1" on="0"/>
        <pt x="230" y="1" on="1"/>
        <pt x="144" y="1" on="0"/>
        <pt x="48" y="1" on="0"/>
        <pt x="36" y="0" on="1"/>
        <pt x="36" y="19" on="1"/>
        <pt x="56" y="19" on="1"/>
        <pt x="95" y="19" on="0"/>
        <pt x="101" y="28" on="1"/>
      </contour>
      <contour>
        <pt x="171" y="188" on="1"/>
        <pt x="171" y="24" on="1"/>
        <pt x="210" y="24" on="1"/>
        <pt x="291" y="24" on="0"/>
        <pt x="325" y="63" on="1"/>
        <pt x="359" y="106" on="0"/>
        <pt x="359" y="204" on="1"/>
        <pt x="359" y="270" on="0"/>
        <pt x="332" y="314" on="1"/>
        <pt x="302" y="364" on="0"/>
        <pt x="230" y="373" on="1"/>
        <pt x="215" y="375" on="0"/>
        <pt x="185" y="377" on="0"/>
        <pt x="171" y="376" on="1"/>
      </contour>
    </TTGlyph>
    <TTGlyph name="E" xMin="45" yMin="0" xMax="563" yMax="603">
      <contour>
        <pt x="563" y="209" on="1"/>
        <pt x="553" y="0" on="1"/>
        <pt x="45" y="0" on="1"/>
        <pt x="45" y="27" on="1"/>
        <pt x="127" y="27" on="1"/>
        <pt x="127" y="576" on="1"/>
        <pt x="45" y="576" on="1"/>
        <pt x="45" y="603" on="1"/>
        <pt x="539" y="603" on="1"/>
        <pt x="541" y="425" on="1"/>
        <pt x="514" y="425" on="1"/>
        <pt x="511" y="462" on="0"/>
        <pt x="492" y="517" on="0"/>
        <pt x="454" y="554" on="0"/>
        <pt x="396" y="573" on="0"/>
        <pt x="354" y="574" on="1"/>
        <pt x="205" y="576" on="1"/>
        <pt x="205" y="322" on="1"/>
        <pt x="311" y="322" on="1"/>
        <pt x="349" y="322" on="0"/>
        <pt x="367" y="344" on="1"/>
        <pt x="388" y="372" on="0"/>
        <pt x="388" y="425" on="1"/>
        <pt x="415" y="425" on="1"/>
        <pt x="415" y="183" on="1"/>
        <pt x="388" y="183" on="1"/>
        <pt x="388" y="236" on="0"/>
        <pt x="344" y="292" on="0"/>
        <pt x="311" y="292" on="1"/>
        <pt x="205" y="292" on="1"/>
        <pt x="205" y="27" on="1"/>
        <pt x="368" y="30" on="1"/>
        <pt x="393" y="30" on="0"/>
        <pt x="427" y="43" on="1"/>
        <pt x="462" y="56" on="0"/>
        <pt x="479" y="73" on="1"/>
        <pt x="531" y="122" on="0"/>
        <pt x="535" y="209" on="1"/>
      </contour>
    </TTGlyph>
    <TTGlyph name="Eacute" xMin="45" yMin="0" xMax="563" yMax="828">
      <contour>
        <pt x="563" y="209" on="1"/>
        <pt x="553" y="0" on="1"/>
        <pt x="45" y="0" on="1"/>
        <pt x="45" y="27" on="1"/>
        <pt x="127" y="27" on="1"/>
        <pt x="127" y="576" on="1"/>
        <pt x="45" y="576" on="1"/>
        <pt x="45" y="603" on="1"/>
        <pt x="539" y="603" on="1"/>
        <pt x="541" y="425" on="1"/>
        <pt x="514" y="425" on="1"/>
        <pt x="511" y="462" on="0"/>
        <pt x="492" y="517" on="0"/>
        <pt x="454" y="554" on="0"/>
        <pt x="396" y="573" on="0"/>
        <pt x="354" y="574" on="1"/>
        <pt x="205" y="576" on="1"/>
        <pt x="205" y="322" on="1"/>
        <pt x="311" y="322" on="1"/>
        <pt x="350" y="322" on="0"/>
        <pt x="367" y="344" on="1"/>
        <pt x="387" y="372" on="0"/>
        <pt x="387" y="425" on="1"/>
        <pt x="415" y="425" on="1"/>
        <pt x="415" y="183" on="1"/>
        <pt x="387" y="183" on="1"/>
        <pt x="387" y="236" on="0"/>
        <pt x="344" y="292" on="0"/>
        <pt x="311" y="292" on="1"/>
        <pt x="205" y="292" on="1"/>
        <pt x="205" y="27" on="1"/>
        <pt x="368" y="30" on="1"/>
        <pt x="393" y="30" on="0"/>
        <pt x="427" y="43" on="1"/>
        <pt x="462" y="56" on="0"/>
        <pt x="479" y="73" on="1"/>
        <pt x="530" y="121" on="0"/>
        <pt x="535" y="209" on="1"/>
      </contour>
      <contour>
        <pt x="426" y="797" on="1"/>
        <pt x="426" y="779" on="0"/>
        <pt x="415" y="768" on="1"/>
        <pt x="299" y="649" on="1"/>
        <pt x="281" y="653" on="1"/>
        <pt x="365" y="811" on="1"/>
        <pt x="374" y="828" on="0"/>
        <pt x="397" y="828" on="1"/>
        <pt x="426" y="828" on="0"/>
      </contour>
    </TTGlyph>
    <TTGlyph name="Eacutesmall" xMin="40" yMin="0" xMax="410" yMax="593">
      <contour>
        <pt x="410" y="138" on="1"/>
        <pt x="402" y="0" on="1"/>
        <pt x="40" y="0" on="1"/>
        <pt x="40" y="18" on="1"/>
        <pt x="94" y="18" on="1"/>
        <pt x="94" y="379" on="1"/>
        <pt x="40" y="379" on="1"/>
        <pt x="40" y="397" on="1"/>
        <pt x="393" y="397" on="1"/>
        <pt x="394" y="280" on="1"/>
        <pt x="370" y="280" on="1"/>
        <pt x="366" y="326" on="0"/>
        <pt x="319" y="373" on="0"/>
        <pt x="265" y="374" on="1"/>
        <pt x="173" y="375" on="1"/>
        <pt x="173" y="213" on="1"/>
        <pt x="241" y="213" on="1"/>
        <pt x="267" y="213" on="0"/>
        <pt x="277" y="227" on="1"/>
        <pt x="291" y="244" on="0"/>
        <pt x="291" y="280" on="1"/>
        <pt x="312" y="280" on="1"/>
        <pt x="312" y="120" on="1"/>
        <pt x="291" y="120" on="1"/>
        <pt x="291" y="154" on="0"/>
        <pt x="264" y="191" on="0"/>
        <pt x="241" y="191" on="1"/>
        <pt x="173" y="191" on="1"/>
        <pt x="173" y="21" on="1"/>
        <pt x="278" y="23" on="1"/>
        <pt x="294" y="23" on="0"/>
        <pt x="338" y="40" on="0"/>
        <pt x="350" y="51" on="1"/>
        <pt x="384" y="84" on="0"/>
        <pt x="387" y="138" on="1"/>
      </contour>
      <contour>
        <pt x="331" y="569" on="1"/>
        <pt x="331" y="554" on="0"/>
        <pt x="321" y="544" on="1"/>
        <pt x="217" y="449" on="1"/>
        <pt x="199" y="452" on="1"/>
        <pt x="276" y="579" on="1"/>
        <pt x="283" y="593" on="0"/>
        <pt x="304" y="593" on="1"/>
        <pt x="331" y="593" on="0"/>
      </contour>
    </TTGlyph>
    <TTGlyph name="Ebreve" xMin="45" yMin="0" xMax="563" yMax="786">
      <contour>
        <pt x="563" y="209" on="1"/>
        <pt x="553" y="0" on="1"/>
        <pt x="45" y="0" on="1"/>
        <pt x="45" y="27" on="1"/>
        <pt x="127" y="27" on="1"/>
        <pt x="127" y="576" on="1"/>
        <pt x="45" y="576" on="1"/>
        <pt x="45" y="603" on="1"/>
        <pt x="539" y="603" on="1"/>
        <pt x="541" y="425" on="1"/>
        <pt x="514" y="425" on="1"/>
        <pt x="511" y="462" on="0"/>
        <pt x="492" y="517" on="0"/>
        <pt x="454" y="554" on="0"/>
        <pt x="396" y="573" on="0"/>
        <pt x="354" y="574" on="1"/>
        <pt x="205" y="576" on="1"/>
        <pt x="205" y="322" on="1"/>
        <pt x="311" y="322" on="1"/>
        <pt x="349" y="322" on="0"/>
        <pt x="367" y="344" on="1"/>
        <pt x="388" y="372" on="0"/>
        <pt x="388" y="425" on="1"/>
        <pt x="415" y="425" on="1"/>
        <pt x="415" y="183" on="1"/>
        <pt x="388" y="183" on="1"/>
        <pt x="388" y="236" on="0"/>
        <pt x="344" y="292" on="0"/>
        <pt x="311" y="292" on="1"/>
        <pt x="205" y="292" on="1"/>
        <pt x="205" y="27" on="1"/>
        <pt x="368" y="30" on="1"/>
        <pt x="393" y="30" on="0"/>
        <pt x="427" y="43" on="1"/>
        <pt x="462" y="56" on="0"/>
        <pt x="479" y="73" on="1"/>
        <pt x="531" y="122" on="0"/>
        <pt x="535" y="209" on="1"/>
      </contour>
      <contour>
        <pt x="444" y="783" on="1"/>
        <pt x="444" y="725" on="0"/>
        <pt x="409" y="687" on="1"/>
        <pt x="374" y="648" on="0"/>
        <pt x="318" y="648" on="1"/>
        <pt x="257" y="648" on="0"/>
        <pt x="185" y="723" on="0"/>
        <pt x="185" y="783" on="1"/>
        <pt x="188" y="786" on="1"/>
        <pt x="211" y="786" on="1"/>
        <pt x="227" y="704" on="0"/>
        <pt x="319" y="704" on="1"/>
        <pt x="404" y="704" on="0"/>
        <pt x="419" y="786" on="1"/>
        <pt x="442" y="786" on="1"/>
      </contour>
    </TTGlyph>
    <TTGlyph name="Ecaron" xMin="45" yMin="0" xMax="563" yMax="790">
      <contour>
        <pt x="563" y="209" on="1"/>
        <pt x="553" y="0" on="1"/>
        <pt x="45" y="0" on="1"/>
        <pt x="45" y="27" on="1"/>
        <pt x="127" y="27" on="1"/>
        <pt x="127" y="576" on="1"/>
        <pt x="45" y="576" on="1"/>
        <pt x="45" y="603" on="1"/>
        <pt x="539" y="603" on="1"/>
        <pt x="541" y="425" on="1"/>
        <pt x="514" y="425" on="1"/>
        <pt x="511" y="462" on="0"/>
        <pt x="492" y="517" on="0"/>
        <pt x="454" y="554" on="0"/>
        <pt x="396" y="573" on="0"/>
        <pt x="354" y="574" on="1"/>
        <pt x="205" y="576" on="1"/>
        <pt x="205" y="322" on="1"/>
        <pt x="311" y="322" on="1"/>
        <pt x="349" y="322" on="0"/>
        <pt x="367" y="344" on="1"/>
        <pt x="388" y="372" on="0"/>
        <pt x="388" y="425" on="1"/>
        <pt x="415" y="425" on="1"/>
        <pt x="415" y="183" on="1"/>
        <pt x="388" y="183" on="1"/>
        <pt x="388" y="236" on="0"/>
        <pt x="344" y="292" on="0"/>
        <pt x="311" y="292" on="1"/>
        <pt x="205" y="292" on="1"/>
        <pt x="205" y="27" on="1"/>
        <pt x="368" y="30" on="1"/>
        <pt x="393" y="30" on="0"/>
        <pt x="427" y="43" on="1"/>
        <pt x="462" y="56" on="0"/>
        <pt x="479" y="73" on="1"/>
        <pt x="531" y="122" on="0"/>
        <pt x="535" y="209" on="1"/>
      </contour>
      <contour>
        <pt x="341" y="647" on="1"/>
        <pt x="289" y="647" on="1"/>
        <pt x="182" y="790" on="1"/>
        <pt x="212" y="790" on="1"/>
        <pt x="314" y="703" on="1"/>
        <pt x="418" y="790" on="1"/>
        <pt x="448" y="790" on="1"/>
      </contour>
    </TTGlyph>
    <TTGlyph name="Ecircumflex" xMin="45" yMin="0" xMax="563" yMax="792">
      <contour>
        <pt x="563" y="209" on="1"/>
        <pt x="553" y="0" on="1"/>
        <pt x="45" y="0" on="1"/>
        <pt x="45" y="27" on="1"/>
        <pt x="127" y="27" on="1"/>
        <pt x="127" y="576" on="1"/>
        <pt x="45" y="576" on="1"/>
        <pt x="45" y="603" on="1"/>
        <pt x="539" y="603" on="1"/>
        <pt x="541" y="425" on="1"/>
        <pt x="514" y="425" on="1"/>
        <pt x="511" y="462" on="0"/>
        <pt x="492" y="517" on="0"/>
        <pt x="454" y="554" on="0"/>
        <pt x="396" y="573" on="0"/>
        <pt x="354" y="574" on="1"/>
        <pt x="205" y="576" on="1"/>
        <pt x="205" y="322" on="1"/>
        <pt x="311" y="322" on="1"/>
        <pt x="349" y="322" on="0"/>
        <pt x="367" y="344" on="1"/>
        <pt x="388" y="372" on="0"/>
        <pt x="388" y="425" on="1"/>
        <pt x="415" y="425" on="1"/>
        <pt x="415" y="183" on="1"/>
        <pt x="388" y="183" on="1"/>
        <pt x="388" y="236" on="0"/>
        <pt x="344" y="292" on="0"/>
        <pt x="311" y="292" on="1"/>
        <pt x="205" y="292" on="1"/>
        <pt x="205" y="27" on="1"/>
        <pt x="368" y="30" on="1"/>
        <pt x="393" y="30" on="0"/>
        <pt x="427" y="43" on="1"/>
        <pt x="462" y="56" on="0"/>
        <pt x="479" y="73" on="1"/>
        <pt x="531" y="122" on="0"/>
        <pt x="535" y="209" on="1"/>
      </contour>
      <contour>
        <pt x="412" y="648" on="1"/>
        <pt x="382" y="648" on="1"/>
        <pt x="278" y="737" on="1"/>
        <pt x="176" y="648" on="1"/>
        <pt x="145" y="648" on="1"/>
        <pt x="252" y="792" on="1"/>
        <pt x="305" y="792" on="1"/>
      </contour>
    </TTGlyph>
    <TTGlyph name="Ecircumflexacute" xMin="45" yMin="0" xMax="583" yMax="829">
      <contour>
        <pt x="563" y="209" on="1"/>
        <pt x="553" y="0" on="1"/>
        <pt x="45" y="0" on="1"/>
        <pt x="45" y="27" on="1"/>
        <pt x="127" y="27" on="1"/>
        <pt x="127" y="576" on="1"/>
        <pt x="45" y="576" on="1"/>
        <pt x="45" y="603" on="1"/>
        <pt x="539" y="603" on="1"/>
        <pt x="541" y="425" on="1"/>
        <pt x="514" y="425" on="1"/>
        <pt x="511" y="462" on="0"/>
        <pt x="492" y="517" on="0"/>
        <pt x="454" y="554" on="0"/>
        <pt x="396" y="573" on="0"/>
        <pt x="354" y="574" on="1"/>
        <pt x="205" y="576" on="1"/>
        <pt x="205" y="322" on="1"/>
        <pt x="311" y="322" on="1"/>
        <pt x="349" y="322" on="0"/>
        <pt x="367" y="344" on="1"/>
        <pt x="388" y="372" on="0"/>
        <pt x="388" y="425" on="1"/>
        <pt x="415" y="425" on="1"/>
        <pt x="415" y="183" on="1"/>
        <pt x="388" y="183" on="1"/>
        <pt x="388" y="236" on="0"/>
        <pt x="344" y="292" on="0"/>
        <pt x="311" y="292" on="1"/>
        <pt x="205" y="292" on="1"/>
        <pt x="205" y="27" on="1"/>
        <pt x="368" y="30" on="1"/>
        <pt x="393" y="30" on="0"/>
        <pt x="427" y="43" on="1"/>
        <pt x="462" y="56" on="0"/>
        <pt x="479" y="73" on="1"/>
        <pt x="531" y="122" on="0"/>
        <pt x="535" y="209" on="1"/>
      </contour>
      <contour>
        <pt x="583" y="799" on="1"/>
        <pt x="583" y="780" on="0"/>
        <pt x="572" y="769" on="1"/>
        <pt x="457" y="650" on="1"/>
        <pt x="437" y="653" on="1"/>
        <pt x="522" y="812" on="1"/>
        <pt x="531" y="829" on="0"/>
        <pt x="554" y="829" on="1"/>
        <pt x="583" y="829" on="0"/>
      </contour>
      <contour>
        <pt x="420" y="644" on="1"/>
        <pt x="390" y="644" on="1"/>
        <pt x="286" y="732" on="1"/>
        <pt x="184" y="644" on="1"/>
        <pt x="153" y="644" on="1"/>
        <pt x="260" y="787" on="1"/>
        <pt x="313" y="787" on="1"/>
      </contour>
    </TTGlyph>
    <TTGlyph name="Ecircumflexdotbelow" xMin="45" yMin="-209" xMax="563" yMax="791">
      <contour>
        <pt x="563" y="209" on="1"/>
        <pt x="553" y="0" on="1"/>
        <pt x="45" y="0" on="1"/>
        <pt x="45" y="27" on="1"/>
        <pt x="127" y="27" on="1"/>
        <pt x="127" y="576" on="1"/>
        <pt x="45" y="576" on="1"/>
        <pt x="45" y="603" on="1"/>
        <pt x="539" y="603" on="1"/>
        <pt x="541" y="425" on="1"/>
        <pt x="514" y="425" on="1"/>
        <pt x="511" y="462" on="0"/>
        <pt x="492" y="517" on="0"/>
        <pt x="454" y="554" on="0"/>
        <pt x="396" y="573" on="0"/>
        <pt x="354" y="574" on="1"/>
        <pt x="205" y="576" on="1"/>
        <pt x="205" y="322" on="1"/>
        <pt x="311" y="322" on="1"/>
        <pt x="349" y="322" on="0"/>
        <pt x="367" y="344" on="1"/>
        <pt x="388" y="372" on="0"/>
        <pt x="388" y="425" on="1"/>
        <pt x="415" y="425" on="1"/>
        <pt x="415" y="183" on="1"/>
        <pt x="388" y="183" on="1"/>
        <pt x="388" y="236" on="0"/>
        <pt x="344" y="292" on="0"/>
        <pt x="311" y="292" on="1"/>
        <pt x="205" y="292" on="1"/>
        <pt x="205" y="27" on="1"/>
        <pt x="368" y="30" on="1"/>
        <pt x="393" y="30" on="0"/>
        <pt x="427" y="43" on="1"/>
        <pt x="462" y="56" on="0"/>
        <pt x="479" y="73" on="1"/>
        <pt x="531" y="122" on="0"/>
        <pt x="535" y="209" on="1"/>
      </contour>
      <contour>
        <pt x="360" y="-162" on="1"/>
        <pt x="360" y="-182" on="0"/>
        <pt x="332" y="-209" on="0"/>
        <pt x="313" y="-209" on="1"/>
        <pt x="294" y="-209" on="0"/>
        <pt x="266" y="-182" on="0"/>
        <pt x="266" y="-162" on="1"/>
        <pt x="266" y="-144" on="0"/>
        <pt x="294" y="-116" on="0"/>
        <pt x="313" y="-116" on="1"/>
        <pt x="333" y="-116" on="0"/>
        <pt x="360" y="-144" on="0"/>
      </contour>
      <contour>
        <pt x="434" y="647" on="1"/>
        <pt x="404" y="647" on="1"/>
        <pt x="300" y="736" on="1"/>
        <pt x="198" y="647" on="1"/>
        <pt x="167" y="647" on="1"/>
        <pt x="274" y="791" on="1"/>
        <pt x="327" y="791" on="1"/>
      </contour>
    </TTGlyph>
    <TTGlyph name="Ecircumflexgrave" xMin="45" yMin="0" xMax="563" yMax="822">
      <contour>
        <pt x="563" y="209" on="1"/>
        <pt x="553" y="0" on="1"/>
        <pt x="45" y="0" on="1"/>
        <pt x="45" y="27" on="1"/>
        <pt x="127" y="27" on="1"/>
        <pt x="127" y="576" on="1"/>
        <pt x="45" y="576" on="1"/>
        <pt x="45" y="603" on="1"/>
        <pt x="539" y="603" on="1"/>
        <pt x="541" y="425" on="1"/>
        <pt x="514" y="425" on="1"/>
        <pt x="511" y="462" on="0"/>
        <pt x="492" y="517" on="0"/>
        <pt x="454" y="554" on="0"/>
        <pt x="396" y="573" on="0"/>
        <pt x="354" y="574" on="1"/>
        <pt x="205" y="576" on="1"/>
        <pt x="205" y="322" on="1"/>
        <pt x="311" y="322" on="1"/>
        <pt x="349" y="322" on="0"/>
        <pt x="367" y="344" on="1"/>
        <pt x="388" y="372" on="0"/>
        <pt x="388" y="425" on="1"/>
        <pt x="415" y="425" on="1"/>
        <pt x="415" y="183" on="1"/>
        <pt x="388" y="183" on="1"/>
        <pt x="388" y="236" on="0"/>
        <pt x="344" y="292" on="0"/>
        <pt x="311" y="292" on="1"/>
        <pt x="205" y="292" on="1"/>
        <pt x="205" y="27" on="1"/>
        <pt x="368" y="30" on="1"/>
        <pt x="393" y="30" on="0"/>
        <pt x="427" y="43" on="1"/>
        <pt x="462" y="56" on="0"/>
        <pt x="479" y="73" on="1"/>
        <pt x="531" y="122" on="0"/>
        <pt x="535" y="209" on="1"/>
      </contour>
      <contour>
        <pt x="485" y="645" on="1"/>
        <pt x="463" y="645" on="1"/>
        <pt x="342" y="763" on="1"/>
        <pt x="332" y="774" on="0"/>
        <pt x="332" y="790" on="1"/>
        <pt x="332" y="822" on="0"/>
        <pt x="365" y="822" on="1"/>
        <pt x="388" y="822" on="0"/>
        <pt x="398" y="804" on="1"/>
      </contour>
      <contour>
        <pt x="403" y="647" on="1"/>
        <pt x="374" y="647" on="1"/>
        <pt x="269" y="736" on="1"/>
        <pt x="167" y="647" on="1"/>
        <pt x="136" y="647" on="1"/>
        <pt x="243" y="791" on="1"/>
        <pt x="297" y="791" on="1"/>
      </contour>
    </TTGlyph>
    <TTGlyph name="Ecircumflexhookabove" xMin="45" yMin="0" xMax="563" yMax="820">
      <contour>
        <pt x="563" y="209" on="1"/>
        <pt x="553" y="0" on="1"/>
        <pt x="45" y="0" on="1"/>
        <pt x="45" y="27" on="1"/>
        <pt x="127" y="27" on="1"/>
        <pt x="127" y="576" on="1"/>
        <pt x="45" y="576" on="1"/>
        <pt x="45" y="603" on="1"/>
        <pt x="539" y="603" on="1"/>
        <pt x="541" y="425" on="1"/>
        <pt x="514" y="425" on="1"/>
        <pt x="511" y="462" on="0"/>
        <pt x="492" y="517" on="0"/>
        <pt x="454" y="554" on="0"/>
        <pt x="396" y="573" on="0"/>
        <pt x="354" y="574" on="1"/>
        <pt x="205" y="576" on="1"/>
        <pt x="205" y="322" on="1"/>
        <pt x="311" y="322" on="1"/>
        <pt x="349" y="322" on="0"/>
        <pt x="367" y="344" on="1"/>
        <pt x="388" y="372" on="0"/>
        <pt x="388" y="425" on="1"/>
        <pt x="415" y="425" on="1"/>
        <pt x="415" y="183" on="1"/>
        <pt x="388" y="183" on="1"/>
        <pt x="388" y="236" on="0"/>
        <pt x="344" y="292" on="0"/>
        <pt x="311" y="292" on="1"/>
        <pt x="205" y="292" on="1"/>
        <pt x="205" y="27" on="1"/>
        <pt x="368" y="30" on="1"/>
        <pt x="393" y="30" on="0"/>
        <pt x="427" y="43" on="1"/>
        <pt x="462" y="56" on="0"/>
        <pt x="479" y="73" on="1"/>
        <pt x="531" y="122" on="0"/>
        <pt x="535" y="209" on="1"/>
      </contour>
      <contour>
        <pt x="465" y="654" on="1"/>
        <pt x="464" y="650" on="0"/>
        <pt x="458" y="650" on="1"/>
        <pt x="451" y="650" on="0"/>
        <pt x="440" y="666" on="0"/>
        <pt x="440" y="675" on="1"/>
        <pt x="440" y="689" on="0"/>
        <pt x="464" y="717" on="1"/>
        <pt x="487" y="744" on="0"/>
        <pt x="487" y="758" on="1"/>
        <pt x="487" y="791" on="0"/>
        <pt x="451" y="787" on="1"/>
        <pt x="433" y="786" on="0"/>
        <pt x="422" y="764" on="1"/>
        <pt x="416" y="755" on="0"/>
        <pt x="409" y="755" on="1"/>
        <pt x="398" y="755" on="0"/>
        <pt x="398" y="769" on="1"/>
        <pt x="398" y="786" on="0"/>
        <pt x="428" y="813" on="0"/>
        <pt x="444" y="816" on="1"/>
        <pt x="454" y="820" on="0"/>
        <pt x="465" y="820" on="1"/>
        <pt x="488" y="820" on="0"/>
        <pt x="523" y="791" on="0"/>
        <pt x="523" y="765" on="1"/>
        <pt x="523" y="744" on="0"/>
        <pt x="491" y="712" on="1"/>
        <pt x="458" y="681" on="0"/>
        <pt x="458" y="672" on="1"/>
        <pt x="458" y="668" on="0"/>
        <pt x="465" y="658" on="0"/>
      </contour>
      <contour>
        <pt x="416" y="647" on="1"/>
        <pt x="387" y="647" on="1"/>
        <pt x="283" y="735" on="1"/>
        <pt x="180" y="647" on="1"/>
        <pt x="150" y="647" on="1"/>
        <pt x="256" y="790" on="1"/>
        <pt x="310" y="790" on="1"/>
      </contour>
    </TTGlyph>
    <TTGlyph name="Ecircumflexsmall" xMin="40" yMin="0" xMax="410" yMax="577">
      <contour>
        <pt x="410" y="138" on="1"/>
        <pt x="402" y="0" on="1"/>
        <pt x="40" y="0" on="1"/>
        <pt x="40" y="18" on="1"/>
        <pt x="94" y="18" on="1"/>
        <pt x="94" y="379" on="1"/>
        <pt x="40" y="379" on="1"/>
        <pt x="40" y="397" on="1"/>
        <pt x="393" y="397" on="1"/>
        <pt x="394" y="280" on="1"/>
        <pt x="370" y="280" on="1"/>
        <pt x="366" y="326" on="0"/>
        <pt x="319" y="373" on="0"/>
        <pt x="265" y="374" on="1"/>
        <pt x="173" y="375" on="1"/>
        <pt x="173" y="213" on="1"/>
        <pt x="241" y="213" on="1"/>
        <pt x="267" y="213" on="0"/>
        <pt x="277" y="227" on="1"/>
        <pt x="291" y="244" on="0"/>
        <pt x="291" y="280" on="1"/>
        <pt x="312" y="280" on="1"/>
        <pt x="312" y="120" on="1"/>
        <pt x="291" y="120" on="1"/>
        <pt x="291" y="154" on="0"/>
        <pt x="264" y="191" on="0"/>
        <pt x="241" y="191" on="1"/>
        <pt x="173" y="191" on="1"/>
        <pt x="173" y="21" on="1"/>
        <pt x="278" y="23" on="1"/>
        <pt x="294" y="23" on="0"/>
        <pt x="338" y="40" on="0"/>
        <pt x="350" y="51" on="1"/>
        <pt x="384" y="84" on="0"/>
        <pt x="387" y="138" on="1"/>
      </contour>
      <contour>
        <pt x="341" y="464" on="1"/>
        <pt x="315" y="464" on="1"/>
        <pt x="235" y="532" on="1"/>
        <pt x="155" y="464" on="1"/>
        <pt x="129" y="464" on="1"/>
        <pt x="214" y="577" on="1"/>
        <pt x="256" y="577" on="1"/>
      </contour>
    </TTGlyph>
    <TTGlyph name="Ecircumflextilde" xMin="45" yMin="0" xMax="563" yMax="910">
      <contour>
        <pt x="563" y="209" on="1"/>
        <pt x="553" y="0" on="1"/>
        <pt x="45" y="0" on="1"/>
        <pt x="45" y="27" on="1"/>
        <pt x="127" y="27" on="1"/>
        <pt x="127" y="576" on="1"/>
        <pt x="45" y="576" on="1"/>
        <pt x="45" y="603" on="1"/>
        <pt x="539" y="603" on="1"/>
        <pt x="541" y="425" on="1"/>
        <pt x="514" y="425" on="1"/>
        <pt x="511" y="462" on="0"/>
        <pt x="492" y="517" on="0"/>
        <pt x="454" y="554" on="0"/>
        <pt x="396" y="573" on="0"/>
        <pt x="354" y="574" on="1"/>
        <pt x="205" y="576" on="1"/>
        <pt x="205" y="322" on="1"/>
        <pt x="311" y="322" on="1"/>
        <pt x="349" y="322" on="0"/>
        <pt x="367" y="344" on="1"/>
        <pt x="388" y="372" on="0"/>
        <pt x="388" y="425" on="1"/>
        <pt x="415" y="425" on="1"/>
        <pt x="415" y="183" on="1"/>
        <pt x="388" y="183" on="1"/>
        <pt x="388" y="236" on="0"/>
        <pt x="344" y="292" on="0"/>
        <pt x="311" y="292" on="1"/>
        <pt x="205" y="292" on="1"/>
        <pt x="205" y="27" on="1"/>
        <pt x="368" y="30" on="1"/>
        <pt x="393" y="30" on="0"/>
        <pt x="427" y="43" on="1"/>
        <pt x="462" y="56" on="0"/>
        <pt x="479" y="73" on="1"/>
        <pt x="531" y="122" on="0"/>
        <pt x="535" y="209" on="1"/>
      </contour>
      <contour>
        <pt x="437" y="910" on="1"/>
        <pt x="433" y="819" on="0"/>
        <pt x="356" y="819" on="1"/>
        <pt x="329" y="819" on="0"/>
        <pt x="280" y="836" on="1"/>
        <pt x="230" y="853" on="0"/>
        <pt x="207" y="853" on="1"/>
        <pt x="192" y="853" on="0"/>
        <pt x="164" y="832" on="0"/>
        <pt x="162" y="817" on="1"/>
        <pt x="146" y="817" on="1"/>
        <pt x="151" y="901" on="0"/>
        <pt x="225" y="901" on="1"/>
        <pt x="250" y="901" on="0"/>
        <pt x="303" y="886" on="1"/>
        <pt x="355" y="871" on="0"/>
        <pt x="380" y="871" on="1"/>
        <pt x="413" y="871" on="0"/>
        <pt x="423" y="910" on="1"/>
      </contour>
      <contour>
        <pt x="427" y="648" on="1"/>
        <pt x="397" y="648" on="1"/>
        <pt x="293" y="737" on="1"/>
        <pt x="191" y="648" on="1"/>
        <pt x="160" y="648" on="1"/>
        <pt x="267" y="792" on="1"/>
        <pt x="320" y="792" on="1"/>
      </contour>
    </TTGlyph>
    <TTGlyph name="Edieresis" xMin="45" yMin="0" xMax="563" yMax="731">
      <contour>
        <pt x="563" y="209" on="1"/>
        <pt x="553" y="0" on="1"/>
        <pt x="45" y="0" on="1"/>
        <pt x="45" y="27" on="1"/>
        <pt x="127" y="27" on="1"/>
        <pt x="127" y="576" on="1"/>
        <pt x="45" y="576" on="1"/>
        <pt x="45" y="603" on="1"/>
        <pt x="539" y="603" on="1"/>
        <pt x="541" y="425" on="1"/>
        <pt x="514" y="425" on="1"/>
        <pt x="511" y="462" on="0"/>
        <pt x="492" y="517" on="0"/>
        <pt x="454" y="554" on="0"/>
        <pt x="396" y="573" on="0"/>
        <pt x="354" y="574" on="1"/>
        <pt x="205" y="576" on="1"/>
        <pt x="205" y="322" on="1"/>
        <pt x="311" y="322" on="1"/>
        <pt x="349" y="322" on="0"/>
        <pt x="367" y="344" on="1"/>
        <pt x="388" y="372" on="0"/>
        <pt x="388" y="425" on="1"/>
        <pt x="415" y="425" on="1"/>
        <pt x="415" y="183" on="1"/>
        <pt x="388" y="183" on="1"/>
        <pt x="388" y="236" on="0"/>
        <pt x="344" y="292" on="0"/>
        <pt x="311" y="292" on="1"/>
        <pt x="205" y="292" on="1"/>
        <pt x="205" y="27" on="1"/>
        <pt x="368" y="30" on="1"/>
        <pt x="393" y="30" on="0"/>
        <pt x="427" y="43" on="1"/>
        <pt x="462" y="56" on="0"/>
        <pt x="479" y="73" on="1"/>
        <pt x="531" y="122" on="0"/>
        <pt x="535" y="209" on="1"/>
      </contour>
      <contour>
        <pt x="434" y="688" on="1"/>
        <pt x="434" y="645" on="0"/>
        <pt x="391" y="645" on="1"/>
        <pt x="349" y="645" on="0"/>
        <pt x="349" y="688" on="1"/>
        <pt x="349" y="731" on="0"/>
        <pt x="391" y="731" on="1"/>
        <pt x="434" y="731" on="0"/>
      </contour>
      <contour>
        <pt x="263" y="688" on="1"/>
        <pt x="263" y="645" on="0"/>
        <pt x="220" y="645" on="1"/>
        <pt x="178" y="645" on="0"/>
        <pt x="178" y="688" on="1"/>
        <pt x="178" y="731" on="0"/>
        <pt x="220" y="731" on="1"/>
        <pt x="263" y="731" on="0"/>
      </contour>
    </TTGlyph>
    <TTGlyph name="Edieresissmall" xMin="40" yMin="0" xMax="410" yMax="550">
      <contour>
        <pt x="410" y="138" on="1"/>
        <pt x="402" y="0" on="1"/>
        <pt x="40" y="0" on="1"/>
        <pt x="40" y="18" on="1"/>
        <pt x="94" y="18" on="1"/>
        <pt x="94" y="379" on="1"/>
        <pt x="40" y="379" on="1"/>
        <pt x="40" y="397" on="1"/>
        <pt x="393" y="397" on="1"/>
        <pt x="394" y="280" on="1"/>
        <pt x="370" y="280" on="1"/>
        <pt x="366" y="326" on="0"/>
        <pt x="319" y="373" on="0"/>
        <pt x="265" y="374" on="1"/>
        <pt x="173" y="375" on="1"/>
        <pt x="173" y="213" on="1"/>
        <pt x="241" y="213" on="1"/>
        <pt x="267" y="213" on="0"/>
        <pt x="277" y="227" on="1"/>
        <pt x="291" y="244" on="0"/>
        <pt x="291" y="280" on="1"/>
        <pt x="312" y="280" on="1"/>
        <pt x="312" y="120" on="1"/>
        <pt x="291" y="120" on="1"/>
        <pt x="291" y="154" on="0"/>
        <pt x="264" y="191" on="0"/>
        <pt x="241" y="191" on="1"/>
        <pt x="173" y="191" on="1"/>
        <pt x="173" y="21" on="1"/>
        <pt x="278" y="23" on="1"/>
        <pt x="294" y="23" on="0"/>
        <pt x="338" y="40" on="0"/>
        <pt x="350" y="51" on="1"/>
        <pt x="384" y="84" on="0"/>
        <pt x="387" y="138" on="1"/>
      </contour>
      <contour>
        <pt x="345" y="507" on="1"/>
        <pt x="345" y="465" on="0"/>
        <pt x="302" y="465" on="1"/>
        <pt x="260" y="465" on="0"/>
        <pt x="260" y="507" on="1"/>
        <pt x="260" y="550" on="0"/>
        <pt x="302" y="550" on="1"/>
        <pt x="345" y="550" on="0"/>
      </contour>
      <contour>
        <pt x="175" y="507" on="1"/>
        <pt x="175" y="465" on="0"/>
        <pt x="133" y="465" on="1"/>
        <pt x="90" y="465" on="0"/>
        <pt x="90" y="507" on="1"/>
        <pt x="90" y="550" on="0"/>
        <pt x="133" y="550" on="1"/>
        <pt x="175" y="550" on="0"/>
      </contour>
    </TTGlyph>
    <TTGlyph name="Edotaccent" xMin="45" yMin="0" xMax="563" yMax="750">
      <contour>
        <pt x="563" y="209" on="1"/>
        <pt x="553" y="0" on="1"/>
        <pt x="45" y="0" on="1"/>
        <pt x="45" y="27" on="1"/>
        <pt x="127" y="27" on="1"/>
        <pt x="127" y="576" on="1"/>
        <pt x="45" y="576" on="1"/>
        <pt x="45" y="603" on="1"/>
        <pt x="539" y="603" on="1"/>
        <pt x="541" y="425" on="1"/>
        <pt x="514" y="425" on="1"/>
        <pt x="511" y="462" on="0"/>
        <pt x="492" y="517" on="0"/>
        <pt x="454" y="554" on="0"/>
        <pt x="396" y="573" on="0"/>
        <pt x="354" y="574" on="1"/>
        <pt x="205" y="576" on="1"/>
        <pt x="205" y="322" on="1"/>
        <pt x="311" y="322" on="1"/>
        <pt x="349" y="322" on="0"/>
        <pt x="367" y="344" on="1"/>
        <pt x="388" y="372" on="0"/>
        <pt x="388" y="425" on="1"/>
        <pt x="415" y="425" on="1"/>
        <pt x="415" y="183" on="1"/>
        <pt x="388" y="183" on="1"/>
        <pt x="388" y="236" on="0"/>
        <pt x="344" y="292" on="0"/>
        <pt x="311" y="292" on="1"/>
        <pt x="205" y="292" on="1"/>
        <pt x="205" y="27" on="1"/>
        <pt x="368" y="30" on="1"/>
        <pt x="393" y="30" on="0"/>
        <pt x="427" y="43" on="1"/>
        <pt x="462" y="56" on="0"/>
        <pt x="479" y="73" on="1"/>
        <pt x="531" y="122" on="0"/>
        <pt x="535" y="209" on="1"/>
      </contour>
      <contour>
        <pt x="316" y="654" on="1"/>
        <pt x="297" y="654" on="0"/>
        <pt x="269" y="682" on="0"/>
        <pt x="269" y="703" on="1"/>
        <pt x="269" y="722" on="0"/>
        <pt x="297" y="750" on="0"/>
        <pt x="316" y="750" on="1"/>
        <pt x="336" y="750" on="0"/>
        <pt x="364" y="722" on="0"/>
        <pt x="364" y="703" on="1"/>
        <pt x="364" y="682" on="0"/>
        <pt x="336" y="654" on="0"/>
      </contour>
    </TTGlyph>
    <TTGlyph name="Edotbelow" xMin="45" yMin="-207" xMax="563" yMax="603">
      <contour>
        <pt x="563" y="209" on="1"/>
        <pt x="553" y="0" on="1"/>
        <pt x="45" y="0" on="1"/>
        <pt x="45" y="27" on="1"/>
        <pt x="127" y="27" on="1"/>
        <pt x="127" y="576" on="1"/>
        <pt x="45" y="576" on="1"/>
        <pt x="45" y="603" on="1"/>
        <pt x="539" y="603" on="1"/>
        <pt x="541" y="425" on="1"/>
        <pt x="514" y="425" on="1"/>
        <pt x="511" y="462" on="0"/>
        <pt x="492" y="517" on="0"/>
        <pt x="454" y="554" on="0"/>
        <pt x="396" y="573" on="0"/>
        <pt x="354" y="574" on="1"/>
        <pt x="205" y="576" on="1"/>
        <pt x="205" y="322" on="1"/>
        <pt x="311" y="322" on="1"/>
        <pt x="349" y="322" on="0"/>
        <pt x="367" y="344" on="1"/>
        <pt x="388" y="372" on="0"/>
        <pt x="388" y="425" on="1"/>
        <pt x="415" y="425" on="1"/>
        <pt x="415" y="183" on="1"/>
        <pt x="388" y="183" on="1"/>
        <pt x="388" y="236" on="0"/>
        <pt x="344" y="292" on="0"/>
        <pt x="311" y="292" on="1"/>
        <pt x="205" y="292" on="1"/>
        <pt x="205" y="27" on="1"/>
        <pt x="368" y="30" on="1"/>
        <pt x="393" y="30" on="0"/>
        <pt x="427" y="43" on="1"/>
        <pt x="462" y="56" on="0"/>
        <pt x="479" y="73" on="1"/>
        <pt x="531" y="122" on="0"/>
        <pt x="535" y="209" on="1"/>
      </contour>
      <contour>
        <pt x="360" y="-159" on="1"/>
        <pt x="360" y="-179" on="0"/>
        <pt x="332" y="-207" on="0"/>
        <pt x="312" y="-207" on="1"/>
        <pt x="293" y="-207" on="0"/>
        <pt x="265" y="-179" on="0"/>
        <pt x="265" y="-159" on="1"/>
        <pt x="265" y="-141" on="0"/>
        <pt x="293" y="-114" on="0"/>
        <pt x="312" y="-114" on="1"/>
        <pt x="332" y="-114" on="0"/>
        <pt x="360" y="-141" on="0"/>
      </contour>
    </TTGlyph>
    <TTGlyph name="Egrave" xMin="45" yMin="0" xMax="563" yMax="794">
      <contour>
        <pt x="563" y="209" on="1"/>
        <pt x="553" y="0" on="1"/>
        <pt x="45" y="0" on="1"/>
        <pt x="45" y="27" on="1"/>
        <pt x="127" y="27" on="1"/>
        <pt x="127" y="576" on="1"/>
        <pt x="45" y="576" on="1"/>
        <pt x="45" y="603" on="1"/>
        <pt x="539" y="603" on="1"/>
        <pt x="541" y="425" on="1"/>
        <pt x="514" y="425" on="1"/>
        <pt x="511" y="462" on="0"/>
        <pt x="492" y="517" on="0"/>
        <pt x="454" y="554" on="0"/>
        <pt x="396" y="573" on="0"/>
        <pt x="354" y="574" on="1"/>
        <pt x="205" y="576" on="1"/>
        <pt x="205" y="322" on="1"/>
        <pt x="311" y="322" on="1"/>
        <pt x="349" y="322" on="0"/>
        <pt x="367" y="344" on="1"/>
        <pt x="388" y="372" on="0"/>
        <pt x="388" y="425" on="1"/>
        <pt x="415" y="425" on="1"/>
        <pt x="415" y="183" on="1"/>
        <pt x="388" y="183" on="1"/>
        <pt x="388" y="236" on="0"/>
        <pt x="344" y="292" on="0"/>
        <pt x="311" y="292" on="1"/>
        <pt x="205" y="292" on="1"/>
        <pt x="205" y="27" on="1"/>
        <pt x="368" y="30" on="1"/>
        <pt x="393" y="30" on="0"/>
        <pt x="427" y="43" on="1"/>
        <pt x="462" y="56" on="0"/>
        <pt x="479" y="73" on="1"/>
        <pt x="531" y="122" on="0"/>
        <pt x="535" y="209" on="1"/>
      </contour>
      <contour>
        <pt x="330" y="650" on="1"/>
        <pt x="297" y="650" on="1"/>
        <pt x="174" y="726" on="1"/>
        <pt x="140" y="747" on="0"/>
        <pt x="140" y="766" on="1"/>
        <pt x="140" y="794" on="0"/>
        <pt x="168" y="794" on="1"/>
        <pt x="186" y="794" on="0"/>
        <pt x="213" y="767" on="1"/>
      </contour>
    </TTGlyph>
    <TTGlyph name="Egravesmall" xMin="40" yMin="0" xMax="410" yMax="568">
      <contour>
        <pt x="410" y="138" on="1"/>
        <pt x="402" y="0" on="1"/>
        <pt x="40" y="0" on="1"/>
        <pt x="40" y="18" on="1"/>
        <pt x="94" y="18" on="1"/>
        <pt x="94" y="379" on="1"/>
        <pt x="40" y="379" on="1"/>
        <pt x="40" y="397" on="1"/>
        <pt x="393" y="397" on="1"/>
        <pt x="394" y="280" on="1"/>
        <pt x="370" y="280" on="1"/>
        <pt x="366" y="326" on="0"/>
        <pt x="319" y="373" on="0"/>
        <pt x="265" y="374" on="1"/>
        <pt x="173" y="375" on="1"/>
        <pt x="173" y="213" on="1"/>
        <pt x="241" y="213" on="1"/>
        <pt x="267" y="213" on="0"/>
        <pt x="277" y="227" on="1"/>
        <pt x="291" y="244" on="0"/>
        <pt x="291" y="280" on="1"/>
        <pt x="312" y="280" on="1"/>
        <pt x="312" y="120" on="1"/>
        <pt x="291" y="120" on="1"/>
        <pt x="291" y="154" on="0"/>
        <pt x="264" y="191" on="0"/>
        <pt x="241" y="191" on="1"/>
        <pt x="173" y="191" on="1"/>
        <pt x="173" y="21" on="1"/>
        <pt x="278" y="23" on="1"/>
        <pt x="294" y="23" on="0"/>
        <pt x="338" y="40" on="0"/>
        <pt x="350" y="51" on="1"/>
        <pt x="384" y="84" on="0"/>
        <pt x="387" y="138" on="1"/>
      </contour>
      <contour>
        <pt x="242" y="451" on="1"/>
        <pt x="209" y="451" on="1"/>
        <pt x="87" y="512" on="1"/>
        <pt x="52" y="528" on="0"/>
        <pt x="52" y="544" on="1"/>
        <pt x="52" y="568" on="0"/>
        <pt x="80" y="568" on="1"/>
        <pt x="97" y="568" on="0"/>
        <pt x="125" y="545" on="1"/>
      </contour>
    </TTGlyph>
    <TTGlyph name="Ehookabove" xMin="45" yMin="0" xMax="563" yMax="815">
      <contour>
        <pt x="563" y="209" on="1"/>
        <pt x="553" y="0" on="1"/>
        <pt x="45" y="0" on="1"/>
        <pt x="45" y="27" on="1"/>
        <pt x="127" y="27" on="1"/>
        <pt x="127" y="576" on="1"/>
        <pt x="45" y="576" on="1"/>
        <pt x="45" y="603" on="1"/>
        <pt x="539" y="603" on="1"/>
        <pt x="541" y="425" on="1"/>
        <pt x="514" y="425" on="1"/>
        <pt x="511" y="462" on="0"/>
        <pt x="492" y="517" on="0"/>
        <pt x="454" y="554" on="0"/>
        <pt x="396" y="573" on="0"/>
        <pt x="354" y="574" on="1"/>
        <pt x="205" y="576" on="1"/>
        <pt x="205" y="322" on="1"/>
        <pt x="311" y="322" on="1"/>
        <pt x="349" y="322" on="0"/>
        <pt x="367" y="344" on="1"/>
        <pt x="388" y="372" on="0"/>
        <pt x="388" y="425" on="1"/>
        <pt x="415" y="425" on="1"/>
        <pt x="415" y="183" on="1"/>
        <pt x="388" y="183" on="1"/>
        <pt x="388" y="236" on="0"/>
        <pt x="344" y="292" on="0"/>
        <pt x="311" y="292" on="1"/>
        <pt x="205" y="292" on="1"/>
        <pt x="205" y="27" on="1"/>
        <pt x="368" y="30" on="1"/>
        <pt x="393" y="30" on="0"/>
        <pt x="427" y="43" on="1"/>
        <pt x="462" y="56" on="0"/>
        <pt x="479" y="73" on="1"/>
        <pt x="531" y="122" on="0"/>
        <pt x="535" y="209" on="1"/>
      </contour>
      <contour>
        <pt x="307" y="649" on="1"/>
        <pt x="306" y="646" on="0"/>
        <pt x="301" y="646" on="1"/>
        <pt x="293" y="646" on="0"/>
        <pt x="283" y="661" on="0"/>
        <pt x="283" y="670" on="1"/>
        <pt x="283" y="684" on="0"/>
        <pt x="306" y="712" on="1"/>
        <pt x="330" y="739" on="0"/>
        <pt x="330" y="753" on="1"/>
        <pt x="330" y="787" on="0"/>
        <pt x="293" y="783" on="1"/>
        <pt x="276" y="781" on="0"/>
        <pt x="264" y="759" on="1"/>
        <pt x="259" y="751" on="0"/>
        <pt x="251" y="751" on="1"/>
        <pt x="241" y="751" on="0"/>
        <pt x="241" y="765" on="1"/>
        <pt x="241" y="781" on="0"/>
        <pt x="270" y="808" on="0"/>
        <pt x="287" y="812" on="1"/>
        <pt x="297" y="815" on="0"/>
        <pt x="307" y="815" on="1"/>
        <pt x="331" y="815" on="0"/>
        <pt x="366" y="787" on="0"/>
        <pt x="366" y="760" on="1"/>
        <pt x="366" y="739" on="0"/>
        <pt x="333" y="708" on="1"/>
        <pt x="301" y="676" on="0"/>
        <pt x="301" y="668" on="1"/>
        <pt x="301" y="663" on="0"/>
        <pt x="308" y="654" on="0"/>
      </contour>
    </TTGlyph>
    <TTGlyph name="Emacron" xMin="45" yMin="0" xMax="563" yMax="689">
      <contour>
        <pt x="563" y="209" on="1"/>
        <pt x="553" y="0" on="1"/>
        <pt x="45" y="0" on="1"/>
        <pt x="45" y="27" on="1"/>
        <pt x="127" y="27" on="1"/>
        <pt x="127" y="576" on="1"/>
        <pt x="45" y="576" on="1"/>
        <pt x="45" y="603" on="1"/>
        <pt x="539" y="603" on="1"/>
        <pt x="541" y="425" on="1"/>
        <pt x="514" y="425" on="1"/>
        <pt x="511" y="462" on="0"/>
        <pt x="492" y="517" on="0"/>
        <pt x="454" y="554" on="0"/>
        <pt x="396" y="573" on="0"/>
        <pt x="354" y="574" on="1"/>
        <pt x="205" y="576" on="1"/>
        <pt x="205" y="322" on="1"/>
        <pt x="311" y="322" on="1"/>
        <pt x="349" y="322" on="0"/>
        <pt x="367" y="344" on="1"/>
        <pt x="388" y="372" on="0"/>
        <pt x="388" y="425" on="1"/>
        <pt x="415" y="425" on="1"/>
        <pt x="415" y="183" on="1"/>
        <pt x="388" y="183" on="1"/>
        <pt x="388" y="236" on="0"/>
        <pt x="344" y="292" on="0"/>
        <pt x="311" y="292" on="1"/>
        <pt x="205" y="292" on="1"/>
        <pt x="205" y="27" on="1"/>
        <pt x="368" y="30" on="1"/>
        <pt x="393" y="30" on="0"/>
        <pt x="427" y="43" on="1"/>
        <pt x="462" y="56" on="0"/>
        <pt x="479" y="73" on="1"/>
        <pt x="531" y="122" on="0"/>
        <pt x="535" y="209" on="1"/>
      </contour>
      <contour>
        <pt x="438" y="646" on="1"/>
        <pt x="162" y="646" on="1"/>
        <pt x="162" y="689" on="1"/>
        <pt x="438" y="689" on="1"/>
      </contour>
    </TTGlyph>
    <TTGlyph name="Eng" xMin="37" yMin="-238" xMax="619" yMax="603">
      <contour>
        <pt x="619" y="576" on="1"/>
        <pt x="569" y="576" on="0"/>
        <pt x="560" y="567" on="1"/>
        <pt x="537" y="544" on="0"/>
        <pt x="537" y="500" on="1"/>
        <pt x="540" y="-14" on="1"/>
        <pt x="543" y="-146" on="0"/>
        <pt x="530" y="-178" on="1"/>
        <pt x="505" y="-238" on="0"/>
        <pt x="450" y="-238" on="1"/>
        <pt x="435" y="-238" on="0"/>
        <pt x="417" y="-235" on="1"/>
        <pt x="384" y="-228" on="0"/>
        <pt x="384" y="-194" on="1"/>
        <pt x="384" y="-169" on="0"/>
        <pt x="405" y="-159" on="1"/>
        <pt x="440" y="-186" on="0"/>
        <pt x="469" y="-181" on="1"/>
        <pt x="490" y="-179" on="0"/>
        <pt x="499" y="-151" on="1"/>
        <pt x="502" y="-141" on="0"/>
        <pt x="503" y="-79" on="1"/>
        <pt x="504" y="-15" on="0"/>
        <pt x="500" y="2" on="1"/>
        <pt x="149" y="556" on="1"/>
        <pt x="149" y="102" on="1"/>
        <pt x="149" y="57" on="0"/>
        <pt x="171" y="36" on="1"/>
        <pt x="179" y="27" on="0"/>
        <pt x="230" y="27" on="1"/>
        <pt x="230" y="0" on="1"/>
        <pt x="37" y="0" on="1"/>
        <pt x="37" y="27" on="1"/>
        <pt x="85" y="27" on="0"/>
        <pt x="94" y="35" on="1"/>
        <pt x="119" y="56" on="0"/>
        <pt x="119" y="102" on="1"/>
        <pt x="119" y="556" on="1"/>
        <pt x="116" y="576" on="0"/>
        <pt x="93" y="576" on="1"/>
        <pt x="44" y="576" on="1"/>
        <pt x="44" y="603" on="1"/>
        <pt x="219" y="603" on="1"/>
        <pt x="508" y="152" on="1"/>
        <pt x="508" y="500" on="1"/>
        <pt x="508" y="544" on="0"/>
        <pt x="484" y="568" on="1"/>
        <pt x="474" y="576" on="0"/>
        <pt x="426" y="576" on="1"/>
        <pt x="426" y="603" on="1"/>
        <pt x="619" y="603" on="1"/>
      </contour>
    </TTGlyph>
    <TTGlyph name="Engalt" xMin="12" yMin="-242" xMax="512" yMax="621">
      <contour>
        <pt x="512" y="-16" on="1"/>
        <pt x="512" y="-120" on="0"/>
        <pt x="465" y="-179" on="1"/>
        <pt x="415" y="-242" on="0"/>
        <pt x="352" y="-242" on="1"/>
        <pt x="341" y="-209" on="1"/>
        <pt x="353" y="-213" on="0"/>
        <pt x="370" y="-213" on="1"/>
        <pt x="397" y="-213" on="0"/>
        <pt x="417" y="-176" on="1"/>
        <pt x="440" y="-133" on="0"/>
        <pt x="440" y="-6" on="1"/>
        <pt x="439" y="458" on="1"/>
        <pt x="439" y="506" on="0"/>
        <pt x="406" y="536" on="1"/>
        <pt x="381" y="560" on="0"/>
        <pt x="340" y="567" on="1"/>
        <pt x="334" y="568" on="0"/>
        <pt x="323" y="569" on="0"/>
        <pt x="316" y="569" on="1"/>
        <pt x="262" y="569" on="0"/>
        <pt x="209" y="540" on="1"/>
        <pt x="156" y="511" on="0"/>
        <pt x="156" y="486" on="1"/>
        <pt x="156" y="87" on="1"/>
        <pt x="156" y="76" on="0"/>
        <pt x="157" y="45" on="0"/>
        <pt x="159" y="23" on="1"/>
        <pt x="227" y="23" on="1"/>
        <pt x="227" y="0" on="1"/>
        <pt x="12" y="0" on="1"/>
        <pt x="12" y="23" on="1"/>
        <pt x="79" y="23" on="1"/>
        <pt x="84" y="66" on="0"/>
        <pt x="84" y="87" on="1"/>
        <pt x="84" y="569" on="1"/>
        <pt x="52" y="562" on="0"/>
        <pt x="15" y="558" on="1"/>
        <pt x="15" y="584" on="1"/>
        <pt x="85" y="590" on="0"/>
        <pt x="148" y="619" on="1"/>
        <pt x="156" y="615" on="1"/>
        <pt x="156" y="543" on="1"/>
        <pt x="157" y="543" on="1"/>
        <pt x="225" y="594" on="1"/>
        <pt x="258" y="621" on="0"/>
        <pt x="318" y="621" on="1"/>
        <pt x="330" y="621" on="0"/>
        <pt x="358" y="619" on="0"/>
        <pt x="373" y="617" on="1"/>
        <pt x="446" y="604" on="0"/>
        <pt x="511" y="537" on="0"/>
        <pt x="511" y="470" on="1"/>
      </contour>
    </TTGlyph>
    <TTGlyph name="Eogonek" xMin="45" yMin="-173" xMax="563" yMax="603">
      <contour>
        <pt x="312" y="-126" on="1"/>
        <pt x="342" y="-126" on="0"/>
        <pt x="388" y="-98" on="1"/>
        <pt x="403" y="-116" on="0"/>
        <pt x="401" y="-116" on="1"/>
        <pt x="384" y="-137" on="0"/>
        <pt x="350" y="-155" on="1"/>
        <pt x="314" y="-173" on="0"/>
        <pt x="284" y="-173" on="1"/>
        <pt x="252" y="-173" on="0"/>
        <pt x="234" y="-151" on="1"/>
        <pt x="220" y="-130" on="0"/>
        <pt x="220" y="-107" on="1"/>
        <pt x="220" y="-55" on="0"/>
        <pt x="287" y="0" on="1"/>
        <pt x="45" y="0" on="1"/>
        <pt x="45" y="27" on="1"/>
        <pt x="127" y="27" on="1"/>
        <pt x="127" y="576" on="1"/>
        <pt x="45" y="576" on="1"/>
        <pt x="45" y="603" on="1"/>
        <pt x="539" y="603" on="1"/>
        <pt x="541" y="425" on="1"/>
        <pt x="514" y="425" on="1"/>
        <pt x="511" y="462" on="0"/>
        <pt x="492" y="517" on="0"/>
        <pt x="454" y="554" on="0"/>
        <pt x="396" y="573" on="0"/>
        <pt x="354" y="574" on="1"/>
        <pt x="205" y="576" on="1"/>
        <pt x="205" y="322" on="1"/>
        <pt x="311" y="322" on="1"/>
        <pt x="349" y="322" on="0"/>
        <pt x="367" y="344" on="1"/>
        <pt x="388" y="372" on="0"/>
        <pt x="388" y="425" on="1"/>
        <pt x="415" y="425" on="1"/>
        <pt x="415" y="183" on="1"/>
        <pt x="388" y="183" on="1"/>
        <pt x="388" y="236" on="0"/>
        <pt x="344" y="292" on="0"/>
        <pt x="311" y="292" on="1"/>
        <pt x="205" y="292" on="1"/>
        <pt x="205" y="27" on="1"/>
        <pt x="368" y="30" on="1"/>
        <pt x="393" y="30" on="0"/>
        <pt x="427" y="43" on="1"/>
        <pt x="462" y="56" on="0"/>
        <pt x="479" y="73" on="1"/>
        <pt x="531" y="122" on="0"/>
        <pt x="535" y="209" on="1"/>
        <pt x="563" y="209" on="1"/>
        <pt x="553" y="0" on="1"/>
        <pt x="321" y="0" on="1"/>
        <pt x="273" y="-54" on="0"/>
        <pt x="273" y="-93" on="1"/>
        <pt x="273" y="-126" on="0"/>
      </contour>
    </TTGlyph>
    <TTGlyph name="Epsilon" xMin="40" yMin="0" xMax="558" yMax="603">
      <contour>
        <pt x="558" y="209" on="1"/>
        <pt x="549" y="0" on="1"/>
        <pt x="40" y="0" on="1"/>
        <pt x="40" y="27" on="1"/>
        <pt x="122" y="27" on="1"/>
        <pt x="122" y="576" on="1"/>
        <pt x="40" y="576" on="1"/>
        <pt x="40" y="603" on="1"/>
        <pt x="535" y="603" on="1"/>
        <pt x="535" y="425" on="1"/>
        <pt x="510" y="425" on="1"/>
        <pt x="500" y="519" on="0"/>
        <pt x="446" y="551" on="1"/>
        <pt x="402" y="577" on="0"/>
        <pt x="313" y="577" on="1"/>
        <pt x="305" y="577" on="0"/>
        <pt x="277" y="577" on="0"/>
        <pt x="257" y="576" on="1"/>
        <pt x="220" y="574" on="0"/>
        <pt x="199" y="576" on="1"/>
        <pt x="199" y="322" on="1"/>
        <pt x="307" y="322" on="1"/>
        <pt x="383" y="322" on="0"/>
        <pt x="383" y="425" on="1"/>
        <pt x="410" y="425" on="1"/>
        <pt x="410" y="183" on="1"/>
        <pt x="383" y="183" on="1"/>
        <pt x="383" y="225" on="0"/>
        <pt x="367" y="255" on="1"/>
        <pt x="347" y="292" on="0"/>
        <pt x="307" y="292" on="1"/>
        <pt x="199" y="292" on="1"/>
        <pt x="199" y="27" on="1"/>
        <pt x="341" y="28" on="0"/>
        <pt x="353" y="30" on="1"/>
        <pt x="436" y="38" on="0"/>
        <pt x="476" y="73" on="1"/>
        <pt x="526" y="115" on="0"/>
        <pt x="530" y="209" on="1"/>
      </contour>
    </TTGlyph>
    <TTGlyph name="Epsilontonos" xMin="-105" yMin="0" xMax="632" yMax="621">
      <contour>
        <pt x="632" y="209" on="1"/>
        <pt x="622" y="0" on="1"/>
        <pt x="114" y="0" on="1"/>
        <pt x="114" y="27" on="1"/>
        <pt x="196" y="27" on="1"/>
        <pt x="196" y="576" on="1"/>
        <pt x="114" y="576" on="1"/>
        <pt x="114" y="603" on="1"/>
        <pt x="608" y="603" on="1"/>
        <pt x="609" y="425" on="1"/>
        <pt x="584" y="425" on="1"/>
        <pt x="574" y="519" on="0"/>
        <pt x="520" y="551" on="1"/>
        <pt x="476" y="577" on="0"/>
        <pt x="387" y="577" on="1"/>
        <pt x="379" y="577" on="0"/>
        <pt x="351" y="577" on="0"/>
        <pt x="331" y="576" on="1"/>
        <pt x="294" y="574" on="0"/>
        <pt x="273" y="576" on="1"/>
        <pt x="273" y="322" on="1"/>
        <pt x="381" y="322" on="1"/>
        <pt x="457" y="322" on="0"/>
        <pt x="457" y="425" on="1"/>
        <pt x="484" y="425" on="1"/>
        <pt x="484" y="183" on="1"/>
        <pt x="457" y="183" on="1"/>
        <pt x="457" y="225" on="0"/>
        <pt x="441" y="255" on="1"/>
        <pt x="421" y="292" on="0"/>
        <pt x="381" y="292" on="1"/>
        <pt x="273" y="292" on="1"/>
        <pt x="273" y="27" on="1"/>
        <pt x="415" y="28" on="0"/>
        <pt x="427" y="30" on="1"/>
        <pt x="509" y="38" on="0"/>
        <pt x="549" y="73" on="1"/>
        <pt x="599" y="115" on="0"/>
        <pt x="604" y="209" on="1"/>
      </contour>
      <contour>
        <pt x="41" y="590" on="1"/>
        <pt x="41" y="571" on="0"/>
        <pt x="30" y="560" on="1"/>
        <pt x="-87" y="441" on="1"/>
        <pt x="-105" y="445" on="1"/>
        <pt x="-20" y="604" on="1"/>
        <pt x="-11" y="621" on="0"/>
        <pt x="12" y="621" on="1"/>
        <pt x="41" y="621" on="0"/>
      </contour>
    </TTGlyph>
    <TTGlyph name="Esmall" xMin="31" yMin="0" xMax="403" yMax="400">
      <contour>
        <pt x="403" y="139" on="1"/>
        <pt x="395" y="0" on="1"/>
        <pt x="31" y="0" on="1"/>
        <pt x="31" y="18" on="1"/>
        <pt x="85" y="18" on="1"/>
        <pt x="85" y="381" on="1"/>
        <pt x="31" y="381" on="1"/>
        <pt x="31" y="400" on="1"/>
        <pt x="386" y="400" on="1"/>
        <pt x="387" y="282" on="1"/>
        <pt x="363" y="282" on="1"/>
        <pt x="359" y="328" on="0"/>
        <pt x="311" y="375" on="0"/>
        <pt x="257" y="376" on="1"/>
        <pt x="164" y="378" on="1"/>
        <pt x="164" y="214" on="1"/>
        <pt x="233" y="214" on="1"/>
        <pt x="259" y="214" on="0"/>
        <pt x="269" y="228" on="1"/>
        <pt x="283" y="246" on="0"/>
        <pt x="283" y="282" on="1"/>
        <pt x="304" y="282" on="1"/>
        <pt x="304" y="121" on="1"/>
        <pt x="283" y="121" on="1"/>
        <pt x="283" y="155" on="0"/>
        <pt x="256" y="192" on="0"/>
        <pt x="233" y="192" on="1"/>
        <pt x="164" y="192" on="1"/>
        <pt x="164" y="21" on="1"/>
        <pt x="270" y="23" on="1"/>
        <pt x="286" y="23" on="0"/>
        <pt x="330" y="40" on="0"/>
        <pt x="343" y="51" on="1"/>
        <pt x="377" y="83" on="0"/>
        <pt x="380" y="139" on="1"/>
      </contour>
    </TTGlyph>
    <TTGlyph name="Eta" xMin="38" yMin="0" xMax="628" yMax="603">
      <contour>
        <pt x="628" y="0" on="1"/>
        <pt x="385" y="0" on="1"/>
        <pt x="385" y="27" on="1"/>
        <pt x="467" y="27" on="1"/>
        <pt x="467" y="302" on="1"/>
        <pt x="199" y="302" on="1"/>
        <pt x="199" y="27" on="1"/>
        <pt x="280" y="27" on="1"/>
        <pt x="280" y="0" on="1"/>
        <pt x="38" y="0" on="1"/>
        <pt x="38" y="27" on="1"/>
        <pt x="121" y="27" on="1"/>
        <pt x="121" y="576" on="1"/>
        <pt x="38" y="576" on="1"/>
        <pt x="38" y="603" on="1"/>
        <pt x="280" y="603" on="1"/>
        <pt x="280" y="576" on="1"/>
        <pt x="199" y="576" on="1"/>
        <pt x="199" y="332" on="1"/>
        <pt x="467" y="332" on="1"/>
        <pt x="467" y="576" on="1"/>
        <pt x="385" y="576" on="1"/>
        <pt x="385" y="603" on="1"/>
        <pt x="628" y="603" on="1"/>
        <pt x="628" y="576" on="1"/>
        <pt x="547" y="576" on="1"/>
        <pt x="547" y="27" on="1"/>
        <pt x="628" y="27" on="1"/>
      </contour>
    </TTGlyph>
    <TTGlyph name="Etatonos" xMin="-105" yMin="-3" xMax="672" yMax="619">
      <contour>
        <pt x="672" y="-3" on="1"/>
        <pt x="429" y="-3" on="1"/>
        <pt x="429" y="24" on="1"/>
        <pt x="511" y="24" on="1"/>
        <pt x="511" y="299" on="1"/>
        <pt x="242" y="299" on="1"/>
        <pt x="242" y="24" on="1"/>
        <pt x="324" y="24" on="1"/>
        <pt x="324" y="-3" on="1"/>
        <pt x="82" y="-3" on="1"/>
        <pt x="82" y="24" on="1"/>
        <pt x="164" y="24" on="1"/>
        <pt x="164" y="573" on="1"/>
        <pt x="82" y="573" on="1"/>
        <pt x="82" y="600" on="1"/>
        <pt x="324" y="600" on="1"/>
        <pt x="324" y="573" on="1"/>
        <pt x="242" y="573" on="1"/>
        <pt x="242" y="330" on="1"/>
        <pt x="511" y="330" on="1"/>
        <pt x="511" y="573" on="1"/>
        <pt x="429" y="573" on="1"/>
        <pt x="429" y="600" on="1"/>
        <pt x="672" y="600" on="1"/>
        <pt x="672" y="573" on="1"/>
        <pt x="591" y="573" on="1"/>
        <pt x="591" y="24" on="1"/>
        <pt x="672" y="24" on="1"/>
      </contour>
      <contour>
        <pt x="41" y="587" on="1"/>
        <pt x="41" y="569" on="0"/>
        <pt x="30" y="557" on="1"/>
        <pt x="-87" y="438" on="1"/>
        <pt x="-105" y="443" on="1"/>
        <pt x="-20" y="601" on="1"/>
        <pt x="-11" y="619" on="0"/>
        <pt x="12" y="619" on="1"/>
        <pt x="41" y="619" on="0"/>
      </contour>
    </TTGlyph>
    <TTGlyph name="Eth" xMin="38" yMin="-5" xMax="605" yMax="603">
      <contour>
        <pt x="605" y="294" on="1"/>
        <pt x="605" y="171" on="0"/>
        <pt x="523" y="83" on="1"/>
        <pt x="443" y="-5" on="0"/>
        <pt x="337" y="-2" on="1"/>
        <pt x="289" y="0" on="0"/>
        <pt x="201" y="1" on="0"/>
        <pt x="161" y="2" on="1"/>
        <pt x="128" y="2" on="0"/>
        <pt x="66" y="1" on="0"/>
        <pt x="38" y="0" on="1"/>
        <pt x="38" y="27" on="1"/>
        <pt x="121" y="27" on="1"/>
        <pt x="121" y="286" on="1"/>
        <pt x="40" y="286" on="1"/>
        <pt x="40" y="316" on="1"/>
        <pt x="121" y="316" on="1"/>
        <pt x="121" y="576" on="1"/>
        <pt x="38" y="576" on="1"/>
        <pt x="38" y="603" on="1"/>
        <pt x="72" y="601" on="0"/>
        <pt x="140" y="598" on="0"/>
        <pt x="174" y="599" on="1"/>
        <pt x="237" y="600" on="0"/>
        <pt x="339" y="599" on="1"/>
        <pt x="463" y="598" on="0"/>
        <pt x="533" y="516" on="1"/>
        <pt x="605" y="434" on="0"/>
      </contour>
      <contour>
        <pt x="512" y="297" on="1"/>
        <pt x="511" y="420" on="0"/>
        <pt x="478" y="485" on="1"/>
        <pt x="437" y="568" on="0"/>
        <pt x="339" y="576" on="1"/>
        <pt x="301" y="577" on="0"/>
        <pt x="231" y="577" on="0"/>
        <pt x="199" y="572" on="1"/>
        <pt x="199" y="316" on="1"/>
        <pt x="329" y="316" on="1"/>
        <pt x="329" y="286" on="1"/>
        <pt x="199" y="286" on="1"/>
        <pt x="199" y="27" on="1"/>
        <pt x="257" y="22" on="0"/>
        <pt x="300" y="22" on="1"/>
        <pt x="312" y="22" on="0"/>
        <pt x="331" y="23" on="0"/>
        <pt x="338" y="24" on="1"/>
        <pt x="428" y="37" on="0"/>
        <pt x="471" y="111" on="1"/>
        <pt x="514" y="179" on="0"/>
      </contour>
    </TTGlyph>
    <TTGlyph name="Ethsmall" xMin="31" yMin="0" xMax="453" yMax="421">
      <contour>
        <pt x="105" y="217" on="1"/>
        <pt x="105" y="229" on="0"/>
        <pt x="105" y="316" on="0"/>
        <pt x="104" y="393" on="1"/>
        <pt x="98" y="402" on="0"/>
        <pt x="57" y="402" on="1"/>
        <pt x="36" y="402" on="1"/>
        <pt x="36" y="419" on="1"/>
        <pt x="72" y="421" on="0"/>
        <pt x="178" y="419" on="0"/>
        <pt x="251" y="417" on="1"/>
        <pt x="453" y="397" on="0"/>
        <pt x="453" y="209" on="1"/>
        <pt x="453" y="108" on="0"/>
        <pt x="386" y="51" on="1"/>
        <pt x="326" y="1" on="0"/>
        <pt x="237" y="1" on="1"/>
        <pt x="148" y="1" on="0"/>
        <pt x="48" y="1" on="0"/>
        <pt x="36" y="0" on="1"/>
        <pt x="36" y="20" on="1"/>
        <pt x="57" y="20" on="1"/>
        <pt x="98" y="20" on="0"/>
        <pt x="104" y="29" on="1"/>
        <pt x="105" y="194" on="1"/>
        <pt x="31" y="194" on="1"/>
        <pt x="31" y="217" on="1"/>
      </contour>
      <contour>
        <pt x="260" y="194" on="1"/>
        <pt x="175" y="194" on="1"/>
        <pt x="175" y="25" on="1"/>
        <pt x="216" y="25" on="1"/>
        <pt x="300" y="25" on="0"/>
        <pt x="334" y="65" on="1"/>
        <pt x="370" y="110" on="0"/>
        <pt x="370" y="211" on="1"/>
        <pt x="370" y="286" on="0"/>
        <pt x="343" y="330" on="1"/>
        <pt x="313" y="381" on="0"/>
        <pt x="237" y="391" on="1"/>
        <pt x="207" y="396" on="0"/>
        <pt x="175" y="395" on="1"/>
        <pt x="175" y="217" on="1"/>
        <pt x="260" y="217" on="1"/>
      </contour>
    </TTGlyph>
    <TTGlyph name="Etilde" xMin="45" yMin="0" xMax="563" yMax="743">
      <contour>
        <pt x="563" y="209" on="1"/>
        <pt x="553" y="0" on="1"/>
        <pt x="45" y="0" on="1"/>
        <pt x="45" y="27" on="1"/>
        <pt x="127" y="27" on="1"/>
        <pt x="127" y="576" on="1"/>
        <pt x="45" y="576" on="1"/>
        <pt x="45" y="603" on="1"/>
        <pt x="539" y="603" on="1"/>
        <pt x="541" y="425" on="1"/>
        <pt x="514" y="425" on="1"/>
        <pt x="511" y="462" on="0"/>
        <pt x="492" y="517" on="0"/>
        <pt x="454" y="554" on="0"/>
        <pt x="396" y="573" on="0"/>
        <pt x="354" y="574" on="1"/>
        <pt x="205" y="576" on="1"/>
        <pt x="205" y="322" on="1"/>
        <pt x="311" y="322" on="1"/>
        <pt x="349" y="322" on="0"/>
        <pt x="367" y="344" on="1"/>
        <pt x="388" y="372" on="0"/>
        <pt x="388" y="425" on="1"/>
        <pt x="415" y="425" on="1"/>
        <pt x="415" y="183" on="1"/>
        <pt x="388" y="183" on="1"/>
        <pt x="388" y="236" on="0"/>
        <pt x="344" y="292" on="0"/>
        <pt x="311" y="292" on="1"/>
        <pt x="205" y="292" on="1"/>
        <pt x="205" y="27" on="1"/>
        <pt x="368" y="30" on="1"/>
        <pt x="393" y="30" on="0"/>
        <pt x="427" y="43" on="1"/>
        <pt x="462" y="56" on="0"/>
        <pt x="479" y="73" on="1"/>
        <pt x="531" y="122" on="0"/>
        <pt x="535" y="209" on="1"/>
      </contour>
      <contour>
        <pt x="463" y="743" on="1"/>
        <pt x="458" y="652" on="0"/>
        <pt x="381" y="652" on="1"/>
        <pt x="354" y="652" on="0"/>
        <pt x="305" y="668" on="1"/>
        <pt x="255" y="686" on="0"/>
        <pt x="233" y="686" on="1"/>
        <pt x="218" y="686" on="0"/>
        <pt x="189" y="665" on="0"/>
        <pt x="187" y="650" on="1"/>
        <pt x="171" y="650" on="1"/>
        <pt x="177" y="734" on="0"/>
        <pt x="250" y="734" on="1"/>
        <pt x="276" y="734" on="0"/>
        <pt x="328" y="719" on="1"/>
        <pt x="381" y="704" on="0"/>
        <pt x="405" y="704" on="1"/>
        <pt x="438" y="704" on="0"/>
        <pt x="448" y="743" on="1"/>
      </contour>
    </TTGlyph>
    <TTGlyph name="Euro" xMin="43" yMin="0" xMax="604" yMax="564">
      <contour>
        <pt x="43" y="212" on="1"/>
        <pt x="63" y="258" on="1"/>
        <pt x="120" y="258" on="1"/>
        <pt x="119" y="263" on="0"/>
        <pt x="119" y="276" on="0"/>
        <pt x="119" y="282" on="1"/>
        <pt x="119" y="288" on="0"/>
        <pt x="119" y="300" on="0"/>
        <pt x="120" y="305" on="1"/>
        <pt x="43" y="305" on="1"/>
        <pt x="63" y="353" on="1"/>
        <pt x="127" y="353" on="1"/>
        <pt x="144" y="428" on="0"/>
        <pt x="199" y="483" on="1"/>
        <pt x="279" y="564" on="0"/>
        <pt x="401" y="564" on="1"/>
        <pt x="521" y="564" on="0"/>
        <pt x="604" y="480" on="1"/>
        <pt x="584" y="433" on="1"/>
        <pt x="506" y="517" on="0"/>
        <pt x="401" y="517" on="1"/>
        <pt x="302" y="517" on="0"/>
        <pt x="234" y="449" on="1"/>
        <pt x="213" y="428" on="0"/>
        <pt x="184" y="379" on="0"/>
        <pt x="176" y="353" on="1"/>
        <pt x="549" y="353" on="1"/>
        <pt x="530" y="305" on="1"/>
        <pt x="166" y="305" on="1"/>
        <pt x="165" y="300" on="0"/>
        <pt x="165" y="287" on="0"/>
        <pt x="165" y="282" on="1"/>
        <pt x="165" y="276" on="0"/>
        <pt x="165" y="263" on="0"/>
        <pt x="166" y="258" on="1"/>
        <pt x="510" y="258" on="1"/>
        <pt x="490" y="212" on="1"/>
        <pt x="175" y="212" on="1"/>
        <pt x="191" y="157" on="0"/>
        <pt x="234" y="115" on="1"/>
        <pt x="303" y="47" on="0"/>
        <pt x="401" y="47" on="1"/>
        <pt x="507" y="47" on="0"/>
        <pt x="584" y="133" on="1"/>
        <pt x="584" y="64" on="1"/>
        <pt x="511" y="0" on="0"/>
        <pt x="401" y="0" on="1"/>
        <pt x="280" y="0" on="0"/>
        <pt x="199" y="80" on="1"/>
        <pt x="143" y="137" on="0"/>
        <pt x="127" y="212" on="1"/>
      </contour>
    </TTGlyph>
    <TTGlyph name="Ezh" xMin="21" yMin="-15" xMax="417" yMax="603">
      <contour>
        <pt x="407" y="603" on="1"/>
        <pt x="213" y="365" on="1"/>
        <pt x="230" y="367" on="0"/>
        <pt x="248" y="367" on="1"/>
        <pt x="330" y="367" on="0"/>
        <pt x="374" y="318" on="1"/>
        <pt x="417" y="269" on="0"/>
        <pt x="417" y="195" on="1"/>
        <pt x="417" y="91" on="0"/>
        <pt x="333" y="35" on="1"/>
        <pt x="258" y="-15" on="0"/>
        <pt x="148" y="-11" on="1"/>
        <pt x="84" y="-7" on="0"/>
        <pt x="21" y="21" on="1"/>
        <pt x="29" y="70" on="0"/>
        <pt x="27" y="152" on="1"/>
        <pt x="55" y="152" on="1"/>
        <pt x="62" y="94" on="1"/>
        <pt x="65" y="69" on="0"/>
        <pt x="100" y="42" on="1"/>
        <pt x="130" y="15" on="0"/>
        <pt x="157" y="15" on="1"/>
        <pt x="231" y="15" on="0"/>
        <pt x="276" y="60" on="1"/>
        <pt x="324" y="106" on="0"/>
        <pt x="324" y="178" on="1"/>
        <pt x="324" y="217" on="0"/>
        <pt x="309" y="251" on="1"/>
        <pt x="295" y="281" on="0"/>
        <pt x="241" y="319" on="0"/>
        <pt x="211" y="319" on="1"/>
        <pt x="192" y="319" on="0"/>
        <pt x="168" y="311" on="1"/>
        <pt x="150" y="340" on="1"/>
        <pt x="304" y="528" on="1"/>
        <pt x="111" y="528" on="1"/>
        <pt x="62" y="528" on="0"/>
        <pt x="59" y="461" on="1"/>
        <pt x="35" y="461" on="1"/>
        <pt x="35" y="603" on="1"/>
      </contour>
    </TTGlyph>
    <TTGlyph name="F" xMin="38" yMin="0" xMax="535" yMax="603">
      <contour>
        <pt x="535" y="425" on="1"/>
        <pt x="507" y="425" on="1"/>
        <pt x="505" y="462" on="0"/>
        <pt x="486" y="517" on="0"/>
        <pt x="448" y="554" on="0"/>
        <pt x="390" y="573" on="0"/>
        <pt x="348" y="574" on="1"/>
        <pt x="199" y="576" on="1"/>
        <pt x="199" y="322" on="1"/>
        <pt x="305" y="322" on="1"/>
        <pt x="344" y="322" on="0"/>
        <pt x="360" y="344" on="1"/>
        <pt x="381" y="372" on="0"/>
        <pt x="381" y="425" on="1"/>
        <pt x="409" y="425" on="1"/>
        <pt x="409" y="183" on="1"/>
        <pt x="381" y="183" on="1"/>
        <pt x="381" y="236" on="0"/>
        <pt x="338" y="292" on="0"/>
        <pt x="305" y="292" on="1"/>
        <pt x="199" y="292" on="1"/>
        <pt x="199" y="27" on="1"/>
        <pt x="280" y="27" on="1"/>
        <pt x="280" y="0" on="1"/>
        <pt x="38" y="0" on="1"/>
        <pt x="38" y="27" on="1"/>
        <pt x="121" y="27" on="1"/>
        <pt x="121" y="576" on="1"/>
        <pt x="38" y="576" on="1"/>
        <pt x="38" y="603" on="1"/>
        <pt x="533" y="603" on="1"/>
      </contour>
    </TTGlyph>
    <TTGlyph name="Fsmall" xMin="30" yMin="0" xMax="387" yMax="400">
      <contour>
        <pt x="387" y="283" on="1"/>
        <pt x="363" y="283" on="1"/>
        <pt x="360" y="303" on="0"/>
        <pt x="356" y="317" on="1"/>
        <pt x="351" y="338" on="0"/>
        <pt x="336" y="353" on="1"/>
        <pt x="313" y="375" on="0"/>
        <pt x="257" y="377" on="1"/>
        <pt x="164" y="379" on="1"/>
        <pt x="164" y="214" on="1"/>
        <pt x="231" y="214" on="1"/>
        <pt x="257" y="214" on="0"/>
        <pt x="282" y="246" on="0"/>
        <pt x="282" y="283" on="1"/>
        <pt x="304" y="283" on="1"/>
        <pt x="304" y="121" on="1"/>
        <pt x="282" y="121" on="1"/>
        <pt x="282" y="157" on="0"/>
        <pt x="255" y="192" on="0"/>
        <pt x="231" y="192" on="1"/>
        <pt x="164" y="192" on="1"/>
        <pt x="164" y="18" on="1"/>
        <pt x="218" y="18" on="1"/>
        <pt x="218" y="0" on="1"/>
        <pt x="30" y="0" on="1"/>
        <pt x="30" y="18" on="1"/>
        <pt x="84" y="18" on="1"/>
        <pt x="84" y="382" on="1"/>
        <pt x="30" y="382" on="1"/>
        <pt x="30" y="400" on="1"/>
        <pt x="386" y="400" on="1"/>
      </contour>
    </TTGlyph>
    <TTGlyph name="G" xMin="46" yMin="-12" xMax="566" yMax="616">
      <contour>
        <pt x="566" y="209" on="1"/>
        <pt x="536" y="209" on="1"/>
        <pt x="536" y="31" on="1"/>
        <pt x="514" y="24" on="0"/>
        <pt x="468" y="9" on="0"/>
        <pt x="445" y="2" on="1"/>
        <pt x="418" y="-5" on="0"/>
        <pt x="354" y="-12" on="0"/>
        <pt x="315" y="-12" on="1"/>
        <pt x="206" y="-12" on="0"/>
        <pt x="124" y="79" on="1"/>
        <pt x="46" y="171" on="0"/>
        <pt x="48" y="302" on="1"/>
        <pt x="49" y="442" on="0"/>
        <pt x="127" y="531" on="1"/>
        <pt x="204" y="616" on="0"/>
        <pt x="315" y="616" on="1"/>
        <pt x="389" y="616" on="0"/>
        <pt x="433" y="605" on="1"/>
        <pt x="440" y="604" on="0"/>
        <pt x="472" y="593" on="0"/>
        <pt x="498" y="584" on="1"/>
        <pt x="498" y="446" on="1"/>
        <pt x="472" y="446" on="1"/>
        <pt x="465" y="521" on="0"/>
        <pt x="395" y="592" on="0"/>
        <pt x="319" y="589" on="1"/>
        <pt x="149" y="578" on="0"/>
        <pt x="149" y="302" on="1"/>
        <pt x="149" y="177" on="0"/>
        <pt x="193" y="98" on="1"/>
        <pt x="238" y="20" on="0"/>
        <pt x="312" y="19" on="1"/>
        <pt x="356" y="18" on="0"/>
        <pt x="408" y="38" on="1"/>
        <pt x="453" y="54" on="0"/>
        <pt x="458" y="70" on="1"/>
        <pt x="460" y="75" on="0"/>
        <pt x="462" y="93" on="0"/>
        <pt x="462" y="105" on="1"/>
        <pt x="462" y="209" on="1"/>
        <pt x="363" y="209" on="1"/>
        <pt x="363" y="237" on="1"/>
        <pt x="566" y="237" on="1"/>
      </contour>
    </TTGlyph>
    <TTGlyph name="Gamma" xMin="45" yMin="0" xMax="539" yMax="603">
      <contour>
        <pt x="539" y="425" on="1"/>
        <pt x="513" y="425" on="1"/>
        <pt x="505" y="519" on="0"/>
        <pt x="449" y="551" on="1"/>
        <pt x="408" y="577" on="0"/>
        <pt x="318" y="577" on="1"/>
        <pt x="311" y="577" on="0"/>
        <pt x="284" y="577" on="0"/>
        <pt x="264" y="576" on="1"/>
        <pt x="228" y="574" on="0"/>
        <pt x="209" y="576" on="1"/>
        <pt x="209" y="27" on="1"/>
        <pt x="291" y="27" on="1"/>
        <pt x="291" y="0" on="1"/>
        <pt x="45" y="0" on="1"/>
        <pt x="45" y="27" on="1"/>
        <pt x="128" y="27" on="1"/>
        <pt x="128" y="576" on="1"/>
        <pt x="45" y="576" on="1"/>
        <pt x="45" y="603" on="1"/>
        <pt x="536" y="603" on="1"/>
      </contour>
    </TTGlyph>
    <TTGlyph name="Gbreve" xMin="46" yMin="-12" xMax="566" yMax="787">
      <contour>
        <pt x="566" y="209" on="1"/>
        <pt x="536" y="209" on="1"/>
        <pt x="536" y="31" on="1"/>
        <pt x="514" y="24" on="0"/>
        <pt x="468" y="9" on="0"/>
        <pt x="445" y="2" on="1"/>
        <pt x="418" y="-5" on="0"/>
        <pt x="354" y="-12" on="0"/>
        <pt x="315" y="-12" on="1"/>
        <pt x="206" y="-12" on="0"/>
        <pt x="124" y="79" on="1"/>
        <pt x="46" y="171" on="0"/>
        <pt x="48" y="302" on="1"/>
        <pt x="49" y="442" on="0"/>
        <pt x="127" y="531" on="1"/>
        <pt x="204" y="616" on="0"/>
        <pt x="315" y="616" on="1"/>
        <pt x="389" y="616" on="0"/>
        <pt x="433" y="605" on="1"/>
        <pt x="440" y="604" on="0"/>
        <pt x="472" y="593" on="0"/>
        <pt x="498" y="584" on="1"/>
        <pt x="498" y="446" on="1"/>
        <pt x="472" y="446" on="1"/>
        <pt x="465" y="521" on="0"/>
        <pt x="395" y="592" on="0"/>
        <pt x="319" y="589" on="1"/>
        <pt x="149" y="578" on="0"/>
        <pt x="149" y="302" on="1"/>
        <pt x="149" y="177" on="0"/>
        <pt x="193" y="98" on="1"/>
        <pt x="238" y="20" on="0"/>
        <pt x="312" y="19" on="1"/>
        <pt x="356" y="18" on="0"/>
        <pt x="408" y="38" on="1"/>
        <pt x="453" y="54" on="0"/>
        <pt x="458" y="70" on="1"/>
        <pt x="460" y="75" on="0"/>
        <pt x="462" y="93" on="0"/>
        <pt x="462" y="105" on="1"/>
        <pt x="462" y="209" on="1"/>
        <pt x="363" y="209" on="1"/>
        <pt x="363" y="237" on="1"/>
        <pt x="566" y="237" on="1"/>
      </contour>
      <contour>
        <pt x="458" y="785" on="1"/>
        <pt x="458" y="727" on="0"/>
        <pt x="423" y="689" on="1"/>
        <pt x="387" y="650" on="0"/>
        <pt x="331" y="650" on="1"/>
        <pt x="270" y="650" on="0"/>
        <pt x="199" y="724" on="0"/>
        <pt x="199" y="785" on="1"/>
        <pt x="201" y="787" on="1"/>
        <pt x="224" y="787" on="1"/>
        <pt x="241" y="706" on="0"/>
        <pt x="332" y="706" on="1"/>
        <pt x="417" y="706" on="0"/>
        <pt x="432" y="787" on="1"/>
        <pt x="455" y="787" on="1"/>
      </contour>
    </TTGlyph>
    <TTGlyph name="Gcircumflex" xMin="46" yMin="-12" xMax="566" yMax="804">
      <contour>
        <pt x="566" y="209" on="1"/>
        <pt x="536" y="209" on="1"/>
        <pt x="536" y="31" on="1"/>
        <pt x="514" y="24" on="0"/>
        <pt x="468" y="9" on="0"/>
        <pt x="445" y="2" on="1"/>
        <pt x="418" y="-5" on="0"/>
        <pt x="354" y="-12" on="0"/>
        <pt x="315" y="-12" on="1"/>
        <pt x="206" y="-12" on="0"/>
        <pt x="124" y="79" on="1"/>
        <pt x="46" y="171" on="0"/>
        <pt x="48" y="302" on="1"/>
        <pt x="49" y="442" on="0"/>
        <pt x="127" y="531" on="1"/>
        <pt x="204" y="616" on="0"/>
        <pt x="315" y="616" on="1"/>
        <pt x="389" y="616" on="0"/>
        <pt x="433" y="605" on="1"/>
        <pt x="440" y="604" on="0"/>
        <pt x="472" y="593" on="0"/>
        <pt x="498" y="584" on="1"/>
        <pt x="498" y="446" on="1"/>
        <pt x="472" y="446" on="1"/>
        <pt x="465" y="521" on="0"/>
        <pt x="395" y="592" on="0"/>
        <pt x="319" y="589" on="1"/>
        <pt x="149" y="578" on="0"/>
        <pt x="149" y="302" on="1"/>
        <pt x="149" y="177" on="0"/>
        <pt x="193" y="98" on="1"/>
        <pt x="238" y="20" on="0"/>
        <pt x="312" y="19" on="1"/>
        <pt x="356" y="18" on="0"/>
        <pt x="408" y="38" on="1"/>
        <pt x="453" y="54" on="0"/>
        <pt x="458" y="70" on="1"/>
        <pt x="460" y="75" on="0"/>
        <pt x="462" y="93" on="0"/>
        <pt x="462" y="105" on="1"/>
        <pt x="462" y="209" on="1"/>
        <pt x="363" y="209" on="1"/>
        <pt x="363" y="237" on="1"/>
        <pt x="566" y="237" on="1"/>
      </contour>
      <contour>
        <pt x="465" y="653" on="1"/>
        <pt x="463" y="648" on="1"/>
        <pt x="436" y="648" on="1"/>
        <pt x="324" y="748" on="1"/>
        <pt x="212" y="648" on="1"/>
        <pt x="185" y="648" on="1"/>
        <pt x="181" y="653" on="1"/>
        <pt x="304" y="804" on="1"/>
        <pt x="345" y="804" on="1"/>
      </contour>
    </TTGlyph>
    <TTGlyph name="Gcommaaccent" xMin="46" yMin="-240" xMax="566" yMax="616">
      <contour>
        <pt x="566" y="209" on="1"/>
        <pt x="536" y="209" on="1"/>
        <pt x="536" y="31" on="1"/>
        <pt x="514" y="24" on="0"/>
        <pt x="468" y="9" on="0"/>
        <pt x="445" y="2" on="1"/>
        <pt x="418" y="-5" on="0"/>
        <pt x="354" y="-12" on="0"/>
        <pt x="315" y="-12" on="1"/>
        <pt x="206" y="-12" on="0"/>
        <pt x="124" y="79" on="1"/>
        <pt x="46" y="171" on="0"/>
        <pt x="48" y="302" on="1"/>
        <pt x="49" y="442" on="0"/>
        <pt x="127" y="531" on="1"/>
        <pt x="204" y="616" on="0"/>
        <pt x="315" y="616" on="1"/>
        <pt x="389" y="616" on="0"/>
        <pt x="433" y="605" on="1"/>
        <pt x="440" y="604" on="0"/>
        <pt x="472" y="593" on="0"/>
        <pt x="498" y="584" on="1"/>
        <pt x="498" y="446" on="1"/>
        <pt x="472" y="446" on="1"/>
        <pt x="465" y="521" on="0"/>
        <pt x="395" y="592" on="0"/>
        <pt x="319" y="589" on="1"/>
        <pt x="149" y="578" on="0"/>
        <pt x="149" y="302" on="1"/>
        <pt x="149" y="177" on="0"/>
        <pt x="193" y="98" on="1"/>
        <pt x="238" y="20" on="0"/>
        <pt x="312" y="19" on="1"/>
        <pt x="356" y="18" on="0"/>
        <pt x="408" y="38" on="1"/>
        <pt x="453" y="54" on="0"/>
        <pt x="458" y="70" on="1"/>
        <pt x="460" y="75" on="0"/>
        <pt x="462" y="93" on="0"/>
        <pt x="462" y="105" on="1"/>
        <pt x="462" y="209" on="1"/>
        <pt x="363" y="209" on="1"/>
        <pt x="363" y="237" on="1"/>
        <pt x="566" y="237" on="1"/>
      </contour>
      <contour>
        <pt x="313" y="-240" on="1"/>
        <pt x="309" y="-221" on="1"/>
        <pt x="384" y="-209" on="0"/>
        <pt x="384" y="-166" on="1"/>
        <pt x="384" y="-154" on="0"/>
        <pt x="367" y="-152" on="1"/>
        <pt x="310" y="-151" on="0"/>
        <pt x="310" y="-100" on="1"/>
        <pt x="310" y="-78" on="0"/>
        <pt x="339" y="-51" on="0"/>
        <pt x="363" y="-51" on="1"/>
        <pt x="423" y="-51" on="0"/>
        <pt x="423" y="-121" on="1"/>
        <pt x="423" y="-229" on="0"/>
      </contour>
    </TTGlyph>
    <TTGlyph name="Gdotaccent" xMin="46" yMin="-12" xMax="566" yMax="741">
      <contour>
        <pt x="566" y="209" on="1"/>
        <pt x="536" y="209" on="1"/>
        <pt x="536" y="31" on="1"/>
        <pt x="514" y="24" on="0"/>
        <pt x="468" y="9" on="0"/>
        <pt x="445" y="2" on="1"/>
        <pt x="418" y="-5" on="0"/>
        <pt x="354" y="-12" on="0"/>
        <pt x="315" y="-12" on="1"/>
        <pt x="206" y="-12" on="0"/>
        <pt x="124" y="79" on="1"/>
        <pt x="46" y="171" on="0"/>
        <pt x="48" y="302" on="1"/>
        <pt x="49" y="442" on="0"/>
        <pt x="127" y="531" on="1"/>
        <pt x="204" y="616" on="0"/>
        <pt x="315" y="616" on="1"/>
        <pt x="389" y="616" on="0"/>
        <pt x="433" y="605" on="1"/>
        <pt x="440" y="604" on="0"/>
        <pt x="472" y="593" on="0"/>
        <pt x="498" y="584" on="1"/>
        <pt x="498" y="446" on="1"/>
        <pt x="472" y="446" on="1"/>
        <pt x="465" y="521" on="0"/>
        <pt x="395" y="592" on="0"/>
        <pt x="319" y="589" on="1"/>
        <pt x="149" y="578" on="0"/>
        <pt x="149" y="302" on="1"/>
        <pt x="149" y="177" on="0"/>
        <pt x="193" y="98" on="1"/>
        <pt x="238" y="20" on="0"/>
        <pt x="312" y="19" on="1"/>
        <pt x="356" y="18" on="0"/>
        <pt x="408" y="38" on="1"/>
        <pt x="453" y="54" on="0"/>
        <pt x="458" y="70" on="1"/>
        <pt x="460" y="75" on="0"/>
        <pt x="462" y="93" on="0"/>
        <pt x="462" y="105" on="1"/>
        <pt x="462" y="209" on="1"/>
        <pt x="363" y="209" on="1"/>
        <pt x="363" y="237" on="1"/>
        <pt x="566" y="237" on="1"/>
      </contour>
      <contour>
        <pt x="331" y="646" on="1"/>
        <pt x="311" y="646" on="0"/>
        <pt x="283" y="674" on="0"/>
        <pt x="283" y="694" on="1"/>
        <pt x="283" y="713" on="0"/>
        <pt x="311" y="741" on="0"/>
        <pt x="331" y="741" on="1"/>
        <pt x="351" y="741" on="0"/>
        <pt x="379" y="713" on="0"/>
        <pt x="379" y="694" on="1"/>
        <pt x="379" y="674" on="0"/>
        <pt x="351" y="646" on="0"/>
      </contour>
    </TTGlyph>
    <TTGlyph name="Grave" xMin="44" yMin="576" xMax="212" yMax="708">
      <contour>
        <pt x="212" y="584" on="1"/>
        <pt x="202" y="576" on="1"/>
        <pt x="197" y="577" on="1"/>
        <pt x="122" y="635" on="1"/>
        <pt x="44" y="694" on="1"/>
        <pt x="48" y="705" on="1"/>
        <pt x="52" y="708" on="1"/>
        <pt x="122" y="698" on="1"/>
        <pt x="157" y="654" on="1"/>
        <pt x="162" y="649" on="0"/>
        <pt x="188" y="617" on="0"/>
        <pt x="211" y="590" on="1"/>
      </contour>
    </TTGlyph>
    <TTGlyph name="Gravesmall" xMin="26" yMin="429" xMax="215" yMax="574">
      <contour>
        <pt x="215" y="429" on="1"/>
        <pt x="183" y="429" on="1"/>
        <pt x="59" y="505" on="1"/>
        <pt x="26" y="526" on="0"/>
        <pt x="26" y="543" on="1"/>
        <pt x="26" y="574" on="0"/>
        <pt x="54" y="574" on="1"/>
        <pt x="71" y="574" on="0"/>
        <pt x="99" y="546" on="1"/>
      </contour>
    </TTGlyph>
    <TTGlyph name="Gsmall" xMin="38" yMin="-10" xMax="414" yMax="406">
      <contour>
        <pt x="229" y="388" on="1"/>
        <pt x="201" y="388" on="0"/>
        <pt x="157" y="358" on="0"/>
        <pt x="144" y="331" on="1"/>
        <pt x="126" y="286" on="0"/>
        <pt x="126" y="196" on="1"/>
        <pt x="126" y="105" on="0"/>
        <pt x="144" y="62" on="1"/>
        <pt x="169" y="11" on="0"/>
        <pt x="225" y="12" on="1"/>
        <pt x="256" y="13" on="0"/>
        <pt x="298" y="24" on="0"/>
        <pt x="313" y="38" on="1"/>
        <pt x="313" y="136" on="1"/>
        <pt x="249" y="136" on="1"/>
        <pt x="249" y="159" on="1"/>
        <pt x="414" y="159" on="1"/>
        <pt x="414" y="138" on="1"/>
        <pt x="390" y="138" on="1"/>
        <pt x="390" y="25" on="1"/>
        <pt x="362" y="13" on="0"/>
        <pt x="320" y="0" on="0"/>
        <pt x="283" y="-8" on="0"/>
        <pt x="247" y="-10" on="0"/>
        <pt x="224" y="-10" on="1"/>
        <pt x="149" y="-10" on="0"/>
        <pt x="94" y="52" on="1"/>
        <pt x="38" y="113" on="0"/>
        <pt x="38" y="199" on="1"/>
        <pt x="38" y="290" on="0"/>
        <pt x="94" y="350" on="1"/>
        <pt x="147" y="405" on="0"/>
        <pt x="224" y="406" on="1"/>
        <pt x="255" y="406" on="0"/>
        <pt x="318" y="395" on="0"/>
        <pt x="361" y="381" on="1"/>
        <pt x="361" y="270" on="1"/>
        <pt x="340" y="270" on="1"/>
        <pt x="335" y="329" on="0"/>
        <pt x="284" y="388" on="0"/>
      </contour>
    </TTGlyph>
    <TTGlyph name="H" xMin="38" yMin="0" xMax="628" yMax="603">
      <contour>
        <pt x="628" y="0" on="1"/>
        <pt x="385" y="0" on="1"/>
        <pt x="385" y="27" on="1"/>
        <pt x="467" y="27" on="1"/>
        <pt x="467" y="302" on="1"/>
        <pt x="199" y="302" on="1"/>
        <pt x="199" y="27" on="1"/>
        <pt x="280" y="27" on="1"/>
        <pt x="280" y="0" on="1"/>
        <pt x="38" y="0" on="1"/>
        <pt x="38" y="27" on="1"/>
        <pt x="121" y="27" on="1"/>
        <pt x="121" y="576" on="1"/>
        <pt x="38" y="576" on="1"/>
        <pt x="38" y="603" on="1"/>
        <pt x="280" y="603" on="1"/>
        <pt x="280" y="576" on="1"/>
        <pt x="199" y="576" on="1"/>
        <pt x="199" y="332" on="1"/>
        <pt x="467" y="332" on="1"/>
        <pt x="467" y="576" on="1"/>
        <pt x="385" y="576" on="1"/>
        <pt x="385" y="603" on="1"/>
        <pt x="628" y="603" on="1"/>
        <pt x="628" y="576" on="1"/>
        <pt x="547" y="576" on="1"/>
        <pt x="547" y="27" on="1"/>
        <pt x="628" y="27" on="1"/>
      </contour>
    </TTGlyph>
    <TTGlyph name="H18533" xMin="45" yMin="41" xMax="292" yMax="288">
      <contour>
        <pt x="169" y="288" on="1"/>
        <pt x="220" y="288" on="0"/>
        <pt x="256" y="251" on="1"/>
        <pt x="292" y="215" on="0"/>
        <pt x="292" y="164" on="1"/>
        <pt x="292" y="113" on="0"/>
        <pt x="256" y="77" on="1"/>
        <pt x="220" y="41" on="0"/>
        <pt x="169" y="41" on="1"/>
        <pt x="116" y="41" on="0"/>
        <pt x="80" y="77" on="1"/>
        <pt x="45" y="113" on="0"/>
        <pt x="45" y="164" on="1"/>
        <pt x="45" y="216" on="0"/>
        <pt x="81" y="252" on="1"/>
        <pt x="119" y="288" on="0"/>
      </contour>
    </TTGlyph>
    <TTGlyph name="H18543" xMin="57" yMin="80" xMax="220" yMax="242">
      <contour>
        <pt x="220" y="242" on="1"/>
        <pt x="220" y="80" on="1"/>
        <pt x="57" y="80" on="1"/>
        <pt x="57" y="242" on="1"/>
      </contour>
    </TTGlyph>
    <TTGlyph name="H18551" xMin="59" yMin="81" xMax="221" yMax="244">
      <contour>
        <pt x="221" y="244" on="1"/>
        <pt x="221" y="81" on="1"/>
        <pt x="59" y="81" on="1"/>
        <pt x="59" y="244" on="1"/>
      </contour>
      <contour>
        <pt x="194" y="218" on="1"/>
        <pt x="86" y="218" on="1"/>
        <pt x="86" y="108" on="1"/>
        <pt x="194" y="108" on="1"/>
      </contour>
    </TTGlyph>
    <TTGlyph name="H22073" xMin="24" yMin="-4" xMax="356" yMax="327">
      <contour>
        <pt x="24" y="327" on="1"/>
        <pt x="356" y="327" on="1"/>
        <pt x="356" y="-4" on="1"/>
        <pt x="24" y="-4" on="1"/>
      </contour>
      <contour>
        <pt x="52" y="301" on="1"/>
        <pt x="52" y="23" on="1"/>
        <pt x="330" y="23" on="1"/>
        <pt x="330" y="301" on="1"/>
      </contour>
    </TTGlyph>
    <TTGlyph name="Hbar" xMin="38" yMin="0" xMax="628" yMax="603">
      <contour>
        <pt x="199" y="430" on="1"/>
        <pt x="199" y="332" on="1"/>
        <pt x="467" y="332" on="1"/>
        <pt x="467" y="430" on="1"/>
      </contour>
      <contour>
        <pt x="628" y="0" on="1"/>
        <pt x="385" y="0" on="1"/>
        <pt x="385" y="27" on="1"/>
        <pt x="467" y="27" on="1"/>
        <pt x="467" y="302" on="1"/>
        <pt x="199" y="302" on="1"/>
        <pt x="199" y="27" on="1"/>
        <pt x="280" y="27" on="1"/>
        <pt x="280" y="0" on="1"/>
        <pt x="38" y="0" on="1"/>
        <pt x="38" y="27" on="1"/>
        <pt x="121" y="27" on="1"/>
        <pt x="121" y="430" on="1"/>
        <pt x="42" y="430" on="1"/>
        <pt x="42" y="464" on="1"/>
        <pt x="121" y="464" on="1"/>
        <pt x="121" y="576" on="1"/>
        <pt x="38" y="576" on="1"/>
        <pt x="38" y="603" on="1"/>
        <pt x="280" y="603" on="1"/>
        <pt x="280" y="576" on="1"/>
        <pt x="199" y="576" on="1"/>
        <pt x="199" y="464" on="1"/>
        <pt x="467" y="464" on="1"/>
        <pt x="467" y="576" on="1"/>
        <pt x="385" y="576" on="1"/>
        <pt x="385" y="603" on="1"/>
        <pt x="628" y="603" on="1"/>
        <pt x="628" y="576" on="1"/>
        <pt x="547" y="576" on="1"/>
        <pt x="547" y="464" on="1"/>
        <pt x="626" y="464" on="1"/>
        <pt x="626" y="430" on="1"/>
        <pt x="547" y="430" on="1"/>
        <pt x="547" y="27" on="1"/>
        <pt x="628" y="27" on="1"/>
      </contour>
    </TTGlyph>
    <TTGlyph name="Hcircumflex" xMin="38" yMin="0" xMax="628" yMax="789">
      <contour>
        <pt x="628" y="0" on="1"/>
        <pt x="385" y="0" on="1"/>
        <pt x="385" y="27" on="1"/>
        <pt x="467" y="27" on="1"/>
        <pt x="467" y="302" on="1"/>
        <pt x="199" y="302" on="1"/>
        <pt x="199" y="27" on="1"/>
        <pt x="280" y="27" on="1"/>
        <pt x="280" y="0" on="1"/>
        <pt x="38" y="0" on="1"/>
        <pt x="38" y="27" on="1"/>
        <pt x="121" y="27" on="1"/>
        <pt x="121" y="576" on="1"/>
        <pt x="38" y="576" on="1"/>
        <pt x="38" y="603" on="1"/>
        <pt x="280" y="603" on="1"/>
        <pt x="280" y="576" on="1"/>
        <pt x="199" y="576" on="1"/>
        <pt x="199" y="332" on="1"/>
        <pt x="467" y="332" on="1"/>
        <pt x="467" y="576" on="1"/>
        <pt x="385" y="576" on="1"/>
        <pt x="385" y="603" on="1"/>
        <pt x="628" y="603" on="1"/>
        <pt x="628" y="576" on="1"/>
        <pt x="547" y="576" on="1"/>
        <pt x="547" y="27" on="1"/>
        <pt x="628" y="27" on="1"/>
      </contour>
      <contour>
        <pt x="464" y="646" on="1"/>
        <pt x="434" y="646" on="1"/>
        <pt x="330" y="734" on="1"/>
        <pt x="227" y="646" on="1"/>
        <pt x="197" y="646" on="1"/>
        <pt x="304" y="789" on="1"/>
        <pt x="357" y="789" on="1"/>
      </contour>
    </TTGlyph>
    <TTGlyph name="Hsmall" xMin="31" yMin="0" xMax="445" yMax="400">
      <contour>
        <pt x="445" y="0" on="1"/>
        <pt x="258" y="0" on="1"/>
        <pt x="258" y="18" on="1"/>
        <pt x="312" y="18" on="1"/>
        <pt x="312" y="201" on="1"/>
        <pt x="164" y="201" on="1"/>
        <pt x="164" y="18" on="1"/>
        <pt x="216" y="18" on="1"/>
        <pt x="216" y="0" on="1"/>
        <pt x="31" y="0" on="1"/>
        <pt x="31" y="18" on="1"/>
        <pt x="83" y="18" on="1"/>
        <pt x="83" y="381" on="1"/>
        <pt x="31" y="381" on="1"/>
        <pt x="31" y="400" on="1"/>
        <pt x="216" y="400" on="1"/>
        <pt x="216" y="381" on="1"/>
        <pt x="164" y="381" on="1"/>
        <pt x="164" y="221" on="1"/>
        <pt x="312" y="221" on="1"/>
        <pt x="312" y="381" on="1"/>
        <pt x="258" y="381" on="1"/>
        <pt x="258" y="400" on="1"/>
        <pt x="445" y="400" on="1"/>
        <pt x="445" y="381" on="1"/>
        <pt x="391" y="381" on="1"/>
        <pt x="391" y="18" on="1"/>
        <pt x="445" y="18" on="1"/>
      </contour>
    </TTGlyph>
    <TTGlyph name="Hungarumlaut" xMin="-6" yMin="647" xMax="355" yMax="778">
      <contour>
        <pt x="164" y="706" on="1"/>
        <pt x="9" y="647" on="1"/>
        <pt x="-6" y="658" on="1"/>
        <pt x="137" y="767" on="1"/>
        <pt x="151" y="778" on="0"/>
        <pt x="173" y="768" on="1"/>
        <pt x="191" y="761" on="0"/>
        <pt x="191" y="743" on="1"/>
        <pt x="191" y="717" on="0"/>
      </contour>
      <contour>
        <pt x="329" y="706" on="1"/>
        <pt x="173" y="647" on="1"/>
        <pt x="158" y="658" on="1"/>
        <pt x="302" y="767" on="1"/>
        <pt x="318" y="778" on="0"/>
        <pt x="338" y="768" on="1"/>
        <pt x="355" y="761" on="0"/>
        <pt x="355" y="743" on="1"/>
        <pt x="355" y="717" on="0"/>
      </contour>
    </TTGlyph>
    <TTGlyph name="Hungarumlautsmall" xMin="1" yMin="444" xMax="362" yMax="575">
      <contour>
        <pt x="171" y="503" on="1"/>
        <pt x="16" y="444" on="1"/>
        <pt x="1" y="455" on="1"/>
        <pt x="144" y="563" on="1"/>
        <pt x="158" y="575" on="0"/>
        <pt x="180" y="564" on="1"/>
        <pt x="198" y="556" on="0"/>
        <pt x="198" y="540" on="1"/>
        <pt x="198" y="512" on="0"/>
      </contour>
      <contour>
        <pt x="336" y="503" on="1"/>
        <pt x="180" y="444" on="1"/>
        <pt x="165" y="455" on="1"/>
        <pt x="309" y="563" on="1"/>
        <pt x="323" y="575" on="0"/>
        <pt x="345" y="564" on="1"/>
        <pt x="362" y="556" on="0"/>
        <pt x="362" y="540" on="1"/>
        <pt x="362" y="512" on="0"/>
      </contour>
    </TTGlyph>
    <TTGlyph name="I" xMin="43" yMin="0" xMax="293" yMax="603">
      <contour>
        <pt x="293" y="0" on="1"/>
        <pt x="43" y="0" on="1"/>
        <pt x="43" y="27" on="1"/>
        <pt x="125" y="27" on="1"/>
        <pt x="125" y="576" on="1"/>
        <pt x="43" y="576" on="1"/>
        <pt x="43" y="603" on="1"/>
        <pt x="293" y="603" on="1"/>
        <pt x="293" y="576" on="1"/>
        <pt x="212" y="576" on="1"/>
        <pt x="212" y="27" on="1"/>
        <pt x="293" y="27" on="1"/>
      </contour>
    </TTGlyph>
</ttFont>
